<mxfile host="app.diagrams.net" modified="2022-10-11T17:40:52.956Z" agent="5.0 (X11; Linux x86_64) AppleWebKit/537.36 (KHTML, like Gecko) Chrome/106.0.0.0 Safari/537.36" etag="0GSr2hkbO_wSqs9q0dqo" version="20.4.0" type="github">
  <diagram id="lZnXSqfiz4kC-2Nyk8IC" name="Page-1">
    <mxGraphModel dx="1203" dy="706" grid="1" gridSize="10" guides="1" tooltips="1" connect="1" arrows="1" fold="1" page="1" pageScale="1" pageWidth="827" pageHeight="1169" math="0" shadow="0">
      <root>
        <mxCell id="0" />
        <mxCell id="1" parent="0" />
        <mxCell id="qZBXPEywLh7AzfzNeHGv-1" value="" style="shape=image;verticalLabelPosition=bottom;labelBackgroundColor=default;verticalAlign=top;aspect=fixed;imageAspect=0;image=data:image/png,iVBORw0KGgoAAAANSUhEUgAAAgAAAAIACAMAAADDpiTIAAAAM1BMVEUAAAAAAAAAAAAAAAAAAAAAAAAAAAAAAAAAAAAAAAAAAAAmJicAAAAAAAAAAAAAAAAmJifJekibAAAAEHRSTlMAIEBwgK+/z58QYO/fUI8wzCfh4wAAAAlwSFlzAAAASAAAAEgARslrPgAAGOxJREFUeNrtnel2ozAMhRsgJECWvv/TTtdpNqIryXvu93POnBQsI8ta394IIYQQQgghhBBCCCGEEEIIIYQQQgghhBBCCCGEEEIIIYQQQgghhBBCCCGEEEIIIYQQQgghhBBCCCGEEEIIIYQQQgghhBBCCCGEEEIIIYQQQgghhBBCCCGEEEIIIYQQQgghhBBCCCGEEEIIIYQQQgghhBBSH5uu64dhO47j7v2Kj38Z98PQd92U+xlJBKZu/hD78g5x+NgKxy73I5NAdP0Jlfw1yzjMFW6Dqc/9BOXQ9fuDRfSX7PbzOfd7aOiXbe5HKILpeBq9sr/UBZWoguPHhqcGeOtOO7/UbxmH4jXB+WvPF/+Ycdn02/DC/9UE+7ngO8Jm//2QuZ8jJ+chwqd/owj6Te63fMg0/Fi6+9xPko3zyW3xYewK3APz/3efcz9KHjZDIun/7IGyzoLuQvGVtznjM83RNf8922Pu1/5lc3nfOeR+mvSc9yY/j5/lVMLXNp2uHurVTIAsH/8fY3Y1MNzs/tcyATanTB//H4c+pzUw31k+JSilVHT73NL/YtnnWvTu3tn5QiZAF87V6ybLFtg82v+n3GJJRd6j/54xdbBgGh4+R3abJA1z0kt/iVugXzF+inJPxKIr7Ov/vwWShWG6tQ9gl1s2KV6+oLP/ljS2wHl9Bdo3ATbxYn1BOEXXwdOzu0/rJsCN16tElrj5GNPw1PPRuAkwZ3f7IBwiWoOC9du2CVCq7XfPNpIpIK7AkFtGEalA+/+xxJAEYP5Ukrlo4ViF9v9jF/pKCH0AuaUUjalw2/8RYe8DA/IBjLnlFIs6jL9bAhqDR8zz2agJUOPn/00gtwzs+mrTBKjt9L8khCWwwYPeuUUVg6mMmL8Zr1togg7/b1o0Ac7V3P1XpeKyBVXWT4M1YX0UkYzbYRiO3RXzxz/dNQ0IwmI/mTtd1Lu5mrDA1t9hPA2duEhdNxjLyVcxGucbZdizuZqwgOp/PPW673Dq+n3AP284BvTGT2tl4YEu/4etUvYXdEMgXXDQameN7fdLYyZACNf/sp3dYZlzHyIBZdGl65tS3poyAQIc/7tw9fzHAGWnCqeQLeepKRNg4z1/gxfw+gvPt6AhYM15askEOPtO3kjl2xunHtghO2Al2xugoZqw2bPMhyFiYqavDnWRz6Te/vvt1IR55B+/Znt22ISSTwgM+j2knZowu/N/ifnx/+FRA8/259l13WimLNws/126Q3AytyNZ36GKoN9DGjEBzMG/1LV5tuK0J5+pN+rZhgkwGe9ayUsz32xbYF1Kk1P+bZgARvnnEP8n6i3wRAG4bj7vjZgANvnnEv8nui2wPHEEeP3NLdSEmeQfswwHQXNxfxIW3jjl30JNmEX+kQvxoMeGo1bP6ra8oa8GasIs8o9fiouAJm488wN6o84NlIXrD8HgxTdmIA/es7wgrwnYgAmgvgYXoP3/AM6Bp0raHW0uQhV6UMt/LMzxIRXuPg0EdV75V+8F0NpARX3+PzyP4z711PpzjpZtgR3McbRHYGmf/zfnJ4r8qZHmVgDfHE61WgJH5ZsW+Pl/sR7IeJ6tE7DrVZWKQJn/U47xf89KHePzXKBACuCXw/5Yl0k46eS/L/rtHiYzCrlgEZpejn3BX8kNSgdQ8WHve3tWkL/bB/CYQ9EDri5QXQDVBRYZuC1oEeSvVIAqAmbGR0NV/gnl1Wbn+jYgPXPk3ldlT7pTGkC1xLwvTzWpLDCwBfj4uzkV2zpko9F/xR//f/w/18Q9m6j/QYgiuRgoXn8J7uWY/roDBH+xAdyz5jIQA7vyHEWK8w8oqsCYunnYj/e+l2UcT8Mx2Fb4tO1lk/WcUP5flOUoUngAg5j/5xlo/XAYh2OIRToucjGgNQfWxeFUiqNIYQD4zf9u0Dhcl63fkwI8crYGWGUMQMa3v1P+thL/+HZTJBcQtAMKcBDg9o9L/q6R0ruYLlVnDbSD3Jm036+fQv4BBopHGxWexQD4pIxkigmWjFn+Ux9oiccoHohco4+GMkxAPJna+LznkBZWhDHRmQzAbFNOb4A9oEb5e6r4V1Yu7LmZxwDMWUV1BXwA2OQfZ65kyNXLIv9DOc509ABYLPKPN1Y02BbIIf8oY2yMoDcAi/837lTZMFsgxwWwqEwq1DrXyz/+WNEAE8EyyL+sPGo0CUR9ZHnbrGB471HpJ2DsSrH9vkGToNRnlqPHmoqDK6ya/PxXtqmND/iZavN/Us6WQLt+FiD/pRDHzx+gC0B7AUyZWuFIT0k9/rIUx88F2Ie66B48/WgZkxJIPQCthKDfLaAK1JktUUbLCBhGwbh7YOvw2SqRAC1AlQGYabDgQasD0pr/ZQT97sCOatUAtHNU18/q+qovKWmP/zLa59yBKQCVBzhPWEXtWEtrpcQaYO8GuwJqTtcsYVW9Yy2Vj+L78cpy/FyAtcNTtLyacqRV6DOqtBPgfI9XmuPnAuhzVfS8y5FWpXes2aeAWB6vOMfPBZgCwO+uGaIqhvX1jIFQU1TQ7w5IAeDWdQb56x1rvjEQSsoK+t0BKQD8AEgvf71xlSY++UMR2d7PgBYDPgCSy1/vWLPM/zRTXNDvDkgBwDeA1PI3ONYCDb/FHq9k2+8HxBaG3aup5a93rEm9Q4NSYNDvDsgJiGrZxPLXO9aS3vzLdfxcgkTs0BiAU/7LVyuAC2uj+2oasPbf9RlV+BCBABQZ9HsAchsGLUC8ruyB7IduVZtvjqf7XWBwrCW1/QrK9n4KErMBs8DM/j+obdr1qHCDcRU3Mf2GQoN+DwDORDQIaLtbK8p8/4qK9Y61+InpFxQb9LsHuQOCysziWVePlP6aD6vPqErq+Cks2/s5wMKACkDbW/zdWN899XrbL2XUp+Sg34OlAcwi7IX0F4Bkl6SUMf8aHD+XACYgNvZEbQAmE3/HoN8TAMsIUwDKMzbZMZk26FdgtvdzABMQUwA6AyBZYqx56LmF4oN+DwAcY5AC0PVWdxRwqQgb9FvGcTv8Z7xtalpotreAfDwu0O+omj2m8pCGcvws49B3D2+r5274dVFWZvv9AJQDQj4ATQFQqs8/TNBvHOT+rZv5VEPQ7xHyCQn5ADQHQCJFuQlQlFRwO/9QyIKDogD4YgfrLf6cAEG/stp3RwIw3ZFVwIdrJBot47b9dn2VJ7oa+QSA8gBgWyvNaBlvtvdyqu42b0X+UBCDHfazJ5G/N+h3KHuWU1DkpnCIEwieLpDC/PMG/cZKknjCIFtKyB0QXfIEMTKv46eOFL5wyGclYAJiVWVJ5O/M9q7Rk+tCFh1iAoJXwPgJcs6gX/nlG8GR3XfAmoBXwOj2nzPbu7YofhDkbxdYFGzdt5FfxRv0q9WT6yOE2DALILL/x237vcy9/wpZeQMnAPTlKVsLanEG/Wop3wiO7L+Rv1tMAUS1rp2Onzqj+EEQFw44AaCYS8wLgDfo94q23y/i4sgnABQGVnQW0uIN+lVUvhEe2QSQPw6kqiyiAeDM9n41v98NogkAfLlIzk20M9YZ9KurfCMC4uEpH93IhCFVb9nvX52HcfzaWp9JmGsDw53Z3i/p+LlGVJ/y5Rg5gXVX7M28vXuuw/4+QOsN+lVXvhEe8QIHZAMDR7Cit+iHSbGqla6HQ7odP69s+/0iZoPJl0AgoUzRXHoanp7pu78jm0G/EIg2oGy8AWoYtwBlqf4Ukzmzve1Bv03XD6fxPwPS06JgRBtKfj35Q8Sqyt7Qlu3bKVPQ72GHmgQR7piI0hN/ATgB0K8NzSpccgT9rjvTXO7H3DL0MElrJV/fZGGACiBVZ3mL4+e4X/9SYP1WIqIfUNZvsh8GswASDZYxBP02z+3S99xC9CAqXXG5ZC8QdgVI01nS0rNNdHTXfJ0QfTjiaSknlEE+gDTyN/VsE42cmp3J0rEru4HkOCxicSWRvzHoJ/rKar4GSOsu24DisiNRALioxIG9GU2INywV9+aWTQBAQSaYLOQJ+klqMmKmQ2zES4C4bLIJABy70Rv4+IJ+oqGUW4x2xA0gqk3RBADcJIbOkjqcQT9xk9cbUxRvgeIviJf3QAllDtzZ3v7PpFikDSBeAkRPIvB1xG3dHyDoJ14D6k0olxS4aN+KH4dsIKFVpSbCZHtLf6Xee6Bk34qlfOLxKK9NTAswUMKXdEmpdwNIJ7j4ZqL6FhVwRAUQrNJP+k7qdQRISygqUDGAJz5CNAUQMNtb2ubtbgBxDSUDXjQBYl0BgmZ7S7ZytZ4gUf2KG0D6ATEQhNSU6Ak8qEm0dPKJ0Idow0s/IDqCxTMkQCPPB9susGfGvU6l4n4xv4skgvjDZ3tzA6whKnDpU8Sbi6JYhkhKrkLxqKw1MVg620Tjxu1KDj3EyWD79YtfT9XqC5aWX7zeuH8gbB6oIej3VVrKDWCVn3SJF38gaCKo3vHz01ZEvDNwA6wgfcDiLTCg+B1DJMUNIDkruAFWkFYWKSzH0Gd7X5SWihtAes9aGwxJG8C9MNIPhLoEGIJ+l0WI0d+zVKJvAEkugTaA3va77ifLDRBrA0hnY6ANoH3v29JSMW2NG8C4MEVugPt+stFtnVJ5yQ3woK0IN8DrbICH/WS5AV5lA6z0k+UGiLUBpFtAmHwwtEB/tZ8sbwHZFibIBsAysqb1t+UGsK6se2GCFAVC9efP+slyA8TaAKJogqSEAm7A5/1kRflJMataK0PyRwM148ZXEaNAUj9ZRgOt8nP/QIhokNzEQvoF8QNudQPkzwgKkRAgli+Ju+xlE0Ly5wSGqAwVs8Dcqav+9PlCKSAr2H8GyE3I3HpKfM1au04XUBfgPwPkWZTiVSP6OpVKAZVB/tIgORNMcjaIpo74jLkFaca9Ady1ge7iQMAN6P4Jdx+NYpGWJkF1sLc0QLa//O1w260OLqA/wNvksgKAtfePRGi3P0AJHUJ8TcIA+1vUUuImlYyI6DPRo1FCjyBXeRAShRF/xP0LtcaCCukS5mgUi2wvUcGI6QTiZanWsoBC+gTaD4EFKQYSvQBiTnDDfQLL6BRqdghDpcCiehEVuGjo1FodXkyvYGNeAHT0ytpF3OQN9wp+c6+xnNYJfaaWfuGY7S1vLfEn/EMVyqWQeQGWHYDJX3Y0ys/nX6Ry8W9u+Q6HhcomZbsocBitHGoQlZx4CVDNxS2MYmYGvSntALQVjKxYRBNAtCLqdQOUNDXsTTMM+IDa3UDliX+N6r0FFjU38O0NHgi7hcvBZa0iX1PFh6o1HeSTkiaHftIDSkAxAQCoPJLPEumRar4EFDY7+O2qccvKcmv8roBZIX6+4hlX8yWgtOnhnzzdAodZ0wwEUAByNEG0cmu+BIQIliOfmTJaMj++Ei57pbkV5MnE62nNg0MBBS4bScAZAF8EfpmOp2vdtIyD2thGis9lA05UcPVGAj4RtSRg4gCGm0lNnrt++GLuTIY2cKeQt7d8zY0roOgE2OCIByfDZ4LkG8vqWzQB6rYBgSNO9gQgxR3plwlJNwaOpgDrUzaiFQhk3SCBnORZM0hsAQgoib9Ra2n4L7KlJH8liLJdEvvLoCwj+WCSf6beubE/iG8YaPhr2slK0CMB55Jo31Q7MOo/oq0MJHVBKV1JD0soqgDc4MV9VLcb6BO5MkdWcli3r4RRM6jcCHBQyvZt7SZAoKQuKJafzgzA0owBu1RWbdWbAIARAJwBmArYJVqtM5RYgLgnxVh3/SYAcl8CVgqL5EM54m7A/MIgVWv1mwBIUhdwBoBNX1NU0YHyRxSAfLLVnA30i6y+ETcemNOZ4CoQ8EnEo6TuZJBf5KQuwHpD2/5GD56CuaUHQAHIDq5664IvkU1d5GtBk3oj74CQjyEbNnXnAvwiX3aRlB64xjdqVACVP/RG8s80cAn8RBYd4u6Ae73E05sT3GoAMd5kzZjmVhMf+bOBorlwr5dYOwCvL4MkJ38XbZwAkOMMceLh8z/ieIQw/88nkE8SiHE2cgIgex36aPHyPqi1gxK8sAi7jMrqpJUTADkDoLROTc+/4KagoskE5L8F9FkrJwD0stBHo2n/j9d3IZw15eWQ+gHsyWZOAMR+w3xemoZfS8BIKlJSptvLwB2wnRMA0p9Ypw9Vw69QSkCaCHINFsADHAr1pwL8Aex3rL5L1/DLMPX7nknXbBbLSgAWpI04wC/AN4SZPMp2Tzt3OG1WtpoN9hotRIIvllF+YUwFqJv9jK4tcNR2GsacUEhoq+6SsFuQwxv7dnB3jH8LzOrWUqALClAALeQCKV8ZLPE09P0cLTfqqdf3GQcdUIgCaMcJgL8zmM1hmQBwGJQZo+e9pcMwaLgDFlFbJiD60uC1zTYPdNfDe+B8sg0ZAC8dSFCjLRPwE6S+CwzjWfp+fu+BAVDRR6P08Sgk8vg1d4ZaAVlW0PJ1TAH57ASxqmg2x8ExXACtUA74KVQF4shH11B/FbjZBafh2F3stq6bh71D9p+gMWjIm9lCNrDpxVH3p3MHRADOQUDCirV3hXgMYr0jybRflLYD8AdHfq21O+A3UGY3bP2WtQPwDBTkoFH1vasI6PoGr2RJOwCXP5TS0KYCAFUA7gItZwfsYPlDye2tKgBQBeDVXaXsAEUOaqjGEpWC1XfhYbAydoBC/tAB0K4CAFWAIg5m9gkGZI/LH6tualcBoCpA4QfHa3WiyV/x+tDDtqwA0DiOxg9miwwFQ/O5YmHMlhUAmtWpav6MuNZjoSpAwSqbWksEuQX7ClSu0LNrQLwHVQkaGMFqMQpwtQyY4a7q9KEdCRcKXcwee8g2owCXgBpb9yFoSoZCoSw8AfOYGswDuAXssaRbCVXpVhCUVSdgaXN7iUDmpdCWeFsyBe1oS07A/ibq0SdVAl7ctEkxKZXAVqmpUYdV8qb3WUAL/NQt31QlnA4O6qo90Ept/Qr4C2qyqV0imyReoUGtp9HHaqsY6AmostYvSBfdNazV/m+4q+oVLMBvoLSod1unF20xpw5LmRkqfzirrAHQfismqzjeFjBVGaK7val+ABJwYr+t31ecLWArMoVzFlpqCCIDt3wzdnybg9sCW5uTHpb/a7gA/oCbbll7/p1D3giWk9FFi+csvdIB8Ale3WXu+jj1gVxDpuryL3D5v9YB8LU28Po7+n5ay3wvOOBFxfd/Hpb/K90AfsGd967Or649AJUTr/9p3DPZehbAQ3AF7ez9e+4tJuGydXz7X38Wl//ruIAugScAhOj+3KkKv5ft4P4mFfJ/lRjALYpuP4cQbvLzfBpFqRzG4RgiK6PD5Z967nE5KBowB+v/PX21ArhXB8v41TQg1KtpUlVf7QZ4geKeFrL17zdT95/gL6bJUXtNA+AbhRlQVcK8xgn1qgbAN/gUkPd6GueoCtZezQV8iyqfN9VwYB+6OoWXSQJZQ+WyD3IZiIxitMx7VedaJJQFvsUvmOJm817PqRYT3RAITTV2Bja67dx+HRCCss0D3o8lPUflqxS9mdOh7f9davb8pFP/L+wBvEVb4T0WuXLaKuUYww1rRfnpvC8F2oLq2rQX9gDfo87fKk0J6AvTCtzDOVHvgCATwUKhPf0p/3v0ORvlXAfUo6VeOwL0GEvHt1MR16iNId+IDqB7LDuggHNAOVeS8l/H1PXxkDmd0lSSTvk/xtb30zcZ0oetBo3yX8PY+TXXFuhsCeeU/zrW3r85toC1/JDyf8ZkrehLvQXMBcjqxjevhrmmc5fOtTIN5moj+n9E7FW96vmwNjamqbKUP4yn+/M2eoTF03lgeckSQD2u/t9R1YBtpPR/+Rfjuy4d5ygYxZhoDRtnrTnzf3DcXT+D74Hz4H0kZXPhFydAB3hfbf8V9oHifzD8p0QfYb9n2c5uRWBrLnD3JDT/1egKLFY5bHuz7d0Ncjk59hA0/wwEbP89npS7YOr6fcA/z+PfROBRMIfxNHTip9h1A9BGQgW9v2aijIIZx+0wDMfuivnjn8YxxsgBen885JsIFgqqfx/m8GAhUP27UdbbFUU5ics1k2ssoJ8yspYbINUwoLDkzldtiRqVAD//oNRmCez4+QfGUH6Xj4XGfwS65ONhrZRWutwMgeJDkaHxF48KzgFq/7hsCr8PlN3ErAniDwe1YxgrSvSUag3mLFN9MeLOh6X4K2AuTAtQ/MkpyRYwjhUlPrpCcgX2NP1ysTlldw0dBl78cjLlNQbsU2VJMHwVmw7MI6VJYLKogS0//pLY2Jt2WIhUgEw8BBgVTulXzvkU/Syg9Atn08eLFy7bmXe+GuhiKILRP1CcpGM6ngK6iin8Oun6rdsu3O17lvdUTdcby72X8TTzw2+EqZuHLboPDuN+oOjbZNN1w/CxFe5aAXz8y4fYh77raOcTQgghhBBCCCGEEEIIIYQQQgghhBBCCCGEEEIIIYQQQgghhBBCCCGEEEIIIYQQQgghhBBCCCGEEEIIIYQQQgghhBBCCCGEEEIIIYQQQgghhBBCCCGEEEIIIYQQQgghhBBCCCGEEEIIIYQQQgghhBBCCPnhH3Uqj7qqd5lWAAAAMHRFWHRjb21tZW50AEVkaXRlZCB3aXRoIEx1bmFQaWM6IGh0dHA6Ly9sdW5hcGljLmNvbS+9CjLcAAAAJXRFWHRkYXRlOmNyZWF0ZQAyMDEzLTA5LTAxVDE2OjEzOjQyLTA3OjAwfCJg3AAAACV0RVh0ZGF0ZTptb2RpZnkAMjAxMy0wOS0wMVQxNjoxMzo0Mi0wNzowMA1/2GAAAAAZdEVYdFNvZnR3YXJlAEFkb2JlIEltYWdlUmVhZHlxyWU8AAAAAElFTkSuQmCC;" vertex="1" parent="1">
          <mxGeometry x="40" width="80" height="80" as="geometry" />
        </mxCell>
        <mxCell id="qZBXPEywLh7AzfzNeHGv-2" value="" style="shape=image;verticalLabelPosition=bottom;labelBackgroundColor=default;verticalAlign=top;aspect=fixed;imageAspect=0;image=data:image/png,iVBORw0KGgoAAAANSUhEUgAAAgAAAAIACAYAAAD0eNT6AABav0lEQVR42u2dCXglVZ2+052bzu3b1zSbCsoi0NjaC52kk5v0mgAq4IKDM+06Km5/FR+3GXVGdDQNPUOjaXTAccEVHXDf0NGRUdERFdwFdVRUQEM7oshOR5ae/3fwVFukb+rWXerWOafePE896eXmzb3n+9X5vqo6S08PX3zxxRdffPHFV7Nfj3jE5AIdC2PHAnjw4MGDBw+eX7xmf3nv3AMePHjw4MGD5xev2dRR0tEXO0qtpg948ODBgwcPXvd5rfxy8wsXxY6+Nj8MPHjw4MGDB6+LvFZ+eb+Ocuzob/PDwIMHDx48ePC6yGvll5tfuDh2lNv8MPDgwYMHDx68LvIiZtoXmtGFFR1LYof5+8IWfzE8ePDgwYMHr/u8BXbQ4MK0v9z8wmrsWNLmh4EHDx48ePDgdZcXDSBsHABiv3wgdlTb/DBVePDgwYMHD15XeQtiswaSA4B9cSX2Bpba7+18mIizFB48ePDgwYPXFV40gHBRLAAsSHpxOXbrYYDGhgcPHjx48LzkRbMG9gSARklh8ZxnDzQ2PHh+8xasWbNmn+Hh4YOGhoYOGxwcPMoc5s/m38z/mdfQfvDgBcWrxGYNmABQavSMoBwLAEtobHjw3OcdeeThpVptZGh4eOhvZehbdbx3cHDNl48++uif6Lhex90y/P9LOsxr7Gt/or9fLNZ7xJlau3b4aWNjtaHJyY1L0QMePG94kYdHAaAv6dZ/ySaEKABUaGx48NzkrV279gBdtf+VjjfKsL+uK/nbdfxf/Ghk+EnHXJbl3arjUh1n6e8njY6O7o8e8OA5yYvPGlicuGiQHRTQFwsAZRobHjyneAtkuutkvttk+t/R990NzLrT5l/vuEfh41t6P6fr+9jcRwjoCw9ebryBWAAoNxr0Fw8A7SxXiHjw4HWQZ4xVRvsmHTNtmnWnzb/e8WsdO3SMoi88eLnyogBQSfRz+0O9sTmCmD88eDnyVqxYsZ+uql8u8/9xhmadNe9KjR941fh47TD0hQev67yBVGP4YgGghPnDg5cfT8/1HybjPE/mv6vLZp0Zz3wWfX+3GaBIvcCD1zVeutl7sQCA+cODlwNv9erVwzLKT8ef64dg/nN49+j4hP58NPUCD54jvDZ3FKKx4cFrkSfTX2lM0UGzzpJnQs5HzN0O6gUePHd4NA48eF3g2Sl8b00zNz8w84+vOXCX2uAc3f3Yl3qBBw/zhwcvaN6aNat6ZX6n6rjRJ7POkqcg8AcFgef1xKYQUi/w4GH+8OAFw9OI+JV2EZ3/w/zrHpeYpYmpF3jwMH948ILgmeVzZWyv0DGL+ScfZsaAHo+8kvqDBw/zhwfPa57mwD9Ut7i/GKJZZ8sbvFjTBo+i/uDBw/zhwfOOpw10HiNT+x3m3xpPdwN+q3/fRP3Bg9d58089+4/GhgevOZ6e97+m2RH+mP/ePLXhnfrzi6k/ePA6xouW/k+9SFCVxoYHrzFvcnLTAdpC9wNFNOssebob8LYtW7b0Un/w4LVt/qVUASC2n/AAjQ0PXjJv48b1h8isvoL5Z8NTCPic9kioUn/w4LVs/tF+P8kBwL64Yq/+B2hsePDm523YsO4ImdcPMevMeZfXWziIeoYHr6H599vdfvsSl/63Ly7bq/9qbG9hGhsevDm8devGl+vq9H8w6+7w1NY/1NiAB1B/8OCl5pXtsScANEoKi2MBoEpjw4O3N89MVZN5XYVZd5enAPATfb8/9QwPXkNexfp5FABKjZ4RlGMBYAmNDQ9e3Wf+h8u8foxZ58b73rp1Y4dQz/DgzcuLPDwKAH1Jt/5LNiFEAaBCY8ODV++2/9iDZUDfx6zz5Q0OrrlcMy8OpJ7hwduLF929jwJAf5L599p0sCj2vIDGhgdvDu/444/bT8bzBczaDZ6mXV60ceP4PtQzPHj34Q3EAkC50aC/eADoT71KEI0Nr2A8GdA7MWvneGdTz/Dg3YcXBYBKop/bH+qNzRHE/OHBq7vC39CLMWs3efrz06lnePDuw2o8hi8WAEqYPzx49XkjI2snW93RD7POnqeZAXdoiuAg9QwP3r1Hutl7sQCA+cODV39Xv0NlMNdi1s7zflmr1QaoZ3jwUvJaNX4aG15ReDKWj2CufvB0F+D91DM8eBl/0djwCmL+z8Rc/eLpdU+mnuHBw/zhwWuZp219D9at/5swV+94N7BcMDx4mD88eC3zZCSfxFz95OlRwAepZ3jwMH948JrmyUBOxlz95g0NDT6WeoYHD/OHBy81b2JioiwDuRpz9Z53lZYKPoDzAx48zB8evFQ8mcdpmGsovMHTOD/gwduLuYDGgQdvb/O/v45bMdcweHqUc7NZx4HzAx68+yz9n3qRoCqNDa8oPLOuPOYaFk8h4F84P+DBu9f8S6kCQGw/4QEaG14ReDKLB8ksdmGuwfFuXbt27QGcH/AKbv7Rfj/JAcC+uGKv/gdobHhF4DVz9Y+5+sVr5i4A5we8AM2/3+7225e49L99cdle/VdjewvT2PCC5ekK0Wz1ewvmGizvj1ocaAnnB7wC8sr22BMAGiWFxbEAUKWxu8Oz08/uv3r16iPUiR2tP2+q1UaPGx0dGddAplW12shDNK1pP9qv8zxdIb4Scw2e9xLOj87zVqxYUVW7H6ZjSEH6mLVrh0/Q1tkn6vtx2kVzg/7tKJ1f++ilC2i/rvMq1s+jAFBq9IygHAsAS2jszvJk7vuqI5rQCfH/9H2Hjs/qyuQqHXem7dz02tv1/QoxPqrv28xe6PpzzQQI9GiJt1Bteg3mGjbPnGecH63xZOIVteF6tfEL1I7/pj9/QcfP4mNmUmzZfJc9zy7R8W797Mv1muMUIPZDj0x4kYdHAaAv6dZ/ySaEKABUaOz2ecuXL7+fiv6x1uy/r2N3hp3lrH7XV/T9dfq+USdtH3o05qltT8Bci8GT6UzSXzXm6ZbjYrXXo3W8SX3Jt415Z6jvbvF/Im3eaTZyWr161QHo0TYvunsfBYD+JPPvtelgUex5AY3dIk+36g9TUb9Ix6WNTpyMO8vb9Ps/rVtxT1+/fvwBnEz1v9ROn8Bci8HT+XAB/VV9nh0H80y10X/kORtGv/tuPUK4TMerx8ZGH05/1RJvIBYAyo0G/cUDQH/qVYJo7D08s+SojPapKtqLVMR/crCzvFG7271Hz+Qeycl0n+eX+9V7/IK5hskzxmaeWWP+fz4mJzcuVZ/1SLXNh1vpt7qg725p9iWdo0+Sbovwo9S8KABUEv3c/lBvbI4g5t8Eb/PmDQfLWLeqUK/3qLP8kU6qv92yZUtv0fVVWzwHcy0c76lFN39dsByoK/6XqS1+6pG+vzOPN9Os6UC4u/fPjcfwxQJACfNPz9uwYf1DVKBn6bjJ185SIeAXOp7XKFmHrK+uLC7GXIvFU81fVFRz0AXLQbrif53a4A++6qtz9g47NuEB+NG8vHSz92IBAPNP8aWT534qzmkdtwfUWf5GJ9Oze+pM0wlZX/PMs94YDcw1eN6sMcIimcPxxx+3nx5R/r0+++8C0vc2MwsqeqSD+bfAa9X4i9jYg4NrnqDk/JuAB0h93aw/UBR99Zn/BjMsJk9m+MSimIMeUT5On/knoeqrfmunvj8D82eL4Ex4ZmEeFdnnitBZ6nPebW6vrVy5cmno+irMvQszLCZPpnhe6OZgdkHUHcsLiqKvjq/oMw9i/ph/x3h24Ys7CthZXqcVCB8dsr7S9VrMsJg8M/4lZHPQ462/1uf+36Lpa2Z5mEcdmD/m3xavVqsN2Kkxhe0szXxcfT/DTBUKTV/d4TgEMyw2b75BZD73f0NDg2V9vrej7+Bnm90BEvOncaJb/sNm2VA6yz28i0PrLM28YvQtNk8B969C6v/WrDn6UH2+76DvnseZ1+rvI/gb5t/MLf+nmyV16Sz3Opl2mmAUTme55l/Rt/C8N4Rz5T+0MVqLBH3vuzy6WfMEf8P804wKf0W0Vj+dZV3eLQoCx4ZQL5rR8TX0LTzvCyH0f6plczdrF/om/szrMP/7MBdg/n/5WqCU+EY6y1Q8c3dki+/1os/4R/QtNs/c1fLf/AdPNcvlom+qBaDe2jNnrZMCTh2Mlv5PvUhQNeTGMcvhqiN4H51lU7x7TMfjq/mbDUbQF545RkdH9/fY/F+Bvk3vBXF+tAR6Qc2/lCoAxPYTHgj8tv976Sxb5j3HxyStDZEeg77w7F2AMU/HsLwcfVvjmQu+NWtW9RbQ/KP9fpIDgH1xxV79DwRs/mfRWba9aNDjfUvSmif8QvSFZ2v4SR6a//PRtz2eFkg6r2Dm3293++1LXPrfvrhsr/6rsb2FQ1sE5u/oLDuysYoZfHS8TyeTVoH7Z/SFZ49/9Gyq3+Pt+hzo2ybP7OJakBUDy/bYEwAaJYXFsQBQDa1xdAI9jdH+HeXdpNvq63w5mfS+34G+8GyA/VdfOnNdtIzM3YQMfdvimcGTpwRu/hXr51EAKDV6RlCOBYAlAd72X2OuWin+zvLUrL+o1UYe5EO9SP+PoS88+wjgAh86c12tPlCfbwZ9O8szy7yrPxgM1PwjD48CQF/Srf+STQhRAKiEZv5m20gVws8o/mx4OpE+5EO96P1fgr7w7PGfrnfmJ5302D59vq+ib2a8X2mRs30DM//o7n0UAPqTzL/XpoNFsecFwd0WMWmf4s98edX/53q96H1+H33h2eNy1ztzXf1vQ9/MeR8PyPyjcXtRACg3GvQXDwD9qVcJ8qhxJPBzKf7seXZQ4NEu14ve4/+gLzxbr1e6vavf8LF6j3ehb1d4zwnE/JfGAkAl0c/tD/XG5ggGZ/7aFepQiXsbxd+1FdZ+EC224WK96D3+En3h2Z//maud+fr1YwfoPf4cfbvGu8XsEhqA+UesJWkX/Om1YwCCM3/b4X+K4u8676Wu1ove26/RF549rnZ4uepp9O0677MBmP/S1LP3YgEgUPNf8ziKP5cV1m7Ws8uDXKwXvbdr0BdeNHvFxc68Vhut6db/nejbfZ5e/9eem396XqvG70PjTE5OVEzCp/jz4akDu9DFeolmgqAvPB0/drEz10p1X0Tf3Hi/mpiYKLNFsOcDIsyKbxR/7rwJ1+pF7+lK9IVnp65+x7X+T4tq/Q365s47DfP32Pw3bFh3sE7umyn+3HmXuFYvqotvoi88+6jqKy71f5OTG/fRe/sh+ubOu3HjxvWHYP6eDojQ1f/pFL8bPF3RPNKlejEDfdAXXjPzv7vV/+nW/9+irzO8szB/D81/8+YNB+kq7w8Uvyu8wYsd2wvifPSFZ4/zXOr/ml2kCn0z5d00Pl47CPP3bDSkUvSrKX63eFrQZLMr9aIA8Eb0hWePba70f7pTdiJ6ODdG5OWYv0fmv2nTun2jTTMofpd4gx9zpV70fl6CHvDsTJXnudL/mfVK0Nc53tWSbGFo5p969p9vUyF0pXkyxe9kkt6lFRmXulAvej9PQl949nikC/2fxiwdrAGJd6OHk8ubPyqgi+Vo6f/UiwRVfZoKodv/H6b4nd0o6Hku1Ituta5DD3j29ctc6Mx1brwWPdzkSZuPBmT+pVQBILaf8IAv5m8GbChF307xO8v7bzceE62/f7TBCvoWl2fuSs23Z0UOW1T/FH2d5c3WarWBAMw/2u8nOQDYF1fs1f+AL1MhdEI/i2J1mrdbAe1wF+pF7+8n6FF43ncdMf816OH8naKne27+/Xa3377Epf/ti8v26r8a21vY+akQEuoLFKvzvFc7EhY/iB6F573Xhc5c7+MM9HCed5HHY+TK9tgTABolhcWxAFD1wfyXLVvWr6vLOyhW53lfduSZ68vRo/C8U13ozM2dCPRwm2ceLRuP8dD8K9bPowBQavSMoBwLAEt8WQRBHfokxeo+zzx3NRttOFAvNfQoPG9N3p35qlWrHmgejaGH+7z4bABPzD/y8CgA9CXd+i/ZhBAFgIpPKyBJnK0Uqx88pelj864XTUnsa+aOEfqGxTPbVUfzu/PszPW+n4we3vC2e2T+0d37KAD0J5l/r00Hi2LPC7xa/lDifI1i9Ya3zYUkLRP4L/QoLO+zLnTmeh/nooc3vEs9WhdnIBYAyo0G/cUDQH/qVYIcMf/x8fHFEudPFKsfPBnv1x3pfF+BHsXk6Y7hi1zozBs9/0dfp3iz2iFwf0/WxYkCQCXRz+0P9cbmCHpl/vZKbohi9Yp3iwudr0xgJXoUk6c+Y1ne9WceQyVduKCve7zR0ZENnqyLM5BqDF8sAJR8NP+0z9Eofrd4WrTpoS4kab2XX6FH4cz/Jy7cxl2tL/Twi6dVRJ/vybo41WaW++311fxtJ/56itUvnvZseKwLSVrv5yz0KBzvTBfC53wXLujrLk97NrzJl3VxUq8S1NPilysfRrdyL6RYvUvSL3chSeuEXosexeLVaqM1R8LnaejhF097zXwyGPNv58ulDzPfQBqK3+kk/VZXil/v7WfoWwyepv5f6Urnq/d0Hvr6xdPjo29j/o59GInye4rVuyR9kSvFrztIr0LfYvBUd690pfNVv/Uf6OsXT33FbzF/xz7M3JG0FKsXSfqLrtTf2NjoETqx70TfsHn6867168cPdejO0+Xo6xdP/dadmL9DH2bFihWLKFYveZe5VH+6Mvw4+obN098vdKnzVej8Bfr6x9P0zaWYvyMfRgFgP4rVyyT9Y5fqT4MSj0XfsHmaeTLu0gAuBYDfo69/PM3ePBjzd+TDSKTDKFYveb92rf6aWU4afb3jfcm10dsKADejr388BYAjfDf/1LP/XP8wEmQ1xeol70bX6k/v6dHoGyzvONcufhQA7kBf/3j6/4f76pexpf9TLxJUdXntY60oN0Kx+sfTI4DrXQyf6pS/ib7B8S5x8c6n3tvt6OsfT3cAlnts/qVUASC2n/CAy2sfawT3wylWL3m/dPHOk97XI9E3uKlbG1x87Kn3dyP6+sdTPT3EU/OP9vtJDgD2xRV79T/g8trHmzdvOJhi9Y+nOwA/cPU2WpptgtHXG95Fro55Up3tRF//eFrE7CAPzb/f7vbbl7j0v31x2V79V2N7Czu5/OGmTev2pVi95H3N1dto6phX6bgbfb3nmfVBjnJ1wLPZlAh9/eNNTEyUPTL/hdbPy/EA0CgpLI4FgKrrax9LlNsoVu9uo33O5dto6pz/DX395qnGpl2e7dTKrBP0zZ13m2fmX7F+HgWAUqNnBOVYAFjiw8YHEuU3FKtfPLOBk8u30fT+9jHLfqKvt7xfa42QqstTnfUeP46+3vF+5ZH5Rx4eBYC+pFv/JZsQogBQ8WXXIzPKl2L1iydz3ep6ktb7/Bv09ZOn+nqM6+uc6H2+CX29413iiflHd++jANCfZP69Nh0sij0v8GbLQ4nydorVO95TPVln4hPo6xdPj28u8GGRM73Xl6Cvd7z3emD+0bi9KACUGw36iweA/tSrBDlyMintv5xi9YunkbRrfUjS2jzmcPMoAH29Mf9rzeMbHxY50/s9EX394qnf2uqB+S+NBYBKop/bH+qNzRH0yvztifRoitUv3sqVK5d6kqSXag35k/VZd6Ov87x79G+bfTB/82XWlEdfv3jaNOzJHph/xFqSdsGfXjsGwDvzN19KZUdSrP7wdJV2nS/mH1u0ZQf6Os97nS/mH7t4+SP6+sPTyrOrfOivUs/eiwUAL83ffi2QqfyeYvXlNtrQRT6Zv/n7SSc9tk+3lr+Ivs7yPmP6AZ/M3waAL6CvN7zrfemvUvNaNX7XPow6549RrN7cRnulT+Yf8bQP+AEKmtegr1s8afLzNM/9XRxzYu5aoK8fPPVbnwnK/Nv5cjBJn0qx+sGr1UbGfE3S+hwrZDg3oa8z5v97/fsyXztfBZdj0NcPnv7tNMzf0Q+jq7OHUaxe8H7n+200mc6xOu5E33x5Ms9d+r7e58532bJl/WZ1OfT1grca83f4w0Sba1CsTvM+FsJtNNXak8yoc/TN7cr/Ln1/vO+dr/k5fb7Po6/zvF9j/o5/GF0RvItidZun52jPDeU2murtWfqMu9G36zwTvJ4Sgvmbn9c58RL0dZtn9gbB/B0/mUZHR06gWJ3m3VarjVZDqj99phdEIQB9u2P+JniFYv6Gs2HDuiP0me5CX3d5adeXwPxz5E1ObtxHQl1L8bvJUyf3/hDrT5/3mfpsd1Mvmd/2v1Pt/MSQzD+2zsQXqRc3eWbdEsm2MCTzTz37z7eTSYsCvYHid5On78eFGj5HRtY+XZ9xF/WSmfnfnmaDHx/N3/xdn/kp1IuzG0udGVB/FS39n3qRoKpPJ5OmmA1R/E7yftNMivaxM1cIOF6dxQ3US8dH+5u9GEZCNX/z79q6eFHSYmbUS2683Wal2YDMv5QqAMT2Ex7w7WSSaF+m+J3jvT5k84946iweKsP6H+qlY7wr9e+HhWz+sUdJ26kX53hfCMj8o/1+kgOAfXHFXv0P+HYySbRHUPxO8W7RFc5+oZt/xFu+fPn99Jk/Tr20feV/odb3qBTB/O2skgc3Wl+CeukuT5o8KhDz77e7/fYlLv1vX1y2V//V2N7Cvq3YdhnF7wzvrKKY/5wO/ZVpOnTqZS/erI6XFK1ebM2cT724wdO5+4NA6q9sjz0BoFFSWBwLAFUfTyaJ9ziK34n92e9YtWrVA4vYmZsvPRJYq3b4GfWSul5+rO9rilov+vwP1XE39ZI/T2Hs5ADqr2L9PAoApUbPCMqxALDE45NpgQT8IcWf+23cc4ramcc69SVqi7ewaFDiVCtjemePj48vLnq9qB3eS/+SO++7AdRf5OFRAOhLuvVfsgkhCgAV308mCXwCxZ/r1K2bRkdHDyxyZz6nY19vr3CplxjPBvXRIj4mqvelcQ+Hmjtn9C+58h7hef1Fd++jANCfZP69Nh0sij0vCOJkqjcYi+LvDk///mLMf24oHSzrscBrZHq3UC+DfzTP+icmJkqY/15jAU6nf8mHp7b/dAD1NxALAOVGg/7iAaA/9SpBHjTOypUrDzG7bVH8Xed9b8uWLb105vV5Y2O1ZQoC7zVLwBatXuzAyLfo7tD+oerbLs/MflA7XUP/0nXz3zXfvH/P6i8KAJVEP7c/1BubI7ggtJNJor6K4u8qzyyeMU5n3pinjv4os0Ry0sCvUOrFhp336PtDiqJvO7yRkZEn0L90nfePgdTfQKoxfLEAUArR/M3X+PhYv8T/EcXfNd7b6cyb46nNjjLtNvfZbwj1IsM3n+mdJuwUVd9WeWq/D9G/dI33vXqPozytv2ozy/32hmr+EU+70NVUBLdT/NnyzCC3pMVbMP9kntrw/jLM15rbvwHUy9W6E3T6hg3rH4K+rfE2blx/iOrh1/Qv2fJM8NbrHl64+mvV+H1snLVrh19I8Wdq/rfr+wo6847wFppVyNSeH7Lt6ku9mPE2H9G+CI83u3Oib/s86T/RyiMi+qumeC8sev0V5WQ6n+LPbADNs+jMsxkQprVxnjQ8PPRJtfHNDtaLGc3/YQXsp09ObjoQfTvPi8Yx0V9lwvt3zL8gJ5MdXftjir/j5n8+nXn2vOOOm9xfQeBE3Vp/o9r8v82o5W7Xi7ldquMrZqqajg0nnfTYPvTtyl4BH6W/6izPrEEx95El5h/4yWRGIasD28nJ1BmeMYNly5b105l3n2e3kR2TRi9QXb9Velyqv1/fQX1/p+NrYv6b+M/XUVOH2Yce3efZi5dv0191hmc8wCy6hPkX8GRarS+zUh0nU9vm/wOdREvpzN1bflhmvdKshqnvT5NWLzVX7Lpz8Gb929v1/T3m0J/fpv8zdxO22tc8TT97vBnL0WgnPvToPs+srCltrqa/apt3m9mnA/Mv8MmkDLAp6RYqJ1ND3q/mW+qXzhwevGx4Oi+Xqd/6Lf1Vy7xZvfY4zJ+TyUy7eryueO7iZGqa979m7jqdOTx43eeZuzvqt35Pf9X0bf879dqTim7+qWf/FaFxVBgnejbVKm/eL81VCJ05PHj58WwI2El/lXrA3y4djyl4/UVL/6deJKhahMYxS9eqSG7gZGrI+z63/eHBc4OnBc4Gdc5eQ3/V8Mr/Zpn/MZj/vSv+Ng4Asf2EBwp0Mo2ooGY4meY9LqnVagN0vvDgucMzG0vp3P0O/dW8x68VAFZh/nv2+0kOAPbFFXv1P1Csk2n04dqy9VucTHsd72aqHzx4bvImJjY9QFe4H6K/2uvK/xu6u3sQ5n/vLr+LYgEgcXvgsr36r8b2Fi7MyaTVzPbTyTRtdrXjZBq8Tf//dDpfePDc56nfelm9Qc0Ffeb/VrNOBvVyr5+X4wGgUVJYHAsA1aKeTDqRHqvjDwU+ma7QXPCH0fnCg+cPzywMJfP7RYHN3yxNvYV6uZdXsX4eBYBSo2cE5VgAWFL0k2nlypWH6IS6uGAn0z06zh0fH19M5wsPnn88XflWdQ6fV8Bd/S7W+i4HUy97xvAtiQWAvqRb/yWbEKIAUOFk+suXEvUTVWAzBTiZLp+7QhYnEzx4fvLUb03KFH9egBVJzZ3aZ1Av95m9V40FgP4k8++16WBR7HkBJ1P9VL1j7jO2QE6mG8xa7/qYC+l84cELh2cG7+rc/ged47cEuAX5Xfps56hv3o96uQ9vIBYAyo0G/cUDQH/qVYIK2thmAQ6zT7u5VR7AyXSrjjfoWf8B6AsPXrg8TeF9kHaSfIf6gNkAzH+32R1R//9w9K3LiwJAJdHP7Q/1xuYIYv4peSMja3W3fOjfVYh3engy/dFsADNfckZfePDC5KnfWqmO6zyd/3f4Zv664r9b3z+iYw36JvIGUo3hiwWAEubfGm98vLZKxfrW+Nrcrp5M5nmgTvxXLV++/H7oCw9ecXlaQOj+6gteoz7hWg/M31ywvFkD/I5A31S8dLP3YgEA82+TZ/ZJN5sL6fi4jj85dDKZk+dt+r4OfeHBgzeHt9BsAa0+4oNm3Q+HLlbMWKv/NFtUT0xMlNE3A16rxk9jJ/OUVPdV8T7X3K5SIV/f7ZPJbNWr7+frVt9TtbJhGX3hwYPXiGem/qrv+Bv1We+zO3522/zNmKRPmr5Te47sj77d49E42fEWqLCPNqt06fi0Tq5rzCCWTp1MZotLcf9HRv9BjUk4dd268VXoAQ8evDZ5C8yzdn29yCwzrMPsAnpPh81/p/qsz+t4vY5HjY+P9aMH5h88z6zdrc2HNuixwTN1lf7PKv7366T4qE6yz+v7pfr+Q3MVL3O/St+/p79/Vd8/a27Tmdv5+vMr9H+P0/ejjjlmYhF6wIMHL2ve5s0bDhodHTlm7drhZ6vveY2Ot+v4hOmfbJ/1Ux1Xm3EFdv2BK/X96/p+kdlPRK+Z0vdTZPzHa+zUYeiB+cODBw8ePHjwMH948ODBgwcPHuYPDx48ePDgwcP84cGDBw8ePHitm3/q2X80NryseWY1Qg0MWq/jmRok9HJ9f52+v9Hs560/v0MDJN+jgZKxY+g95t/tAKRmD3jwMueZgbpmjXr9+SyzDr+OU3Qcs2bN0YfSH8DLkRct/Z96kaAqjQ2vU7wtW7b0mv3K1TG+2mzd2Wj1xED3K4dXbN6Nml13ib5v14j6E8wsHvoXeF0y/1KqABDbT3iAxobXJs/MJ57Q8R4Z/k2YAzx49+HdqLsD5+vvJ/Q02I2T/gVeG+Yf7feTHADsiyv26n+AxobXCk8reZnVEE8z84IxB3jwGvPsuvynJW3SRf8CrwXz77e7/fYlLv1vX1y2V//V2N7CNDa8VLz168cP1xXNvzRztY85wIN3n8Osyf+Gucvh0r/Aa4FXtseeANAoKSyOBYAqjQ0vDe/444/bT53bP8r4b6YzhwevfZ49l15hNhqjv4LXAq9i/TwKAKVGzwjKsQCwhMaGl4anwUyP1FX/lXTm8OBlwrtSy+8eS38Frwle5OFRAOhLuvVfsgkhCgAVGhteI96mTev2NaOZzSYhdObw4GXHU8C+W9MQ33DccZP701/Ba8CL7t5HAaA/yfx7bTpYFHteQGPDS+Rp18HlmhP933Tm8OB1j2c2C9OjgYPor+Al8AZiAaDcaNBfPAD0p14liMYuLM/sZKgrkt/SmcODlwtvxmzVS38Fbx5eFAAqiX5uf6g3NkcQ84eXyNNV/4ky/5vpzOHBy5V3i+4EHEt/Ba8ObyDVGL5YAChh/vAa8UZG1m5Rx7OLzhcevPx5CuK77AJC9Ffw4rx0s/diAQDzh5fI0yjkE2yHQ+cLD54jPN0FuEPn5ST9Fbymea0aP41dOPNfr47oJjpfePDc45lFt3Ssor+C58UWwRMTE2Utd1mNjqOPXj0wPl47aN26sQdHh/m7+ff469IeReaZqXmdLK6xsdoydUQ76XzhwXN60SCzjPD9szCHI488vKS+5RCt8nlodJi/azzQfrr7sE+zh/m5ovM2bdrw4MnJiUqo5m82gNFnX/MifX+LivO/zJrwNqnexcmeDU9N/stjj518YCfn+Yv5ZfSAB88L3peMWXf6SnPjxvF91A98Dz0y4f3JzOqQL37dbJim46Vmx1Sz+qNX5q8r0UV640/QB/hwo21eKYZseLpVf3InbyuJeQZ6wIPnFe/0jKb+TpoFv9Cja491zDLQH9fxFIWBirPmrzd4hK70z9Eb/gPi5ckb/FwnzV9hYrNZfQw94MHzasXAuzRbZ2MWz5jVx5yPHt3n2TDwb7XayJAz5m/ejIrt/fVu6SNed3nS4U5bHB052e0Sv99BD3jwvLwY+L65bd/pAWa1Wu1BdqdC9MiHZ+7AfEx3Y4ZzM//JyU0H6k1M22cXiOcEb/BdnTzZdcvpZegBD56/PF0UvCCLMV76fWegR748c8GnY1oX30ta1HhBS8WgXd8erTdwLeI5tTb4Lm0ScnCnTnYzOlXMG9ADHjx/eTKH680MoU4P8Daj2s1gbvRwgne1/r65GeO36/6kXiSo+uer/o376Bdt45mwezydjG/t8JiO09ADHjz/eeqvX5vF1DJxT0cPZ3hmJ9bXm5l3Kcy/lCoAxPYTHjC3/DWP8fM0tpPmf7e+H9a5Z3yjVXPlgB7w4PnPMwOzoxHknZxXLuYBZgVC9HCHp1D26fm0tuYf7feTHADsi80uQlUtLnOozP8yGttZ3oc7+YxPvJegBzx4QfFOzWJRGXHfjh7O8S5fvXr1vnX8vN/u9tuXuPS/fbHZP3jJ+PjYg5UqrqSx3eVJnw0dHuBzJXrAgxcU78osVpRT37MSPZxcEfIHUQiw+pbtsScAJJm/SQqLJyY27q9f/A0a22nejzpp/iqcIfSABy9I3mgWK8qJeyl6OMm7zDzOtXfyF8cCQKmnwTOC8ubN6ytKd5+hsZ0f4PPyDo/ufTN6wIMXJG9HFsvJqs94Fno4y/v05s0bqrEA0Jd0679kE0JZc8pfS2O7zTOD/0ZHRw/s5OhecX+DHvDgBcm7Oou15JcvX34/MxgQPVzlDW61AaA/yfx7bTpYpB86xiwlSWO7zZNGX+yk+eskfih6wIMXLk8jxB+WxZa0MplPoYezK8TerSXdJxsN+rs3ABxzzISZA/5LGtt9ntllsZNTe/R7XoAe8OAFzTs1i/3ote/As9HD6aniP5+YmCgniXhvAGhliUcaOx+eRnke3MmpPWJ+CD3gwQuXp+18P5LFLoF6znywWZoWPZyeLXZ6YgDQi47Si3bR2F7wruz0vF4xf4oe8OCFy1MA+GmnzT865s4GQA/nBozv0iOgQ5MCwHk0tjcrPk130vx1e6ik20R3ogc8eOHyzPPg9evHH9Bp8zd/F/uf0MP5x8bvqjsGwNxOHmxxZz8au/s8veakTi7qkTQAED3gwQuHp+f1w502f/Pv6kM2oofbPHORV/fRsf7zDTS2Pzzt8LVfJxf1EPPR6AEPXvg8jdg/PostgpctW9av3zmLHs7zzrqPsFu2bOnVrYHf0jh+8JTirur0il7S/2noAQ9e+Dxzrnfa/GMXEpejh/P+cb3GAvTFRTuRxvGK96FOr+g1dwogesCDFyZPf35xFuZvLyTehh5e8B4dDwDvpXH84ekke00Gy3m+Ej3gwSvEaPBXZmH+1kteiB5e8N4TF+3XNI4/PJ3AJ3d6OU9xX48e8OAVYgXR12Rh/rYfmUAP93l6DLAzEuwoGsc78VZ1ejlPdQpb0QMevEJMBXttFuZvHyU+CD384MlHHmY6/lNoHL94w8ND9+v8Wt5DZ6IHPHjh8xoFgDYvLhbUmwmAHq6tCHnvcYq5A3AWjeMV78Ys1vLWe9qOHvDgFWIRsddmZP7RXeVfoYfz5m+ON5kFYD5F43jF+3kWa3nHAwB6wIMXLm++ANCpx4rylK+jh/Pmb47PmrR2JY3jD0+3/y/LYi3vKACgBzx4YfPqBYBOjikS/9Po4SJvr3/7kQkAv6FxfOINXpzFRh5mDAB6wIMXPm9uAMhgQPEH0MNF3l7//jtzu+amekmBxnaTpzsAn8xoI4+t6AEPXiHWEXltVub/5wHFg+9GDycvHufWwS4TAO5uFABobHd4CgAfzmIjDxXDFHrAg1eIdURem5X52wHFb0MPF3l7/f/unvmeFdDYbvIU2M7PYiOPVgIAesCD5x/PBICszN8+TjwXPVzk7f2axABAY7vHUwB4XxYbeTQbANADHjw/eTrX/ykr848HAPRwn9eTcrQgje0Ir9kAkDbpNxMA0AMePK95Z2Rl/jYAnIMefvB6OjinkMbuAq+ZANDkLl5T6AEPXiF427IyfzugeAd6+MHrwfz94qUNAM0+40sTANADHrwgeNuyMn87oHgaPfzg9WD+fvHSBIBWBvg0CgDoAQ9eMLxtWZm/7Uum0cMPXg/m7xevUQBodXRvUgBAD3jwguKdkZX5txIA0CM/Xg/m7xcvKQC0M7VnvgCAHvDghcUzswCyMv9mAwB65MvroXH84s0XANqd11svAKAHPHjh8RptB9yBAcXT6OEHr4fG8YtXLwB0YlGPuQEAPeDBC5PXbABoYUDxNHr4weuhcfzizQ0AnVrRKx4A0AMevHB5zQSAFgcUT6OHH7weGscvXjwAdHgLzyn0gAcvfF7aANDGgOJp9PCD10Pj+MWLAkAGW3huRQ948MLnpQkAbQ4onkYP93lNBQAa2w2eCQDZbOE5dCZ6wIMXPq9RAOjAgOJp9HDf/FMHABrbHZ7ZDTCjLTy3owc8eOHzkgJAhwYUT6OH++afKgDQ2K6Jt+aCjLbw3I4e8OCFz5svAHRwQPE0erhv/g0DAI3tHk/fL8xoC8/t6AEPXvi8egGgwwOKp9HDRV4TAYDGdpMXCwCd3sLzTPSABy983twAkMGA4h3o4SIvZQAwL6Sx3eTZAJDFFp5b0QMevPB58QCQ0YDic9DDRV6LAYDGdodnxwBksYXnFHrAgxc+LwoAWZi/HVB8Lnq4yGshANDYbvHMLICMtvCcQg948MLnmQCQlfnbx4nnooeLvCYDAI3tHq/RdsBtbOE5hR7w4IXPM7sBZmX+8QCAHu7zetKOFqSx3eA1GwCa2MJzCj3gwSsE74yszN8GgHPQww9eTzu/iMbuPq+ZANDkFp5T6AEPXiF427IyfzugeAd6+MHrwfz94qUNAC1s4TmFHvDgFYK3LSvztwOKp9HDD14P5u8XL00AaHELzyn0gAevELxtWZl/mu2A0cMdXg/m7xevUQBoYwvPKfSAB68QvDOyMv9WAgB65Mfrwfz94iUFgDa38JxCD3jwwueZWQBZmX+zAQA98uX10Dh+8eYLAB3YwnMKPeDBC5/XaDvgDgwonkYPP3g9NI5fvHoBoENbeE6hBzx44fOaDQAtDCieRg8/eD00jl+8uQGgg1t4TqEHPHjh85oJAC0OKJ5GDz94PTSOX7x4AOjwFp5T6AEPXvi8tAGgjQHF0+jhB6+HxvGLFwWADLbw3Ioe8OCFz0sTANocUDyNHu7zmgoANLYbPBMAMtrC80z0gAcvfF6jANCBAcXT6OG++acOADS2OzyzG2BGW3huRw948MLnJQWADg0onkYP980/VQCgsV0Tb80FGW3huR094MELnzdfAOjggOJp9HDf/BsGABrbPZ6+X5jRFp7b0QMevPB59QJAhwcUT6OHi7wmAgCN7SYvFgA6vYXnmegBD174vLkBIIMBxTvQw0VeygBgXkhju8mzASCLLTy3ogc8eOHz4gEgowHF56CHi7wWAwCN7Q7PjgHIYgvPKfSABy98XhQAsjB/O6D4XPRwkddCAKCx3eKZWQAZbeE5hR7w4IXPMwEgK/O3jxPPRQ8XeU0GABrbPV6j7YDb2MJzCj3gwQufZ3YDzMr84wEAPdzn9aQdLUhju8FrNgA0sYXnFHrAg1cI3hlZmb8NAOeghx+8nnZ+EY3dfV4zAaDJLTyn0AMevELwtmVl/nZA8Q708IPXg/n7xUsbAFrYwnMKPeDBKwRvW1bmbwcUT6OHH7wezN8vXpoA0OIWnlPoAQ9eIXjbsjL/NNsBo4c7vB7M3y9eowDQxhaeU+gBD14heGdkZf6tBAD0yI/Xg/n7xUsKAG1u4TmFHvDghc8zswCyMv9mAwB65MvroXH84s0XADqwhecUesCDFz6v0XbAHRhQPI0efvB6aBy/ePUCQIe28JxCD3jwwuc1GwBaGFA8jR5+8HpoHL94cwNAB7fwnEIPePDC5zUTAFocUDyNHn7wemgcv3jxANDhLTyn0AMevPB5aQNAGwOKp9HDD14PjeMXLwoAGWzhuRU94MELn5cmALQ5oHgaPdznNRUAaGw3eCYAZLSF55noAQ9e+LxGAaADA4qn0cN9808dAGhsd3hmN8CMtvDcjh7w4IXPSwoAHRpQPI0e7pt/qgBAY7sm3poLMtrCczt6wIMXPm++ANDBAcXT6OG++TcMADS2ezx9vzCjLTy3owc8eOHz6gWADg8onkYPF3lNBAAa201eLAB0egvPM9EDHrzweXMDQAYDinegh4u8lAHAvJDGdpNnA0AWW3huRQ948MLnxQNARgOKz0EPF3ktBgAa2x2eHQOQxRaeU+gBD174vCgAZGH+dkDxuejhIq+FAEBju8UzswAy2sJzCj3gwQufZwJAVuZvHyeeix4u8poMADS2e7xG2wG3sYXnFHrAgxc+z+wGmJX5xwMAerjP60k7WpDGdoPXbABoYgvPKfSAB68QvDOyMn8bAM5BDz94Pe38Ihq7+7xmAkCTW3hOoQc8eIXgbcvK/O2A4h3o4QevB/P3i5c2ALSwhecUesCDVwjetqzM3w4onkYPP3g9mL9fvDQBoMUtPKfQAx68QvC2ZWX+abYDRg93eD2Yv1+8RgGgjS08p9ADHrxC8M7IyvxbCQDokR+vB/P3i5cUANrcwnMKPeDBC59nZgFkZf7NBgD0yJfXQ+P4xZsvAHRgC88p9IAHL3xeo+2AOzCgeBo9/OD10Dh+8eoFgA5t4TmFHvDghc9rNgC0MKB4Gj384PXQOH7x5gaADm7hOYUe8OCFz2smALQ4oHgaPfzg9dA4fvHiAaDDW3hOoQc8eOHz0gaANgYUT6OHH7weGscvXhQAMtjCcyt6wIMXPi9NAGhzQPE0erjPayoA0Nhu8EwAyGgLzzPRAx688HmNAkAHBhRPo4f75p86ANDY7vDMboAZbeG5HT3gwQuflxQAOjSgeBo93Df/VAGAxnZNvDUXZLSF53b0gAcvfN58AaCDA4qn0cN9828YAGhs93j6fmFGW3huRw948MLn1QsAHR5QPI0eLvKaCAA0tpu8WADo9BaeZ6IHPHjh8+YGgAwGFO9ADxd5KQOAeSGN7SbPBoAstvDcih7w4IXPiweAjAYUn4MeLvJaDAA0tjs8OwYgiy08p9ADHrzweVEAyML87YDic9HDRV4LAYDGdotnZgFktIXnFHrAgxc+zwSArMzfPk48Fz1c5DUZAGhs93iNtgNuYwvPKfSABy98ntkNMCvzjwcA9HCf15N2tCCN7Qav2QDQxBaeU+gBD14heGdkZf42AJyDHn7wetr5RTR293nNBIAmt/CcQg948ArB25aV+dsBxTvQww9eD+bvFy9tAGhhC88p9IAHrxC8bVmZvx1QPI0efvB6MH+/eGkCQItbeE6hBzx4heBty8r802wHjB7u8Howf794jQJAG1t4TqEHPHiF4J2Rlfm3EgDQIz9eD+bvFy8pALS5hecUesCDFz7PzALIyvybDQDokS+vh8bxizdfAOjAFp5T6AEPXvi8RtsBd2BA8TR6+MHroXH84tULAB3awnMKPeDBC5/XbABoYUDxNHr4weuhcfzizQ0AHdzCcwo94MELn9dMAGhxQPE0evjB66Fx/OLFA0CHt/CcQg948MLnpQ0AbQwonkYPP3g9NI5fvCgAZLCF51b0gAcvfF6aANDmgOJp9HCf11QAoLHd4JkAkNEWnmeiBzx44fMaBYAODCieRg/3zT91AKCx3eGZ3QAz2sJzO3rAgxc+LykAdGhA8TR6uG/+qQIAje2aeGsuyGgLz+3oAQ9e+Lz5AkAHBxRPo4f75t8wANDY7vH0/cKMtvDcjh7w4IXPqxcAOjygeBo9XOTVCQC6pXw3jeMPLxYAOr2F55noAQ9e+Ly5ASCDAcU70MNF3l6Pk+80dwBurZcUaGw3eTYAZLGF51b0gAcvfF48AGQ0oPgc9HCRt1cAuNncAbi2UQCgsd3h2TEAWWzhOYUe8OCFz4sCQBbmbwcUn4seLvL2+v+rze2abyYFABrbLZ6ZBZDRFp5T6AEPXvg8EwCyMn/7OPFc9HCRt9drLjV3AC6YLwDQ2O7xGm0H3MYWnlPoAQ9e+DyzG2BW5h8PAOjh/IqQ55sxAKelGS1IY7vBazYANLGF5xR6wINXCN4ZWZm/DQDnoIcXK0K+ytwBOL6T8wpp7Gx5zQSAJrfwnEIPePAKwduWlfnbAcU70MN9nv7vuJ5arTYw31RAGts9XtoA0MIWnlPoAQ9eIXjbsjJ/O6B4Gj3c5slH7lqxYkX1XjH1l29g/n7w0gSAFrfwnEIPePAKwduWlfmn2Q4YPfLnyUe+skdQ/cOraRxvktv7MtrCcwo94MErBO+MrMy/lQCAHrnw/n6PqKtXrz6CxvEmub0vi408xH49esCDFz4vzXbAbQ4onkYPp3m7V65cechcA7iExnGfN18A6MAWnq9BD3jwCsF7RVbm30wAQI98ePKQi/cSWD/81zSOF+K9L4uNPMT9O/SABy98ngz6RVmZf9oAgB758fTak+rptlAmcBWN7TZvbgDo4Baep6AHPHiF4D0lK/NPEwDQI1f/+LEkWjCfcH9LY7vNiweATi7nKfaj0QMevPB5987/zsj8GwUA9MidtyVJu4V6wXdpbHd5UQDo9Freei+r0AMevPB5w8PDR2Zl/kkBAD1yv3j8RvzqX1rufSdAxTGuF99DY7vJMwEgi408JiY2PUDv6R70gAcv6HVE7ly7dm1fVuY/XwBAj9zN/27N9huOjF9H77x66gfeRGO7yTO7AWa4i9dV6AEPXtC8K7I0/3oBAD2c4G2PmX8pMQBMTEyUTaHQ2O7xBgfXXJDhLl4fRQ948FhHpM0BxdPo4Q5PenzH3PWx5t9nj95EXfWLHqofvJnGdoun7xdmuIvXK9ADHrygec/N0vzjAQA9nODdID0eYs2/X8eiWABYMJ85mBeXh4eHTtIP30Vju8OTJh/OaiMPjf9YiR7w4AW9jsjhWZq/DQDnoIcTvD9Ji0mrb9keewJAkvmbpLBYxxLdOniefvluGtsNngLAJ7LcyEO/72r0gAcvSN5PszZ/83NDQ4PvRo/ceffI/J9o9a1YP48CQCnJ/PvsC+8NAOZQanxOvZkBNHb3eQoAn8lyIw/9zrPRAx688HgyhH/J2vztncQPoEeuU8XvNmv6WD2W2CMKAH1Jt/5LNiFEAaASuzLcIuguGjt33ley3MhD/FH0gAcvPJ6mga3O2vwNRxcpF6FHbuZ/u1nq1+pRtUcUAPqTzL/XpoNFsecFC+euEaBfcB2NnR9P7f+DLDfysM/wfoge8OAFNQ/8W90wfxsAvoYeuZj/NWauf0yPgVgAKDca9BcPAPMmhVWrVj1QBvF5xMuNN5Ol+dsZIC9AD3jwgpoK9qxumL+dTfQj9Oi6+X9qdHR0/zl6RAGgMq/5x0Tsjc0RXNBA9wUqqOfrl96EeN3lmec7W7Zs6c1yLe/x8fHF+j2/Rw948IIwh50rVqxY1A3zN3/X77wRPbp2Z+cP+v7MefQYsFf/C9MI2WvHACxIWwD65Q9QEHinMSXE6x5v5cqVh2S5lrcdC/Bq9IAHz3+e+uiXdcv8x8fH9kGP7HlmSWd9P1fBbr8EPaqp9I0FgAWtFIPe+HI99zEjP/+EeF3hTWS9nKcKbIl+z/+iBzx4XvN+Mzk5UemG+f95CuDQ0eiRHc8MxNfxNrO4T8f6+1aNf+4vr9VGjlIQeB3PgLLlmWf0WS/nae8CPAc94MHzl2eng3XF/O3F4JPRo/M8s5yvuZNjnvNnOZWzY8WgK0izlPDLzOAEfYDfUQwdLYZzsjZ/83XkkYeX9Pu+hR7w4PnHU9/71W6av51BdDp6dIQ3o7b8qL6fWm/1RqfNv97rlVwO1IfdrA/0DB1mzfkzdJxl1o22xw79v1lC8tzYcY7599hr5jvOL1hx/Xc3VvQyPz86OjIef7TDyQkPnhdX/rtGRtYOd9P87aPDTxVEj/N0bG/iOEvT6M/W8abYcbZZnEn/9zpzsazvT9Wxfu5VvvfmnzVPjTdYsJP9tvhMgOzn9Q6/ls4XHjyveK/Io39WX/zbIuihJfIf5qtfBmX+9QJAEU52M9imW3pMTm5cqmT/OTpfePDc59nlwrveP8sUDy2KHmkDAObfBV48ABTlZNfPvbibemiFqX0VAq6i84UHz12ejp+NjY0enEf/bAYcFkWPNAEA8+8SLwoABTvZP9VtPczATv3eG+h84cFzj6d+8Pd67r8mr/5Z/cP7iqJHowDgg/mnnv3n+oeRIMMFPNlvnpzcdEC39TD7Qej330rnCw+eU/3BLbXa6ESe/bNZc6AoeiQFANf9Mrb0f+pFgqoOf5iFSr0bith5aIT+SXnoYRYiSgoBdObw4HXX/NUHHp9n/2w2oSmSHvMFAE/Mv5QqAMT2Ex5w1fzNz6v4Nxa083h7XnrYOwE30JnDg5er+f9BV/6TeffP883/D1WPegHAE/OP9vtJDgD2xRV79T/gqvkbTjwAFKnz0Em30yzWk5cedrGnX9CZw4OXC+/neT7zn9MX/KRIeswNAJ6Yf7/d7bcvcel/++KyvfqvxvYWds784wGgiJ2Hvh+Xpx5mdoDZHprOHB68bvIG/2PjxvWHuGA29W7/h65HPAB4YP4LrZ+X4wGgUVJYHAsAVVfN3waADUXtPMzI27z1MOsEaO7xP7FiIDx4mfNm9fjtH3TO7eOK2eg9valoekQBwBPzr1g/jwJAqdEzgnIsACxx2fzt/tPDRe08FADu0BX4Po7ciVmn9/dtOnN48DLhXarn/SMumc3ExETZ7klfKD1MAPDE/CMPjwJAX9Kt/5JNCFEAqLhu/ubf6y0FXLDO46Wu6GE3EHpuMxtAYQ7w4CVu6rNTfdyzzJ02BxdhO6WI+o6MjKzwwPyju/dRAOhPMv9emw4WxZ4XOG/+c1cCLGLnYQbixfcGcGF06ooVK6p6b6elXTgIc4AHby/jv17n9qt01V911Wz0Pr9XRH3Hx2sjjpt/NG4vCgDlRoP+4gGgP/UqQQ6YTbMBINBi3eLivFTdKqtInxfp/f0Ic4AHL9VxhX7mBePj44sdX4H1UUXVd3x8bNRx818aCwCVRD+3P9QbmyPojfk3GwACLtbvuj4vVVc0Y9LqzfEVwzAHePDuvdq/Vt/P1jHqy+hyvddLiqpvLAAMOHynfCDVGL5YACj5Zv7NBIDQi1XtcLIvnYfe69FmNLNmD3xSn/NqHbsxB3gF4e2262d82Gzqpe8rfFtURu/52CLrawPAgOOPyavNLPfb66P5pw0ABSnWK9UcCz0ZnXofnp6pHaRAMKjPfZL0fJ6Of9AxpeNMfa7tDY6z9LNn63hT7DBXU2cl/Mwt1As8e9yaol6arj9Tu7aG/8EMjNVV/uPMNt76WuJyf5qGp890eZHrz44BWOijX9YdA9DT4pcLH6ZRAChY5/Y838w/p41LZqgXePa4jvMjPU/h5qlFrz8zCyBEfb38MEkBoICd2+/y2g/cJ958AQAzLCRvhvMjHe/YYyfvrza7puj112g7YMy/i7z5AkCBO7e3Yf7NBwDMsLC8Gc6PdDy12TbqpfkAgPlnyKsXAAreud2jrYInMP/0AQAzLDRvhvOjMU8rfY6o3Wapl+YCAOafMW9uAKBzu3enwB9qMZ5FmH/jAEC9FJ43w/mRzDN7D2jGzjepl+YCAObfBV48ANC53Ye3HfNPDgDUC7y0AaCo5m84drMv6qWJAID5d4kXBQA6t7149+iYoHOrHwCoF3hpA0CRzX/t2uFN0U6f1Eu6AOCD+aee/edBZz5M5zY070YiOh5A53Zfnpn6Rb3ASxMAimz+mzdvOFhtdxX1kj4AeKBvtPR/6kWCqi4XqwanbKBzS/yZL2vbzhKd231GM++kXuA1CgBFNn976/8z1Ev6AOCJ+ZdSBYDYfsIDjo9O3Ujn1vB4C53bX3jxAEC9FJ43g/nvzVPbnUG9pA8Anph/tN9PcgCwL67Yq/8Bl4s1HgAo1sTjVDq3PZ3bTuoF3nwBgCv/4VPM/hzUS7oA4In599vdfvsSl/63Ly7bq/9qbG9hJ4s1CgAUa8PjHo0HeELROzcbAK6jXuDVCwCY/9CJapNd1Eu6AOCJvmV77AkAjZLC4lgAqLpc/GYMAMWa+pjVqN7HFH2vgKS9AKiXwvFmMP8/s9Q3bNasqluol3QBwBN9K9bPowBQavSMoBwLAEs86MyHKdameLeblF/k5YJbDQCYa5C8Gcx/cmmtNrpB5v8H6iVdAPBE38jDowDQl3Trv2QTQhQAKj4Uf5rtgOks9+LdpjsnJxZ1ueBWAgDmGixvhiv/4U3qR2+gXtIdZjdAD/SN7t5HAaA/yfx7bTpYFHte4EXxtxIA6CzvXS54l9mjvGjm30oAoF6C5s0U3PxPUPvdSL2kP8bHayMe6DsQCwDlRoP+4gGgP/UqQQ4Uf7MBgM5yKL5Q0F1qv+cVyfybDQDUS/C86wps/k9lwF/zvPHxsVEP9I0CQCXRz+0P9cbmCC7wqfibCQB0lvPy3qCmXFgE828mAFAvheDtLOhof7O+/z3US/O8WABwuV4GUo3hiwWAkm/m30wAoLNM5qkdP7d69ep9Qzf/tAGAeikMb2eRzP/YYycfqM/8QeqldZ4NAK7XS7WZ5X57fTT/tAGAzjI171d67Ujo86IbBQDqpVC8nUUxfw38HRkaGvwR9dIez44BCKNeWjV+Vz5MowBAZ9kcT+MC7tT3fzSPBEIdHZ0UAKiXwvGuK8jy1y8ys3+ol/Z5ZhZAiPXi5YdJCgAUa1u8S3XFMBziAKn5AgD1UkjeTMjmX6uNHKXn/Z+nXjrHa7QdMObfRd58AYBibZ9nRghrXfDTN21af/+QbpPWCwDUS2F5MyGa/+TkRjPQ72X6nDdRL53lNRsAMP8MefUCAMXaWZ7a+Bd6dvjYUK6U5gYA6qXQvJnQzF/T+47V+fot9M2G10wAwPwz5s0NABRrprwva4zAmO/FHw8A6Ft43kwonbmM6SgZ/0fNTn7omx0vbQDA/LvAiwcAirVrvM/q0cC4r8UfBQD0hZc2ALhczzoXj9TneK/6wrvQN3temgCA+XeJFwUAijUX3iVq/5O3bNnS61Pxm04ffeGlDQCu1rM+0zqdfx8zW32jb/d4jQKAD+afevafB535MMWa+9TBa/T99eqMHuLDM1Iz9Qt94aUJAK7Vs8xnqd7zqTq+j7758JICgAf9X7T0f+pFgqoud+aaqraBYnWGt3twcM3XNPr4lVot62GuTo0yi7+gL7xGAcCVzlwBe4nC9RP1Xj9hNvFC33x58wUAT8y/lCoAxPYTHnB5nqsCwEaK1UnebnOVog7rX/R9Ql9lVx47xQMA+haeN+NgZ75Ay3Kv1nt7iY4v6JhFX3d49QKAJ+Yf7feTHADsiyv26n/A8eUtN1KsXvD+pOMyBYI363iWrmqG8rryigIA+sKrFwC63Jkv0Hs9TMdJ5jGajot03IC+7vLmBgBPzL/f7vbbl7j0v31x2V79V2N7Czu5CEwUAChW73izeV15mTEA6AGvXgDoZmdu75DtQg+/ePEA4MmKkGV77AkAjZLC4lgAqLq8ApwZA0CxesmbzevKK+12wOhbCN5MXp257oLdjR7+8aIA4In5V6yfRwGg1OgZQTkWAJa4vvyrmQVAsXrJm83xymsGPeDFA0AenXmzAQB93eCZAOCJ+UceHgWAvqRb/yWbEKIAUPFh7fc02wFT/E7yZvO68molAKBvsLyZvDrzZgIA+rrDM7sBemD+0d37KAD0J5l/r00Hi2LPC7zY+KWVAEDxO8GbzevKq9kAgL5B82by6szTBgD0dYs3Pl4b8WCX1IFYACg3GvQXDwD9qVcJcmAqRLMBgOJ3hjeb15VXMwEAfYPnXZdXZ54mAKCvezytcTLqwRbpUQCoJPq5/aHe2BxBb8y/2QBA8TvFm83ryittAEDfQvB25tWZNwoA6OsmLxYAXN4ifSDVGL5YACj5Zv7NBACK3znebF5XXmkCAPoWhrczxxX+7kYP/3g2AAw4/pi82sxyv70+mn/aAEDxO8mbzevKq1EAQN9C8Xbm1ZnPFwDQ122eHQOw0Ee/rDsGoKfFLxc+TKMAQPE7y5vNq/iTAgD6Fo53XV6db70AgB7u88wsgCDMv50vVz5MUgCgWJ3mzeZV/PMFAPQtJG8mr/5vbgBADz94jbYDxvy7yJsvAFCszvNm8yr+egEAPQrLm8mr/4sHAPTwh9dsAMD8M+TVCwAUqxe82bzqb24AQI9C82by6v+iAIAefvGaCQCYf8a8uQGAYvWGN5tX/cUDAHoUnjeTV/9nAgB6+MdLGwAw/y7w4gGAYvWKN5tX/UUBAD3gpQ0AWfR/6rvuRg//eGkCAObfJV4UAChW73izedWf6fTRA17aAJBV/zc3AKCHH7xGAcAH8089+8/1D2N2A6RYveTN5lV/ZuoXesBLEwCy7P/iAQA9/OElBQAPdgmMlv5PvUhQ1eWND0ZG1m6gWL3kzeYVPs3iL+gBr1EAyLozjwIAevjFmy8AeGL+pVQBILaf8IDLGx8oAGykWL3kzeZ15RUPAOhReN5MXp25CQDo4R+vXgDwxPyj/X6SA4B9ccVe/Q+4vPFBPABQrF7xZvO68ooCAHrAqxcAutWZp90OGH3d4s0NAJ6Yf7/d7bcvcel/++KyvfqvxvYWdnLt4ygAUKze8WbzuvIyYwDQA169ANDNzrzVAIC++fLiAcAD819o/bwcDwCNksLiWACourzxgRkDQLF6yZvN68or7XbA6FsI3kxenXkrAQB98+dFAcAT869YP48CQKnRM4JyLAAscX3XIzMLgGL1kjeb15VXqwEAfYPkzeTVmTcbANDXDZ4JAJ6Yf+ThUQDoS7r1X7IJIQoAFR+2PEyzHTDF7yRvNq8rr1YCAPoGy5vJqzNvJgCgrzs8sxugB+Yf3b2PAkB/kvn32nSwKPa8wIv9jlsJABS/E7zZvK68mg0A6Bs0byavzjxtAEBft3jj47URx80/GrcXBYByo0F/8QDQn3qVIAemQjQbACh+Z3izeV15NRMA0Dd43nV5deZpAgD6uscbHx8bddz8l8YCQCXRz+0P9cbmCHpj/s0GAIrfKd5sXldeaQMA+haCtzOvzrxRAEBfN3mxADDg8J3ygVRj+GIBoOSb+TcTACh+53izeV15pQkA6FsY3s68OvOkAIC+7vJsABhw/DF5tZnlfnt9NP+0AYDid5I3m9eVV6MAgL6F4u3MqzOfLwCgr9s8OwZgoY9+WXcMQE+LXy58mEYBgOJ3ljebV/EnBQD0LRzvurw633oBAD3c55lZAEGYfztfrnyYpABAsTrNm82r+OcLAOhbSN5MXv3f3ACAHn7wGm0HjPl3kTdfAKBYnefN5lX89QIAehSWN5NX/xcPAOjhD6/ZAID5Z8irFwAoVi94s3nV39wAgB6F5s3k1f9FAQA9/OI1EwAw/4x5cwMAxeoNbzav+osHAPQoPG8mr/7PBAD08I+XNgBg/l3gxQMAxeoVbzav+osCAHrASxsAsuj/1HfdjR7+8dIEAMy/S7woAFCs3vFm86o/0+mjB7y0ASCr/m9uAEAPP3iNAoAP5p969p/rH2boz18Uq2c83f68I6/6M1O/0ANemgCQZf+nAHAXevjHU9/1UF/9Mrb0f+pFgqoub3wwOjoySrH6x9NJdFNe4dMs/oIe8BoFgKw7cwWAXejhH0+6PcRj8y+lCgCx/YQHXN74YN268VUUK1dezdRfPACgR+F5M3l15jKS36OHfzw9AjjAU/OP9vtJDgD2xRV79T/g8sYHmzdvOIhi9fI22g/yuvKKAgB6wKsXALrVmesc+Al6eMe7R5Iu9ND8++1uv32JS//bF5ft1X81trews2sfS7w/Uqze8S7KsV6uQw949QJANztz/e4voIdfPIW2az0z/4XWz8vxANAoKSyOBYCq6xsfSJjLKVbveDtyrJcZ9IA3NwB0uzPX734LenjH+5Jn5l+xfh4FgFKjZwTlWABY4sOuR3qW9k6K1S+eNDslxyuvGfSAFw8AeXTmOgeejx5+8aTZmz0y/8jDowDQl3Trv2QTQhQAKr5seShRnkexesdbkeOV1wx6wIsCQF6duW4nD6GHd7yneGL+0d37KAD0J5l/r00Hi2LPC7zZ73j16tXLKVZ/eOr4rpdsC/Kql2YDAPoGzZvJqzPfsmVLr5kOix7+8IaGBg/xwPyjcXtRACg3GvQXDwD9qVcJcmgqhMS5mmL1hveBPOulmQCAvsHzrsuzM9fdy4+ihze8Kzwx/6WxAFBJ9HP7Q72xOYLemb/t1M+mWP3gqdM7OeewOIMe8CxjZ56dud7HU9HDG952T8w/Yi1Ju+BPrx0D4KX5m6/h4eG1FKsXvBsnJycqOYfFGfSANycA5NKZr1ixoqr3cyt6uM8bHx8b9cT8l6aevRcLAN6af6xj/x7F6jzvLXnXS6MAgL6F4u3MuzPXezoPPdzmDQ8PfdMj80/Pa9X4XfwwEuuZFKvTvHtGRtYO510vSQEAfQvHuy7vzlwDAVehh9s89VtPD8782/ly8cNojeY+nUzXUPxu8pSiP+HInaIZ9IBneTMu9H96H59FDzd5g4Nrfrpp07p9MX8PPowGmD2L4nePZ/Y+r9VGa47cKZpBX3hpNqXqVv+nK8wNek/3oId7PF1YPgPz9+TDHHnk4SWJ9gOK37VnaMPvcKVe5gYA9C00b8aV/k/nyAfQwy2e7lp+A/P35MNEvNHRkWPMFSfF7wZPWvx248b1h7hSL/EAgL6F58240v9t2LDuCJ0rf0BfN3jS4k7dmalh/h6Zf2zHt7Mpfjd4StFPdqleogCAvvDSBoBu9X9aaW4L+jrDOx3z99D8zTE5uWk/iXoZxZ877x2u1Yvp9NEXXtoAkMPeJu9E39x5XzWPk0M1/9Sz/3w0/4inPQIOlrj/S/HnduV/mYLYAa7Vi5n6hb7w0gSAPPq/iYmJsmYzfQt9c+OZO4QHBnqxHC39n3qRoKqP5h+72hvVyXQ7xd/1qTO/NM80XawXs/gL+sJrFADy7MxHR0cPjE9pRt/u8HT35Ra1+5qAzb+UKgDE9hMe8H0FJAn9SB2zFH/XeNdpyt9qV+slHgDQt/C8GVc7c73/ZTKjnejbNfO/Q+09EbD5R/v9JAcA++KKvfofCGEFJAn+iKQ7AZxMHeNdo5GzaxwfILoTfeHNFwAcW978KB2/Rt/MebdqGuZkwObfb3f77Utc+t++uGyv/quxvYW9Hw2phFerNyaA4u/Ybf/v6bb/Q12vF3OHAn3h1QsALnbmZiyTLl5+gL7ZLQetfx8OeIB82R57AkCjpLA4FgCqIU2FWLly5SES+3KKv+O8D2rA34E+hMW02wGjbyF4Mz505goAS/ReP4K+Hed9o1arPShg869YP48CQKnRM4JyLAAsCXEepNkzQMXwhrlLb3IytcS7de3a4Rf69Jio1QBAZxkkb8an2U6aWfNSfc7b0bftRX7u0vezjjlmYlHA5h95eBQA+pJu/ZdsQogCQCXURRAinp5VH6siuIKTqeUtMj+rVRdX+DZGpJUAgLkGy5vxbarz+HhtlT7vf6Jvazw9qvyuLlo2Bu5v0d37KAD0J5l/r00Hi2LPC4I2/4hldnlSMbxIt9iu5WRKvbHPd2X8J3k8NXQGfeHFAoCX65zoc5+g9/9d9E0/QFl9/QsmJzcuLYC/DcQCQLnRoL94AOhPvUqQ5+Yf561YsWKRQsCzVTBXcjLVPXarfb44MjLyBJ/XhWg2AGCuwfOu87yeFyiQP0af5cvoOy/vij8bv3uLkmXIiwJAJdHP7Q/1xuYIFs786wy4GdNJ9a8qoN9wMg1eoeN1GjdxVCj6pg0AmGsheDt9r+f4lEH1W1P6/qOi62vu6OoR5Vu0HslkKPo2yRtINYYvFgBKmH/d0berdFK9SMf7VVjf13FbwCfTDfq8X9dnfZte/3Qz/ShEfdMEAMy1MLydIZqDPtdh+pzP1PF2nc/f1N9vDFjfW3V8T5/zfH1/oX52Vah+1ASv2sxyv72Yf3rehg3rHzI+PjZq0qVuiT9KSfNRKr7NMs+NzR7m58zP6xbVCdHRLZ5OlHUyea1/MXzk8uXL71cUfRsFAMy1ULydRTGHzZs3HDw2VhtSf7BJ5/wG3/qr6JCG66XbiPqu5Xp0u1/R/agtXqvGT2PD85WXFAAw1+ItAsP5AQ8ejQOvOI91rsUM4ZnD1ALnBzzMn8aBVxCebi/+AjOEZ//vZ5wf8DB/GgdeQXjxddUxw8Lzvsv5AQ/zp3HgFYSnTv9LmCE8O13sYs4PeJg/jQOvIDw7pRMzhGeO93J+wMP8aRx4BeEpAJyOGcKzx+s5P+AVzfxTz/6jseGFxtNc42djhvDsvhZP5PyAVyBetPR/6kWCqjQ2vJB4tdrIGGYIzxxa4vphnB/wCmT+pVQBILaf8ACNDS8kntkBUld+t2CGhef9UaWxgPMDXkHMP9rvJzkA2BdX7NX/AI0NLzTe0NDgf2GGhed9hvMDXkHMv9/u9tuXuPS/fXHZXv1XY3sL09jwguHpDsDfYYbF5ul1L+b8gFcAXtkeewJAo6SwOBYAqjQ2vNB4ZutUzLDYPG0mcwTnB7zAeRXr51EAKDV6RlCOBYAlNDa8UHlzVwTEXIvDk/bf5vyAFzgv8vAoAPQl3fov2YQQBYAKjQ0vZJ6M4O8xw8LyXsr5AS9gXnT3PgoA/Unm32vTwaLY8wIaG17QPE0BO0BG8CfMsHC82Wgfec4PeIHyBmIBoNxo0F88APSnXiWIxobnOU+3gt+HuRaLpwGg7+L8gBc4LwoAlUQ/tz/UG5sjiPnDKwxPAWCVTGE35loY3j1m8R/OD3iB8wZSjeGLBYAS5g+viDyZwkcw12LwFPgu4PyAVwBeutl7sQCA+cMrJE+m8FAdd2KuwfP+pKv/ozg/4MGLjQHoafGLxoYXCk/msANzDZ73Bs4PePA68EVjwwuJd/TRqwdkLjOYa7C8q9evHz+Q8wMePMwfHry9eMPDQ0+QyezGXIPj7R4ZWXsS5wc8eJg/PHjz8mQ0b8dcw+Ip2J3L+QEPHuYPD14ib+PG9fvLNC7DXIPhfXNyctMBnB/w4GH+8OA15GmhmAfLPGYwV+95M+vWjS/n/IAHD/OHBy81TwayRlMDb8Zc/eQpxN28du3weuoZHry6zAU0Djx4CTwFgI06bsdcvePdPjIy8ijqGR68vY3frvuTepGgKo0Nr6g8mclmmcotmKs3V/636Mr/BOoZHry65l9KFQBi+wkP0NjwisyTsYzq+B1m7bz5/1bmv5l6hgevrvlH+/0kBwD74oq9+h+gseEVnadHAYfLZK7ArJ3lXaEBf6uoZ3jw6vp5v93tty9x6X/74rK9+q/G9hamseEVmqd15Csym3/HrJ2b5//vmup3IPUMD15dXtkeewJAo6SwOBYAqjQ2PHh/4ek283NlWjdi1rnzbtDPn0I9w4M3L69i/TwKAKVGzwjKsQCwhMaGB29vXq02ctTQ0ODHMOvceBeMjY0eQT3DgzcvL/LwKAD0Jd36L9mEEAWACo0ND14yb/Xq1ZtkRpdj1t3haSzGN/SzG6k/ePASedHd+ygA9CeZf69NB4tizwtobHjwUvJkTI+VQV2KWWfD0wj/r+r7idQfPHipeAOxAFBuNOgvHgD6U68SRGPDg3efL5nbiIzqvPnWDsD8h5q52jcrMb5jeHh4LfUHD15TvCgAVBL93P5Qb2yOIOYPD16bvImJibKuWk+Wgb1HRrYT80/HU1tdp+/v1vH4ZcuW9VN/8OC1xBtINYYvFgBKmD88eNnwNGhwSLMHXqir2bdqm4EvKxz8UiY3W2Dzn5XZX6XvX9Bxto5n6DXLqBd48DrCSzd7LxYAMH948LrMW7FiRVUDCQ9WMDhS35drrYGHJR1a437F+HhtZHx8bPQvR23E/Hujn82TJ7N/uP2MB5vPTL3Ag+cAr1Xjp7HhwYMHDx68MHg0Djx48ODBg4f50zjw4MGDBw8e5n/fXx7fI2CgA8sFw4MHDx48ePC6yGvll8f3CKh2YLlgePDgwYMHD14Xea388kpsfeElHVguGB48ePDgwYPXRV6zv3xBbI+AxbHNBRbAgwcPHjx48PzgRcxmfnl/bI+AcpvLBcODBw8ePHjw8uH1pl0kaEFsj4Do6Gvzl8ODBw8ePHjwus8rpQoAsRf3xY5SB345PHjw4MGDBy8fXqoA0Dv36GnjCx48ePDgwYPnBG9Bo7SwMHYsaPOXw4MHDx48ePAc4f1/GyIirGeODsEAAAAASUVORK5CYII=;" vertex="1" parent="1">
          <mxGeometry x="240" width="80" height="80" as="geometry" />
        </mxCell>
        <mxCell id="qZBXPEywLh7AzfzNeHGv-3" value="" style="shape=image;verticalLabelPosition=bottom;labelBackgroundColor=default;verticalAlign=top;aspect=fixed;imageAspect=0;image=data:image/png,iVBORw0KGgoAAAANSUhEUgAAAwAAAAMACAYAAACTgQCOAAAgAElEQVR4nOzde5ied13v+3efPg7DEMIYYowhhhhDiaHWWmutpRYoBQtWRERERBYbkaXoApcHZLnZrsXlxXazXSwWF5uLzUZksZGNtVRA0IKcoS2UU0tb2hJ6SA+ENA1pmuYwmUym+4/P3GumIZnM4Xnu+3c/z/t1Xfc1bZrmuTNzH37f3+/7+35BkiRJkiRJkiRJkiRJkiRJkiRJkiRJkiRJkiRJkiRJkiRJkiRJkiRJkiRJkiRJkiRJkiRJkiRJkiRJkiRJkiRJkiRJkiRJkiRJkiRJkiRJkqQ6nNL0CUiSeq6ziF+fPsmfdbL/LklqGQMASWqflcBaYJQM6keA7szX0Tm/3p1zdOZ8nWuKDPKrgf40MDlzTB3zz/uBW4CJ/vy1JEl16DZ9ApKkRekA5wJvANYxO/CvBvfHDvA7x3w91vFm+I/9temZ//964DeA7Ys9aUlSOQwAJKl9umTwv66Bz52q+TMlST12ohkhSVKZpkkKThMD8SpdSJLUYgYAktQ+TQUAkxgASFLrGQBIUvtUm3KH5XMlST1kACBJ7TNF/QPxKvXIFQBJajkDAElqn6o0ZxOfawAgSS1nACBJ7VPV56+TKwCSNCAMACSpfVwBkCQtmQGAJLXPFPV34606BBsASFLLGQBIUvtMUn8AAKYASdJAMACQpPZpag+AKwCSNAAMACSpfZpYAagCAElSyxkASFL7NLECAK4ASNJAMACQpPZpag/A4QY+U5LUYwYAktROdW/INQVIkgaEAYAktdNBkgpUl6bSjiRJPWYAIEntMw0cqPkzDQAkaUAYAEhSO5kCJElaEgMASWqnCZpJAbIKkCS1nAGAJLXTQepfAWii8pAkqccMACSpnepOAXIPgCQNCAMASWonAwBJ0pIYAEhSO+3HMqDqjRFgHBht+kQk1aPb9AlIkpak7g25VRUgNwEPlg6wFfg14E7gy8B2EmD6s5YGlAGANJg6wCpgHXA7eZlrsExS74y8KwCDaQS4AHj5zL/fBFwNfAK4DgMBaSAZAEiDo0uW8DcD5wG/CKwF/jfgk/gSHzST1FuVxz4Ag2kt8HRgNXmGrCHPj5eQQOBfgK8Cd1H/vhNJfWIAILXfCHlpbwV+AbgYOA1YQV7YzyAv8D1NnaD6ou4Z+Unq3XOgepw5c1TjgQ6ZSNgArAcuBG4BriABwTZgN14LUqsZAEjtNUJm784FngWcTV7aK+f8ntGZ/74R2Iuzd4Ok7gBgCq+fQTMKPI1MIBxPZ+a/rQbOIOmEXwY+PvN1FwYCUisZAEjt0iED/03ARSTN5wzykh45we/fQpb0b8JGToOkzhSgaTLQc7A3WDaQ/P+TVf/pkCpBZ5KVxmcDXyerAp8l6UFuEJdaxABAaocumYXbSmbsnk0G9mML+H/HSRrQh4B7+nWCql0VAExTT0ln878HSxc4n6QLLtTc9KANZBLierJP4LMkPWgPXidS8QwApLJVm/LOBH6ZzORvIvn9i/kzzpg5DAAGhylAWo41wFNYXu3/FSTFcCvwq8CVwEdIUGAgIBXMAEAqU4fM+D8V+CXykt3A0l/W68jKwWeBg8s/PRVginpTgNwEPDiq2v9ns/zVoyo96KyZP/NCZqsHXQnsw0BAkqR5jZGX6O+RjXYPAA/16LiWrAJoMIwD7weO0rtr5ETHEeBSEkiq/caBNwAP0p/r5ShwH3A58GKyammXYakgrgBIZVhBKvVcSFJ9ziArAL3M7d5EVhK24WbgQVFtvKxjD4CbPAfHepJOuJA9REtRrWA+hzxzvkxWBD7PbD8BSQ0yAJCa1SWb8C4mFX3OpPcD/8oYSQP6GHkJq93qbMxVfZYBQPt1yHNmC/0PHLtk1egS4BwSCFxBGhNux+tJaowBgFS/DhmMbwaeCfw6sxV9+vlC7pKc37OAHZjP3XbTZD9HXYMo9wAMhhVkX9HqGj+zCgSeQ8qO/jjwn3ElQGqMAYBUr6ou//PJjP/pPLxxV7+tJ6sAn8fOwG03TQZQUxy/B0SvuQIwGLaS2fgm3v8dch19Cwf/UqMMAKR6dUnt7FeTjXh15G7PNbczsAFA+9VVm98qQINhhNT+X9/Q508BXyUTEJIaVPfgQxp2k8B1wF6au/9OI+VFvf/bbRo4QL0pQK4AtNsG4OnUs2J0PLuAD2M/EqlxDgCk+n0V+FeaWwJfCTyLNAJSe1UpQHWtAByu4XPUPyNkD9DpDX3+FPAl0ovE9B+pYQYAUv0mSLfM2xv6/A4ZBJyBz4C2q/YA9JtVgNpvHHgy9W7+nWsfKQXq7L9UAF/+Uv2mSRrQp2muK+9qkgpQ5wZk9VbdKwB1lRxV73XIvp9zaC795+s4+y8VwwBAasZu4DLSlKsJXdJ0rI5a4OqfusqAugLQbiOk/OZpNHO/7yadpLc38NmSjsMXv9SMaeBG4N9obmZ1I6kINNrQ52t56qzMM4UrAG22GngKzaz4VSuen8UAUiqGAYDUnL1kL8COhj5/HPgF3AzcZnUFAKYAtdtW0v23iXf+HtL9t6nnnKTjMACQmjNNKgL9M83sBeiSnOCz8VnQVpPUMzA3Bai9xkjn37UNfHZV9/9jNLffSdJx+NKXmjUBfBC4lWYGV2tIR+IVDXy2ls8VAJ3MJtL8q4nGn1Xln+0NfLakeRgASM27keYqAo0A55H9AGqfunLzq89xBaBdRpjt/N2EG0nuv7P/UmEMAKTm7SHdMbfRzABrE+kM3FR5QC1NNStfZwqQ2mUt8DSa2fx7ELicrG5KKowBgNS8qkpGU92BR0ka0PoGPlvLUwUA/Q4cDQDap0sa/p1F/ek/1TPtY1j3XyqSAYBUhqZzZU8nVUKayBPW0tWVAmQA0D5jwM8D6xr47H2k8s9dDXy2pAUwAJDKUPUFaGrGbDUpCTrewGdr6epKAZqins3G6p11ZH9P3Rv8p4GbaLbHiaSTMACQyrGfdMu8hfr3AoyRfQBb8bnQJnUFAFW1ITcBt0OHDP7PoP77eS/Z03QTXi9SsXzRS2W5BfgkzVTN2EgqhrgZuD2mqGfFqK5yo+qNFcDTgVUNfPY2mqtqJmmBDACksuwnubNNVARaSSqGrK75c7V0dTXoMgBol01kBaDud/wU2cvUxCqmpEUwAJDKUnUH/jAJBurUIV2Bmxg4aGmmyUyrAYAqo8DFNLP59ybgA9T/7JK0SL7kpfLsJ5uBtzXw2auAZ2Bn4LaYJilABgCqbCAb+uuu6LUf+Chwe82fK2kJDACk8kyTJfSPUX8VjQ7ZB3BazZ+rpakrAHADcDuMkHK+dW/mnyYTFh/Hyj9SKxgASGXaB3yQLKnXbSNwIa4CtEFdAcAErgC0wTjZx7Om5s/dRyYsrq/5cyUtkQGAVK6bSHfgfTV/7ijwFJJKoLJNA4dq+BxTgNphM3AOKetbl2r2/wrqf1ZJWiIDAKlck+SlWndFjS5JITgDS4KWzj0AqnRJ+t7Gmj93EvgsaWRompjUEgYAUrnmdtSsu6rGWrIKsLLmz9XiVH0ADAC0itT+r7ub912kapmz/1KLGABIZdtD9gLcWPPnjgIXkJUAla3fAUBdvQa0dB2y+fcc6n2vTwD/DHwdrw+pVQwApPJtI8116q6usYEEAXWXE9TC2QhMkJz/Jjr/bgc+Qj3dqCX1kAGAVL6qvvatNX/uCjKosDNw2epKAVK5NgLnU+87/SDwaZqpVCZpmQwApHa4CbiU+vNsz8JVgJJVKwD9HqCbAlSuMeCp1Nu7o6r880Fgb42fK6lHDACkdpgidbbrrrQxRjoD151aoIWrIwA43Oc/X0u3Bngy9W7YnwA+T+r+mxomtZABgNQe24BPUu8qQBc4G9iCz4tSTdD/AKCONCMtXofM/J9JvSV7d5ASxbtr/ExJPeQLXWqPfWTDXd2rABtJioGdgcvU7xWAKs1I5Rkl+3TW1/iZU6Q08ZcxKJRaywBAao9p0hTsw2QDXl1WAr9AvYMMLUwdewDqajamxdtANv/W2fl3B3A5KVEsqaUMAKR22U/2Amyr8TM7pB/AWfjMKFG/S3TaB6BMHXJPnkZ99+UkqfxzXU2fJ6lPfJlL7VNV36hzFWAN8IvYGbhEda0AqCwrqb/2v11/pQFhACC1zyTwIertvtklqQZbavo8LVxdewBcAShHtSp3AfW9xyfI7P+XsfKP1HoGAFI7bSdVOOqswb2ebAYerfEzdXJT1FMFSOUYI4P/tTV+5j3kmbOrxs+U1CcGAFI7HSQlQW+i3lWApwPravo8LUy/q/S4AlCedaT2f53B+NU4+y8NDAMAqZ2mSTnQy6k3H/d0sgpQZ81xzW+K/s7QuwegLCPAOaT2f10duncB7wN21vR5kvrMAEBqr2oV4MYaP3MVKQm6psbP1Pym6e+GcPsAlKUqy7u6ps+bAq7Euv/SQDEAkNrtVtIcrK6KQCOkM3CdpQc1v36vAPS7zKgWZxO5B+tK/9lFqo7Vud9IUp/VtXwoqT8mSEWgXwHOpZ5B+UayF+BL1FuKVMc3Bewm6RnTxzk4wa9BrpfOcf597rETU4BK0SUpeJtr+rxJ4LPA52v6PEk1MQCQ2u8uMkO3hXpqglcVSN5LOhOrWRPk538Ds7P1E8yWB51mdgb/eAHA3K/d4xxT5BpT81YDT6O+fhw7yAqjuf+SJBWm6gj6KeAI8FANx/eAF2EaUCmOnbXv9Z+r5nWAi4DvUM89fhS4lKQcSRowPtil9psm3YH/hfrydMeBZ818VfNOlOLTqz9XzVsJPIP6Nv/uIStL99T0eZJqZAAgDYb9wMdId+A6dIDzgDPwOSL1W4fk/V9APam706Tu/2exApQ0kHxxS4PjduDD1Lcxdy0ZkKyo6fOkYVVV39pEPe/tPST3366/0oAyAJAGxwRZBbipps8bJfXIN9T0edKwqvpv1JFyNwV8lcz+m/4lDSgDAGmwbCfVefbU8FkdkgJ0PvXVJJeG0ZmkzG8dHbh3ks2/Vn6SBpgBgDRYpoFPk70AdTRvGgeeQj3lR6VhNEJKf66t4bOmyLPjasz9lwaaAYA0eLZTX0WgETI7uaWGz5KG0TrqW2XbR54dzv5LA84AQBo8VUWgL1NPDu9GUhLUNCCpt7qk2tbp1PO+/hLwSez8LA08AwBpMG0nFYH21fBZo6QakJuBpd5aBTydeipt7SXPDGf/pSFgACANpgmyF+D6mj5vC3AO9dQol4ZBBziNlP/st2nyrPgs9ewdktQwAwBpcN0OXEY9ewHGgF+kno2K0jAYI7n/days7cHZf2moGABIg2ua7AX4Ev2f1euSFYAzcBVA6oX1pPrPyj5/TlX5598w918aGgYA0mDbQap67K7hs9aRZkVjNXyWNMi6JJjeSv/f0/uAj5N9Q5KGhAGANNiqvQDX0f9VgDFSscTNwNLyjJHNv2tq+KybSOWf/TV8lqRCGABIg22a7AW4lP7vBeiQcoUX4rNFWo4tpLJWvzv/HgTeD2zr8+dIKowvaWnwTQBXkr4A/baSzFyO1/BZ0iDqUs/m32ngRqz7Lw0lAwBpOGwHPkL/VwG6wFlkJUDS4q0Cfo7+76XZTzb+bu/z50gq0KlNn4CkWkwDu4CfJp17+xn8j5FBxVeBI338HGkQnUJScyZIQD0yc5zSw8+YJvfnm4F7evjnSmoJAwBpeBwig/OzgUf34c+fIHXEv0iqinwbmwpJizVJcvKvJml7d5HB/yjwSHoTvN8P/D1wBXC4B3+eJEkq2FaSCnQEeKhHxyHgZuCtwPNJ99LRuv5C0gDrACtISdCXA+8F7mT59+81wLmYBixJ0lAYBV4GfJflDSCOAN8DPgO8jgwmxrEJmNQPHZIGtBq4CHgT8BXgAeAoiw/Y/4IEFpIkaUhsBC5n6bP9t838/y8DNuFsv1S3MbLR/o9Iut3dJJVnIffwN8iKgiRJGiIjwItJHvBCB/6HSU7/O4EXkIF/v2uUS5pfFQi8jNTzv5v504MOAX+NQbskSUNpHfAJTp4+cBi4AXgLcDHpTOrAXyrLKLCeBOfvAe7g+IHAN0iPAUmSNIQ6wEuB7/D9g4SjJL//i8DrgTPpf01yScvXIXtxziclPr/B7D6B+4E3kGZ90iiwmUwGuRlckobIZuCDzOYOV4OEzwGvBc7BwYLURh3SUOypZNB/Dbmvn4qDPeUauBC4lKzu9rvrtCSpIKOktOB3gQNkxv91pJPvChwoSG1XrQicBzx75p813DrkGf9xsifkfrIvZF2TJyWpf7pk4+bpuAFMs9YDfwX8IVkRML9fGkwG9Bolq0DH7v+6n6SMbcLrRBooHdIA6j2k8+OzcaCnqFIFDAolaXCNAM9kdub/2L1f95L+EuubOkFJvdUhdd/fATxI8r2/QGYBDAIkSRpsHZIG9gmOP/ifGwS8nkwKSWqxDnAa8HYy+J/bxfUq4DlY3UWSpEE1AlwAfIr5e0TMDQL+AljbxMlK6o3NwNs4fsOnI6SV/Asx/UOSpEEzSvq3fIqFd4p+iDSUey3p+yKpZVaTfL77OPFNfgS4FrgEgwBJkgZFB7gI+Azzp/0c7zgK3EaKQ5glILXIauA1pJnTQm70a4Dn4Y0uSVLbjZBmcJ9jYWk/Jxob3EGyBBwbSC2whuTvHa/D63w3+g2kJryNnyRJaqcxUunvczy81OdSj28CL8GxgVS0MeBVZOlusTf+UeBm4MUY7UuS1DYdMvj/DIvL+Z/vqPYLPo/0E5JUmBHgucC3WXrUX60EuOQnSVJ7dIFzSYW/Xg3+5wYBVwHnYKMwqSgrgBeQpbrl3ujV5p9XYS1gSZJKN0aKeXyR3g78jx0bfIL0E3AlQCrACLnxr2Lpm33mCwLM+5MkqUzV6v8X6P3M/7HHIeAy4CxcCZAadzZp7d3rG78KAtwYLElSebrAhWTmv9+D/+p4AHgXsKGGv5+k4+gAW4EP0ruZ/+MFAXcAf4oNQSRJKkVV7ecaelPtZzHHg8CbsVuwVLsOcBrwTuAA/b3Rj5KugK8n/QUkSVJzxkhVnl6m/i72uJeUHDcIkGq0Fngj83f57fXxXeCPcSVAkqSmdJnd8FtX2s+JJgdvA15JCpFI6rMVwGvJgLzuG/5u4HUY8UuSVLdR4GJSl7+pmf9jg4CbSRVCKwNJfbQSeBmL6/Lb6+Ne4G+A9X3+u0qSpKjKfX+F+nP+T3ZcSzYjj/Ttby8NsVFS6utrNH/z3we8AYMASZL6rUsG/9dQxsz/sccRUpDkbFwJkHruPOBTNJvzN/e4F4MASZL6aQS4iMyylzj4r44HsTyo1FMdYAvpwFfazX8/8A5gMzYFkSSpl1YCLySD/6bf9wuZFHwrBgBST3TIzfQW0oGv6Rv8eMcDwNuAjRgESJLUC6PAi0jab2mTf3OPuaXCN+E4QOqJceA1NFPxZzHH/aQpiDe/JEnLMwI8h/LTfqpSoK8hJcJ9/0s9sppE1aUHAA+RlYB3A6fjQ0CSpKVYQdJ+bqD5gh/zHYeBL8ycq30ApB7rAOtIA647Kfth8BDZBPR+0qXYIECSpIVbAbyEzPyX/L4/AHwYuICkKknqk3HSba/05cDqwfBOYCsGAZIkLcQImU3/BmW/5x8gE32W/JRqsgJ4NnAF5ZQCne8B8T7gTAwCJEmaT9Xkq/S0n+8AbySr/A7+pRp1SY79e4Dv0fzDYL7jEPAR4Cx8UEiSdDzjwMuAb1Lu4P8I8G3g94BV/fk2qG6nNn0CWpRpYDd5UFQlQlcApzR5UifQJef3Q8DtwC5y/pIkKfnzzyf7/J5ImWOyKeA6UunvUmBvs6cjDbdqc/AfkRJcTc8OzHccAC4DzsGVAEmSAMaA5wE3U/bM/yeAS7DSj1SUUVIr+AuU2yjsIbJn4TPAUzEIkCQNt1XAy4Fv0fz7+XjHUZJm/F5gC+7lk4o0ClwEXE7KcDb94JgvCPg4cD6pdiBJ0rAZA15B2Tn/3wHeRAb/kgo2ApwBvIOyg4BDwL+Q2sGuBEiShskYKfX5Lcod/N8NvJbs4XPmX2qJNcBfkn0BpT5cDgNXkZxCVwIkScOg9LSfw8DXgBdjvr/USqtJSbFrKLeZyJGZ83smdhGUJA22qplnqRt+D5DV+UvwnSy12grgYjLTXmrTsCPAp2bO0weOJGkQjZFJuVLTfg6Rzr7n4rtYGghdUnrz/cD9NP+QOd5xmKwEPA/TgSRJg2WcpP2UmJZ7FLgXeDuwCfP9pYHSATYDbyAbe5p+4JzoIXQDCQLG+vNtkCSpVquBPyQddEsc/N8M/CnpKSRpAHWAteRGL/FBVD2MriEdEd18JElqszGS819i2s9RUoL0JWRjsqQBN05u+K9Q5ubgI6QCwYswD1GS1E4rSc7/HZQ3+K+q8D0fV9yloTJCGnFdTnb9N/0wOt7MxG3AS3ElQJLULmuAPyKD/6bfp8ceD5DOvudgHx5pKHWB04F3A/dR3gxFtTz5UrJqIUlS6VYCf0yZqbb3AW8DTsPBv2ac2vQJqHbTwG7gxpl/3gw8utEzerhTgMcCPw7sIw/TyUbPSJKkE1tJOvz+CbCRsirq7ADeBbyV2bQkSUNunOTcf5Py9gUcBe4ky6kr+/UNkCRpGdaQmf/SKu0dAa4le/9cTZf0fUZJCc5PUea+gLtJNYXV/foGSJK0BKuB11Deht9DwBeAZ2NRDUnzGAUuIE3DSgsCjpJSaq/CIECSVIZx8l4qbfB/APggcBE22JS0AB3SDfDNlLc5uEoHeh0uZUqSmlVq2s/9wFuArbjZVyfhJmBVqofHtcB+4EeBH6SMzUynAI8BziB5jbcCB8k5S5pfh9xD1XHqzK8dezDn93hvSce3Fvgd4A/Ie7IE02SS7G+B/wpsn/k16YROafoEVKRVJHfwPwBnUdZMwj3A24H/QaobSMOmQ+7JDlniP/boHvN1hKT5Vfdx9f/ONUUGDNPABKm8VR1Tx3ydmPPvU3P+X2nQjQOvIIP/9ZQxQTYN3AS8E/hHYGezp6O2MADQiYySpmH/CTiPcjYSTZMH3N+Rsma7mj0dqWc6c75Wg/wxUgVrJWmOt5oE6OOkXO74nP82Ru7TsZljhIcHC3MHK8cOXKbnfK2OanA/QVYFJ8jK20FgLynT+z1gz8y/V1/3z/y3fTw8sJj7OVLbrCZV8/6crAKUMPifAq4D/hr4JLnnpAUxANB8OqRp2B8AzyV5j6XYS5Y730JWAhxYqC2qwXg1Mz9GBvWrgXVkZvFxzA72VzE7yB/l4bP9TatWBaqVgWrwv5f0G9kF3EtW7nbM/NoeZgOKCR4eIEglWge8HPj3M/9cgn1k0P8m4Et4D2mRDAB0Mh3S2OTFwO+TIKCEmQ/IYOJvgXcAd+EDUGWaO9hfTWYP1wEbSA7xuplfW0sG+qM8PGWnlPttsarZ/yo42MdsUHAX2UC5Y+afd878t4PMphdJJVgFvBp4GblXS7gf9wAfIO++6/F+0RIYAGghOiTV4OXA75JqQSU8BCEDh78nKwH3NHwuUmWE3DPrSAC9AfgJ4DQSRK9iNmXneCk6g6oK0ueuGuwlQcF20pTwVhIUVCsGE7WfpRSrSCOt/0SC9xLu0T0kBfbt5D5x8K8lMQDQYowBF5LNwRdQzr6A/WTz01/hSoDqVc3uryCDhQ2kWtUTgM0kWF5D7p3q9+vEqhWD3SSgv4X0Adk2889z04cc+Kif1jC74Xdtw+cCud5vIQP/v8d8fy1TSdVdVL6DwL+Rl/OfABeTgU/TVgDPJ+f3VjKDaBCgfumQAf1akq+/FfhpMru/jtkBv8/XxeuQiYX1M8fZzK4S3EPu7W+StIftZAWw2mws9dI48FMksG/aFHA18DbgYzj4Vw/YB0CLdZS8dG8GHgk8ntnZzSY9gsy2PoYMEnY3ezoaMF0yIPhx4MlkT8zLgN8ELgHOIak+jyXXojP9vVGtsKwkAcEW4OeAp5Cfw5nAD5HV7KOkT8jRRs5Ug+YQGWg/gVx7TZkgg///AnyKdPqVls0UIC1Vh8x2voiy9gXsAt4I/HdcBdDSVTX0x8m1fSbwC2S2fz2zM/wlXPPDam7fgp0kPeLrwBfIJMAesiro6oCWaoSku/4NqYhX96rebuCjZGX7OnynqYcMALRcK8kM6H8kuc9NliasUpTeSMqiSYs1RgLbzWTQ//MktWc9ZaS7aX6TZPPwNpImdA1pkrSDzOY6gNJidUkZ7D+j3saYO0iVn7/Hzr6SCjUGPAf4OFk2faiB4whwBZmtKaE+utqjS/L5LwBeC3yQpLjdT9JJmriePZZ3HCWpEneQ59Jfk2fUesopXqD2WAG8ALiW/j8TjgK3Aa+hrLLbknRcI2TD3rvJi7fOl/0R4Iukc7GDfy1EldN/OvBK4HLg28CD5HpqegDr0dvnwwHSd+DjJMg7n5R1rLolSydTBQHfpn9BwGHgK6T06Hg9fy1J6o11JF/yTuqZPT0MXAU8E1/kml+HpKydDrwUeBfwDeoPWD2aPQ6T59OlwB8C55JgwKpNOpkRsvn/W/T+/XYA+AiuYqsmVgFSrz1IyvQ9QGqir6Z/e02mycao/0qqI0z26XPUbh1SKeZc4NdJQ7vfItVk1gE/0NypqQGnkmphTyTXxLmkmtkICQ4OYiUhHd9REjweIdfPY+jN+20vGfz/H2QF4EgP/kxJasQ48Dz6mzP5bVKFyM2ZOp4Oye1/LklN+ybJ6zfFx2PucZRMXNwGfJg0f9qIs7A6sTXAXwDfY/nX332kk/1WXIWSNCA6ZHbtMjLw6uUL+zZSi92XtObqksY9ZwGvIyUhe3nteQz+cYhMXLyJpBauweeMvt84ecbcx9KusyPkPfZ7lNFsTEPGFCD100PMNg07Ffgx4FHL/DOnSUfQtwH/gE1RFFWaz88Dv0029j6PlPO06osWo6oK9dPkeno8SRM7BOzHcoyKCeB2Mnh/Aot7zkySIPPNwPtJyqxUKwMA9ds0maWhvcUAACAASURBVCH5JrN5k49exp93P/C3JKXjvmWfndquQ7rvPgX4HeD3gQtJsPmIBs9L7dcle5ieRFYyT5/59QfIPgEDAe0newLWkMmGhewnmgI+Q4plXEHSzyRpoK0kFRS+RjbbLXbJ9AB5aK6t+8RVnBFyHTyPpJjdzdKuKQ+PhR5HyKTDFSRto1pdsvrYcOuQ4PAyTr6/6AFSfaqJrsKS1Kgx4GLgX1hc07ADwPtIZSENry7ZoPkicj18B5t1edR7HCUrkR8ngcBWTDMbdh3SB+dzHD8IOEomKd5MOotL0lCqmoZdRmZETvbCPUwChnNxtm1YVRV9LgHeSzq8OuPv0eRxFPguKd/4CjI54azu8Opy4sp3d5AGdBvwHSZpyHWALWRGZL5Z3KOkksuFWIljGHVItY1LyL6PO3Dg71HWUaUGfZh0cF2PgcCwWkHSXL/N7LVxA2k8OI6Df0kC8jBcTZbRb+b7l06Pks3DF+Pgf9hU18ZFwNtJkGj9fo+Sj6MkEPgImQk2EBhOK0mH6TvIfpFn4/tLBbIKkJr0EKmmcQt5ca4n1RSq6/Ju0iDln8isr4bDGHAmSat4JfB04Adx9kxlO4Vcu5tIl+kfJRVf7iMlIzUcDpPyoPcCHwCuwi71KpABgEowCdwKbCe13B9PNtm9G/g7rJE8LDrkZ/+bwJ8AvwQ8joWV1pNK0SEB65NIILAK2AXsJasEGnwHyar2PWTlUirOKU2fgDRHh8ye/T55gL6DPEA12Lpk5efZwG+RDeIrGj0jqXcmgRuBy4EPkckOZ4QlNcoAQCVaQ4KBXdhsZ9CNkwH/r5ONvmsx1UeDZxrYB1xJVjavBHbj801SQwwAJDWhC6wjVVN+lVSEGmv0jKT+myL54f9K+lhcN/NrklQrAwBJdeqQFZ4LSbrPhdhEScNnAthG0hz/laQ6GghIqo2bgCXVZRT4KeDVpPTrz+AGXw2nLvDDwM8CP066ou/EameSamIAIKnfOqS60y8Df0Y2+67BFUjpUcBmUvb2VNLv4kFSIlmS+sYAQFI/jQBnkLKerySlEU35kWZ1SYB8DgkGHiA15K0UJKlvDAAk9UMH+BHgOcD/Sir82MxLOr5TgEcCTyS9Ax7J7GqAlYIk9ZwBgKRe65BZ/98j3XzPILOckubXIY3DziRN8PaS1QCbSUnqKQMASb20AvgF4PUk5/+HcdZfWoxTSEncJ5Dg+SHSPGyiyZOSNFgMACT1QpfkL/8u8DpS4ecRuNFXWqofIKsA5wOrgfuAPVguVFIP+HKWtFwjpJvvfwAuIoMV1Wf6OMcU2UQ6Oeefp5gdPB6bV94hQdzcY2Tm6M757505h+qzD7iadBH+V2B/s6cjqe3My5W0HCtIM69XA+dhhZ9+mTuwP0gGhHvnfN0D7AbuJ4PD/SRlZHLm69wgoPqzKnMH9SPHHKMkHWUF2cS9igR448DKma/jM79nBIODfllJ7rON5Gfwj+RnLklL4gqApKXoABuAlwD/jgxMHPgtXTUor2bt9zM7qN85c9xNOsbuYXbQv2/m91fBwbGD++N9znxO9DOcGyRUKwRjZDBaHWuBxwPrSJ+H1TPHipnfW/1/XifLs5sEAO8CbsRyoZKWwABA0mKNAKcDvw88n8wAa/EmmZ3F3wnsmDnuALYzO/Dfy8Nn8Es1N3VoBQkC1gLrSbfb9SQ4WEsChpVkhcGAYPH2A1cCbwU+S1aFJGnBDAAkLcYocAHwByQlYUWzp9MqU2Swvwu4i8zefnvmn3eSmd39ZDBXzeoPghFm04jGSWCwgVS5OQ3YMvNr4zO/VwszCVwPvJnsC9jb7OlIahMDAEkLtQJ4AdnsuxUHa/OpUnKqVJ7bgeuAr5GSjrvIgG1uXv6wmLvfoFop2ESuqZ+d+VqlDlX7CnR802S16N3A/yArSMN0LUlaIgMASSfTIekbLyKD/3XNnk6xpsmG251kVn8b8EUy038PGfBby/3EumQVYB1ZFfgZ0hBrIwkSVmIwcCJ7gX8C3kSuu5JTxSQVwABA0slsJfX9X4CD/+M5SAb9t5KUjC/O/PNOrNu+VB0y4F9HVgfOAH6OpAytm/lverj9wD8Dbwe+jJuDJc3DAEDSiXTI4P8/k/r+bvaNqtLOHjK7fyVwFRn07yYBgYP+3qk2Fq8iwcBZwNNmvq7BykJzHQS+RPYF/BsGAZJOwABA0vGMkQ6kfwY8FXuGQAZXVT7/lcDnSACwCwf8deqQYGALcC7wFBKoriHX7bAHA9MkGH0D8FHsFyDpOAwAJB1rDHgOqfRzDsO92XeaVO65C/g8Se+5nmy8PIgbLptUbSReS/YK/BwJCM4gKULDHrTeQtKB/oEEqZL0PxkASJprFHge8OdkVnWYB1F7SS71Z8iM/y3MNt5SWbqkatB6Up72KcDZM/8+rCsC0yRwfSfw/5D0NEmSpP+pQ1IoXgXcCTw0hMdR4AHgG8A7SCC0luEOgtqoShG6AHgjcA1wH3CE5q+xJo77yZ6AjQxvMCTpGKc2fQKSivAjwMtI2s+PMlyrg9PMDvzfR7qr/iNwLfAgpvm0zUPAIRLIfpmkbW0n1/RjgEcwXAPhUbJfYgX5PnyPfI8kDTEDAEmrgVcCr2D4Uib2AVeTJkr/N/AvZAPlARwkDYLDwL1k38ZXgNvIz3Wc4epiPQpsJisjt+GeAEmShlYH2ECqhVSzgsNwHCGDwiuAPyQDo1GGK/AZViOkj8DzgEvJKsFhmr8m6zoOAJfh/h5JkobWZpIbfB/ND0zqHPh/BHgJqSk/zBWOhlmHBALPJZtkhykQOESCn3MwCJAkaaisJbnuwzL4fwD4BNnkvAUH/oouCQReRGbGv0s2gzd9vfb7eJDZIECSJA24DsnzfwOpDtL0QKSfx1GS8vA14LVk4D+2/G+hBtAIqZLzUuDj5N4Y9EDgAPBhkg5k+pskSQOqA5wGvIXBH/wfIgP/vyRNopzx10J0SCDwh8CnGPz75AjwQUwHkoaOVYCk4fE44I9IusOqhs+lX6aBu0k1n78BPkSaIU01eVJqjYdIA7gbSVnYfSRd7tEM5vuyKgSwGrgd2Em+B5IkaQCsAl7PYFf7OUTSN15C0pyc0dRyVA3FnkPy5Qd5v0y1J2BzT75zkiSpUVW1k79icAf/c/P812E+s3qrQ2bIXwB8hsHdH3CYNMLbgveQNPAGcUlT0qzHAr8D/C7www2fS69Nk6otHyDlTD+IXU7Vew8BB4FvkbSgQ+S++kEGa6B8KvB40il5G0mF8l6SBpQBgDS4Rkm+/6tISswpzZ5OT02SPO3/i9RxvxGYaPSMNOimme0qfBsJAn4E+IEmT6rHHkE2QZ8K3ADsb/RsJEnSoqwgg/87aD61oJfHUbLJ922kcslor75h0iJ0Sb7864GbGbwmYt8jaYODWixAkqSBMwY8n+TFD1Ku8gHgi8DLgDU9+25JS7cSuAS4nDSba/oe6eXxXVIO1SBAGkCmAEmDpQNcAPwZcBaDUwlnN2la9N+Aj5H8ZKlph4HtJF3mIZIStJLBSLcbA36MVD+6jaTdSZKkwnRIBY9PMTgpCUfJ4ONVpF75oAQ0Giwdsir1IuBzpMFW0/dOL44jZCXxuQzWhmdJkgZCNfh/L4Mz+HiANPR6DnbyVTt0gdOB95ANw4OQgneUBAHnYgAuDQxTgKTB8Djg3wO/ATyq4XPphV3A/wf8d+AqTD9QO0yTa7eqSrWO5NC3OSXoFOCHSGrTzSQd76FGz0jSshkASO03CrwUeAV5Ubd5sDFNKhe9bea4jaxoSG2ylwQB3wE2kfuyzSk0HVJKuEP+XvuaPR1JkobbKPBCUhqz6VSB5R4HgI+TqiqW99Qg6ABnkw67g9CJuyoPOt7Lb5IkSVq4Lqn4cxXNDwyWezxIBknnYr6/Bku1P+eNZEWg6XttucedZLOzQbokSTWbu+n3EM0PCpZz3Ae8Y+bv4yZDDaIO2Q/wGjKAbvPm4KNk0uF8vF8lSarVWuAttLv50FHgW8Cfzvx92pwjLS1E1aH7i7S7VO9h4IPAmXjfSpJUi1FSF/9emh8ILPU4AnyTDIZW9vbbIxVtFHgmKXHb5iDgATIJsba33x5JknSsLnAR6Tza1jSCI2QG9IWk26g0bEbI5uAraHcK33eAV+K+HUmS+qYDnAF8mPY2+zpMKv08Ewf/Gm4d4CzSNOx+mr83l3IcJSt5F+F+AEmS+mI9qY3/IM2/+JdyHCB5w2fhYEGCBAGbgL+hvWVCjwAfwf0AGj5dUhJ3RdMnshQ2ApPaYQT4LeB3gNUNn8tS7Cc5z/8n8HUycygNu4dILv0tZEVsM+1bGesAa0gTv2+Qe10aZGPAjwFPI6msjwZuBaaaPClJg6dqJtTWvP8DpMb/mTjzL53IBrIS0MbN/UdJedOX4yqABlMHWEV61bwO+ATZA/Mg8H5y/0pSz3SA04DLaOfg/0Hg7STNwYGBNL81pCzunTR/7y7luIEMkLzXNQi6ZMX9LOCPSArrHXz/u/jbpIN9qya42pYCNEoisGrG4aFmT0fqux8EXgL8JvCohs9lsfYBl5NZzdtJioCkEzsAbCP3yum0L7d4FRn8X0dSm6S26QCPIDP6zwB+m6Te/hrwU+SdfMox/0+XrAZ8hRS6aIW2BQDnAP8R+EmSa7Wf2TrK0qDpkOoaryYPo2MfOiXbTwb/byLNvhz8SwtzkAQBjwCeSLsC/w7pC3AfcBMw2ezpSIsyTgb5zyflbX8LeDKwkeT9n+gd/ANkLPoFsplfPdYF/oqkFBwG7ibLMX8MnEeWTkdx6VGD4zRSMrNtJT8PkLSfzXg/Sku1BvgL8q5r+p5ezHEUuBZ4Nt7/KluXrFqdAbyU5PLfQXpzLDbl9m7S2FJ9sAb4DN//oHmQVB54J/Aykqu1Eh88ardx4C/JYLrpF/pijmpD1Kbef0ukoVMFAW0rEXqY7Fta3/tvibRso+Qd9RzgzcBVZNVqOfvsDpNxaNuqeBWvA1xAfkAn+uYfIjlYXwDeSH6wG7FDodqnS2bPvknzL/LFHIdI2s/ZGIBLvbIWeCvtaxb2PZJGMdr7b4m0aB0ysXYW2Wh/OUlPPUDvCmzcgJNfPTcGvJ6FpUIcZTYY+AyZPTmfPERNEVLpOsBW8nCq9re04ThMUvLOpmWVEKQW2ETS6toWBHyNTN75TFATumQj/WkkPeddZGLtQfqTWnsAeAGOM3tqK/AplvYDOQTcRgZUryIlytbiyoDKtJLsdWnTi/4ICbYd/Ev90SF7at5Bu9ICDwHvJqvxUl2qFJ9LgDeQzJD7qaeU9jtpZ7POInVJRLXcushHSQrRF8lMyotJVNi2MmsabBfSroZfR0jps9bVQJZapkNKg36Edq0O3g38HqYCqb+qFJ9zSOrZZcDNZLa/zuv9KzPn4CpAD6wipQR7NetRpQh9l6wqvAF4JonYRvCHpuasIbNlbXm5HyUP2BfjxiepDtV+uC/QnupgR4DPkUorUi91yLhtHdk393aSdvY9mrs/7gNegQFvT5xBHnb9mhE9Qn5gnwBeS2Zg1+N+AdVrjDw02lTt405SectVNKk+XeBi4BraEwQcAt5CZmil5Rol47QLScpsVX+/hJXzw8B7SVCiZeiQjRt11UF+kGwQeQ8ZjJ1NVgYMBNRPHVKZ4BOU8QBbyHE/efCu6sP3Q9L8VpCVt9to/lmw0OM2MktrqqCWokP2yJ1FUsreQ8ZrJe6JuZYUnyl67Fh6J+BHkjbM55NOa/02AvwQ8BNks/B5ZJ9Al8xgHMCOpuq9x5AmJL9CO1JpDgIfJvWTdzR8LtIwmgTuIu+ss2hHukHV0firwANNnohapQP8MPALZDz4CtKp92xS0KWOseFidYFvk2vdMeMSbSbLnE1GctXm4WvIgOeZpKLBCgqP7tQal5B6xE3PWizkqGr9n4HXv9S0NeS91JaqYd8l1fhMG9R8Rsjg/jzgNWQPyb20J+XtCHApVgNasg5p5lVSTvRh0ib6g+SivABLimp5VpPOuW3Z+HsVybt0GV9qXlUZ6FISnDf9fDjZcZTka5/Vj2+GWq2q4nMGWREvOcVnIcfNeJ0v2Rip0FNiTvQRMuNyLWks8TJy0bZhGVbl6ALPI7NiTV/TCzm+S/bktCFNSRoWIyQo/yLNPyMWcjxI3u1OnAnyHlxLNrb/NanO+B3aMyl2ouMA8BJcKV+STaS5UNM/xJMdR8gqxVdIudLnzZz7GP7gNb/TyGpSiUHuscd9ZNPvyr58JyQtxwjJi66rYMZyj2+RfXa+I4dTl9ma/X9M9pTdSVax2vA+XOjxTgqufFXqJuAu8GTgt8gGyZJ1yGbldcDPABfx8NSgo8AEMNXUCapIK4BfJ9d46fmwB0mg8hZgZ8PnIun7HQW2k422T6L8VbrHkPfi18hMqQZfB3g08AQyTvpfgD8hqd5PIgPlLnBKUyfYJ5+n0PdmqQHAGPCr5CJp0zLhqeQBvJ5Etk8GzgQeS3aCT5KH3kNNnaCKsZVshttC2bNg08CXgP8G3IgVDaRSHSEDjQ2kgEbJ+3SqweDNwO34XBlkVYrP2WSV6veB3yDVHdeQMd6gDforpwLXk+v8aMPn8n1KDQDWk+jwJyh7cHQip5CLejVJ8zifrApsJbO9h0ggUC11abiMAP8OeAFZPSrZvcD/DnySBLCSyrWXpKQ+iaxKlzywejR5pnwN2Nfwuai3OmQy9DRS5e4VM8ezyArAYyh3/NlLp5J36NVk3KeT6JDNIG0pi7iY4yjZPHwN8DbghWS/gCVFh8tZwA00fz2e7HiAbMoqPZ1A0qxR8m5pQ3GBu0lDM99/7dchY5nNpFjEO4BvkE3fTV9nTR1HSeW8M5fxfe2bEiOwR5CcsIsZvKo6p5C/0+OAnyQrAz8N/ChpZjFBdr4Xt1SknllBZv9/lTLvv8ok8GlSY/w7DZ+LpIWbAu4hKwBPosxGSZUxkiLyadwL0FZdku1wDvBrwMtJw64nk2uwTWncvXYKCQS+Tia1TXU7iTWkLnpbGj4s9zhCZlq/BbyX2ZKizroOng55SH6F5q+7k81a3EzyNYf54S212dmkkl7p79J7SfU8VwHaZYSk+LyIVLu5mYxlSr/e6j6qsreO6RbgPNL8oekfWhPHUTILcjPwbnJjnc7s7ni122qSUlP6kuj3SGk2S35K7VWVBv0m5ZdW/CCwsS/fBfVKleKziWRpvJX0QnqA8q+vJo+jwMcp8PoubVDZIRtl1zV9Ig3pkChxC8mjeyZwK/BVMpNzE6nyMIFLSW1TXdsXUfZMwBTwWeCfcGOe1GaTzN7Lr6LsgP5skhJbvd9UjhEyCbmZFDN5MnmXrccV4oXokO/dZlKqtxil5SA/knROezJlVy+oQ1Um7UfJBpInkz4DjyP7BA4x2ylP5XsUaW/+LMre23I7qfrzNby2pLabAHaRd8fjGz6X+YyS1JEvk0pGat4IGX88i6Qm/w7wy2Tw/1jKGz+W7BHALaSktu/VE9hEdkw3vWRT6nGUDPy/BbyPlNU6E1iFkXjpzqb8yj/fA/6SsmcKJS1Ol5QcLr1L8J2kIpDvsuatJIP+z5DKheb1L+04TFJ+7wZeT2GTfyWlAHXIhpKNDZ9HyTrkAjqNLCddAmwjsybXANeRJab9mCJUkjEyc7K56ROZR5Uu8AFy/UgaDFOkj8c/kUFdqZ3H1wG/Qs61yM6pQ6QLPJEUrSg5ZbVEE2QVaydJ276BNNG8kcJ66ZQUAIyS6jfjTZ9IS3RIlH422Sj8HLJf4PPAF8nFtpM8/NWsTWQ/R1HR/zHuAS7FrpzSINoLXEZ6kJxHmRV3usC55J320YbPZdjtI5OKLySdpXVi02Rgvxu4i0zI3kAmZ7eTe+8gBb5XSwoAVpGa+C7/Ld4o2ZCzjjw8d5MA4G+AKynwwhsiY2Tj79amT2QeU+SF+2ncgCcNommyQnwpWUFe0+zpnNBa0iPlStwL0KQpcr3cggHAsabJ9+cgGWvdQiZdryeD/moj+xSFj71KCgCqZaZdZGZ7jDJnKUpWlelaQVZS3kHhF+CAq3b//xLlLrtPkwfXu8nDTNJg2g98CPh5MrNb4vu1C1xIUk8+ie+vJt0DfAJ4Kk7MTpNVkT1kVv9GUgL1emZn+Vt3rZYUAOwA3gRcQboXbiWDp7Vk8FTSubbBNnJxqjkjZEl7K2W+bCEPtEvJLIakwbaDFJC4gKwal2gt8AxS/npPw+cyzCbJSswuyr1W+mmKDOx3kfTqa0hO/63kPtpHy1OsSxpU7yftkq8ns//jZOnpDFLC7AwSEFStw3Vik8DV5MJVc1YDT5v5WqIpkq/4UUz9kYbBNHk3/CspuV3ivqRq4mQzCQJaN7M6QLaRVKB1lDuJ1UvVTP928ve+ikyO3UNWyKvUnoFQ2kC62kwxSSKv7WRT6ygJCLaSTUw/RZplrSerA6OU93dp0l3Apyhsx/kQOpfMtJW6fHoXSf25tekTkVSbvcC7yKTaOZQ3sOuQwhYXkRlXq5I1Zy/pYns+g1egpRpv7iN5+7cCXyG1+m8lE6jF5/EvR1sGzRPkB7STLEmNk3KhW5hNFzqNzLSuoNwBVx2mSMS6jQG+cFtgjCxjl7rZrioNeDUGitKwuQX4MJllL3GFciXwFFK61PTE5lSbx7eTnkNtN81sc7y7SIB57czX7TO/PjTvw7YEAHNNkh/SLnJhjpEKQptJQPCTZGZj48yvt/HvuBwHSSqVdZSbVbVNL/X62wlcjteJNIz2Ax8Dnk5m2kvTIe/xs3Ayq2nbyabXrbR3cnWCDPirlKavMTvLv4+MK4fuGit1cLJQx6YLfZoEBKtJ7fXTgSczW/ZsJbmA2/73ns9OUpLKZdPmjJK6/xsbPo8TmQD+mcz+D91DTxLTZGb9/SQNqMTu32tIA8WPkkGamrGb5MI/k3JXtOeaYnZceBcJXq4i+0t3zPz6UA74jzVIA+FpZjdw7CMNjT4L/L9kIHYa6TOwlQQHVUDQpbwcyKWqHurOmDRrI0n/KXG2ZJpcH5dhkCgNswng30ghgAsp7z3YIU3LTid52b7TmjFBZs3votwAoMrl30HGflVt/ltmfq3IRlxNG6QA4HimSBmxPST6+xhZHdhAAoGfJoHBBlJ6rMQB22JMkU0sVv9pzgjJldxCeS9UyIPwk1giVlIGR5eTdJsSB3drSR3668izS83YTmbSz6Kc91rVfbca8H+DvNfuIWO+fTjon9egBwBzVTVd95IL5mqSLrSGzNieTQKCLTy890ApF/tC7CF/L2d2mzNONq+VuLGuWiH6MHbZlJRnwidJs8KLKW9M0CWllD9ENmqqGXvIjPoLmG3aWqcqw6MqCHMLs7n8t5BJz4OY2rMopd3sdakupAlyYd9C9g+sIIP/04GfnflarQ6MkdndkgOCW0iUruZsIeU/m3hInswE8BHy4PQhKQmS2nEZWbksreFThzxTzyGbNoemQkthJkmq2A5S4KIOU+SdVU3a3kRm+b9KViSqzbtaomENAI5nktl0oW0kN7JKFzqdlBvdQvYPjJMBXknBwCS5MXY3fSJDrEteVBsbPo8TuZ1c164QSapUjSO/TCa7ShsXrAJ+jqTwWrWsOdUgfBP9G/tMkffTTjIOu5EM+m+a+TUH/T1U2o1eiuOlC60gAcHppNTo6WQfwQZS9aXpYGAvWaJzZrc5VfpPiRU1Jskq1414jUh6uHuAK8hm4NIaPo2SFN2NGAA0aR+ppnMRvV3hniaD/ltJDn+Vy79t5jMPMkDdd0tiAHByc9OFdpM0mw+RG2AdCQJ+hmyiOo3MVlTNyOoMCm7C9J+mnUFeVE0Hg8dzO9ns5+y/pGNVFYF+jZR7LOkZ1iFpJ+eTVW4Hg825mgSLpy3x/59mdpZ/F7Pjlq/NfN1JrkUnqWpgALA0U8yWG52bLrR55vhJZvMpV9H/dKGDJGI2/ac5o6RkXYmbfyeAz+MmOkkntgP4OHmOlbaKuZL09Pk7kqarZtxFJkE3s/AxTTWJOrcuf5XWs23m1y3T2QADgOWrlq/2k4v7SmZXBzaTWeGq/0BVXajXwcA+ckM5u9ucNeQFVeI9tQP4BFb+kXRiU6R3zi2Ut5LZIZNqmzAAaNJeMtn4VE4eJE6QWf5twNfJLP82soKwHyv2NK7EwUqbHVtd6CbSxXCc7BXYwuzqwEYyaFxuudFpsiP+elwabUqHvDBPb/pEjmPuBj+vD0nzuZWsaG+hvFWA9cAFZAZ5ouFzGVYHyUB+Nw+/PqqKPfvIAL8q0XkTST/dgwP+4hgA9FdVu3b3zPF1ZnsPVAHBzzLbjGw1SSVZzM+lqu1+D95cTVlJqlSsavpEjmMPWdZ385ykkzkIfAq4hKxel7QK0CVFFv6BrGqqflNkFn87CcgOknfLrWR8800yHrkLG3EVzwCgfgfJzXMXmZX9ELPNyM5ktjvxOjKwPNnPaBK4AdM7mrSWvCxL7CR9E/AlLJ0m6eSqCaUvkQmq0WZP5/tsIam1BgDN2UkqRt3FbCOu7cw243KluSUMAJozN12o2g3/STLoX89sdaGtJO9xLRlgHpsutIuk/zjAa0aXvJROo7z7aZI8qO9p+kQktcZusmr4bLIyXZI1pNfKV8lgU/XbC/wtGYfsJwN+Z/pbqLQByzA7NiD4OvABklayiawOPIkMNDcxW13oVrIk5w3YjBGS/rO26RM5jltJ7X/zZSUt1BRZnf465QUAK8jz9gNk1ln1m8aMg4FgAFC2CbLUuYPMeKwkMyCbyYbTnyJLcLuaOkGxigRnpS2VT5Jl/NubPhFJrbOb7AV4Jr1t+rRcXTIJtpGkoDjxJWmodMlMyDrKrDs/TC4A7gAeKuz4DvBiDPIlLc1ZZFNn08+yY4/7gFdS5p4rqTVK2uGvhas66e3A5l9N6pLyn6Wl/0yRfSGW/pS0VNtIX5vSUgjHgZ+nrJUJ1uYGXgAAIABJREFUqXUMAKSlGycbtUtL/zkIfBFLf0paugngC5Q3yVQVXljX9IlIbWYAIC3dOsps/rWTzP7bGVrSUk2Rhk63Ul6u/QayF0DSEhkASEvTJYP/9U2fyHFcR1KASntpS2qXe0gn8dJKbq4iTTRNA5KWyABAWpox0rSttBfQFPA5ylu2l9Q++4FrKK/SXJc0Xxxv+kSktjIAkJZmNclDLa3Kzg7s/CupN6aAG8mG4NKchvsApCUzAJAWr0PqUG+irABgmqT/WPtfUq/sAK6ivJTCNWQVoKRnsNQaBgDS4o2Q2f81TZ/IMfaTqh37mj4RSQNjEvg8sKfpEznGGGmGuaLpE5HayABAWrwR4ImU9+LZAXyd8mbqJLXXNKkEdEvTJ3KMLrAZm2FKS2IAIC3eOFkBKKkT5RTJ07216RORNHB2A1+lrL1FHVKFbR2OZaRF86aRFm8jyf8v6f7ZD3yF8pbpJbXfJGkuWFp1sbWUWYxBKl5JAxipLTaTOtQl2UOqdUw0fSKSBtItwPamT+IYK4AnUF43dql4BgDS4nTJC6ek/P9p0rDndpIKJEm9tpMEASWlAY2QCZmSnsdSKxgASIszDmylvPz/64G7mj4RSQNrH3AtZVUZ65J0zLVNn4jUNgYA0uKsBjY0fRLHmAS+QfYBSFI/TJJCA6V1BV5N9mVJWgQDAGnhOqTiRGmzTXtJ/r/pP5L6ZZqsMt5DWaWGV5JVAEmLYAAgLVy13Dze9Ikc41bK25wnafDsBG6irMmGUdKXZazpE5HaxABAWrhRsgG4pJJzVf7/3qZPRNLA2wfcQFkbgauJmZVNn4jUJgYA0sKNUV79/4PANynrhSxpME2TFYDSJhzWYEdgaVFKGshIpVtDeV0nd5PSfCXl5EoaXPfMHCWpns2SFqikgYxUsg7Z/Lum6RM5xl3AjqZPQtLQqJoOljTpME6qs5VUnlkqmgGAtDBdEgCUlGc6RTb/7mn4PCQNjwng25SVdtgBfgwDAGnBDACkhRkhS8wltZw/CNxGXsiSVIdp0g+gpIZgHbICUNLzWSqaAYC0MKNkhqmkF8xeUgK0pJk4SYPvdlIStCTrgFVNn4TUFgYA0sKMkRSgkkqA7iX5/yXl4koafHspayNwh1QBWo3jGmlBvFGkhVlJWWXmpskM3C4MACTVax8pQFBSQ7CVuAIgLZgBgLQwqyhrdmmKzMCVVo9b0uCbAO4A9jd9InOMkSptJa3SSsUqZTAjlW415VUA2kE2AktSnabJBERJAcAoSdO0EpC0AAYA0sl1KK8C0CRwN1YAklS/KZJ+WFIAMAL8CAYA0oIYAEgL8yOUFQDsJysAVgCSVLdp0oW8pD1IXbJSawAgLYABgHRyVRfgknJL91JeGT5Jw2MvZQUAHbJXa0XTJyK1gQGAdHIj5MVS0v2yj8zASVITDpJnUEkBwDgGANKClDSgkUq1gvICgN2U1YlT0nCZIM+hkkqBGgBIC1TSgEYqVWn1padJDW43AEtqygQpRFDSPqSVJAiQdBIGANLJjVHWrNI08F3KevFKGi6TwB7Keg51KWuyRiqWAYB0cmOUVVmiqsBRSu6tpOG0l7J6kZS4X0sqkjeJdHLjlFUCdIKyqm9IGk57KGsvUhd4bNMnIbWBAYA0v6qyREkrAPvJzJskNam0FQBTgKQFMgCQ5tchG8tK6gFwkLJm3SQNp/2UFQB0yH4txzbSSXiTSPOrXiglrQAYAEgqwSRlrUZWz+uSJmykIhkASPMrcUZp/8whSU2aIvsAStqPNEZZe7akIpU0qJFK1AUe1fRJHOMgZTXfkTScpihrNbJDBv8lrdhKRTIAkObXJTNKpZgms/8lzbhJGk7TwAOU9TxyBUBaAAMAaX6lBgCuAEhqWmkrAOAKgLQgBgDS/LqU9TJxBUBSKUp8Ho3gJmDppAwApPl1KCsAgDQCK+mFK2l4TTR9AsfoYgAgnZQBgDS/LuXlkxoASCrFJGWlJLoCIC2AAYA0vw5lvUymgUMYAEgqQ2kBQGnPbKlIBgDS/Ep8mZS25C5peE1S1oREB8c20kl5k0jzK+1lMj3nkKSmTVPWCgCU9cyWiuRNIp1cafeJg39JpShtQqK0SRupSN4k0vxKfJmU9LKVNNxKfB6V9syWiuNNIrVPiS9cSZLUEqVtbpRKU9ryNnjf6uSqzesjM8fonK/VxM8UcJBs4pwkm8unKC+fW2UrcSKxtGe2VBwHEtL8SgwASkxLUvM6wEpgNbABWD/z9XHAODDGbCAwTQb9+2eO3cCdwF3APcDOmV+brPVvoDYqrVJaiZuSpeKUdNNKpSotAPC+1VxdYC1wLvCzwFZgMw8f9J8oaKwC3CmyArCPDP63AdcAXwZuIUGCdDxdnJCQWseBhDS/0maTOmQGV8OtA6wig/1nABcBW4AVLG6FqPp9IyRYWAVsBM4Bnk+Cga8DlwNfBXaQtCGpMkJZAUBpz2ypSAYA0vyqVIlSdIBHUdYLV/WpBv6nA79CBv6byOC9158zNvNnbwTOJ6sBVwCfJKlCJd0Xak61z6QUU5S3aisVxwBAmt8U5Q105m7k1PDoAGcAvw5cTGb8ez3wP9HnrgWeTdKMng68D/g8sKeGz1fZSnseuZFdWgADAGl+VaWUUnSYTfPQcKhm/S8CXk1m/8eo/xroAmuA5wJnAx8F3gnchAOuYVWtFJVkgvImbaTiGABI86s2R5aiqvTivTscOiTP/7eBF5KqPk3rkrSgl5NViLeQ1YB9DZ6TmtEhm81LmpCoytpKmoeDCGl+BgBqSpek/Pw5mf0fb/Z0vs8o8FSyOvFO4AOkdKiGRxf4QcoKAFwBkBbAQYQ0vynKK4G4gv+/vfsPsvSsDjv/9d1Lp7fd7jTj3vEwjOXxZGoykWUhy0KRFUXIihDilzFgirAk/rHYu1v7IxvvFuVU7a9KpWpTiTfreNl4Nxs7jn9gFwYiAwLLIIQsCyGEEEKW5cl4GIZhGJr2uGmadtO+XF32j9Pv3que7p6e7r73Oe99v5+qt7pn1JKemXvv+z7nec45j5/dcTdB5Nu/HbibXEWWg9rADUSQcgD4JWCp6Ig0Sm3idc9klVyLNlJKTiKk7XWBrxFdJbKsck0TuwDzpQeioZgkVvzfDtxK/vt0i0gJejsx1l8m3pt2Yhl/VQCQ5d7YI1LRMtVtSSll+dBKWVUPlExFjtPkSwfR/mgRPfjfTuwAZJ/8D5oFfgb4ceI0Yo2/KWIxIosesWNrCpB0BQYA0vYyPlCqHQCNlxZwAvhZYvKfNe1nO4eJIOAN1HP8ujoz5LoXVfdrSVdgACBtr0f0Os8UAMwQ7Rg1PlrEoVtvJ3r813XyXP05fo7ctQvaH3PkCgC6WIgu7YgBgHRlS+QqKmsTD14/v+NjBvgx4rCtycJj2Q9Hgf+aOLPA9+n4miXXOQAd4M9KD0KqA2/M0pWtkKuorAV8N66ujpNbgLcyXjs7twJvwXqAcVUtRGQLAC5hAbp0RQYA0pWtkKu1YYs4EGocVooVefP/BXGo1jjdk2eIWgBTgcbTJPHezfTarmEKkLQj4/SwkYZlmQgAMq0qHSKKgVVvk8BriAO16tTxZ6euIXY2MpxgrP01CbyYXO/bZTyRWtoRAwDpylbIt6o0y3ilizTVMeCN5Cqk3E9tIr3pTnJNFLV3U0QKUJbXtWrYYBcgaQcMAKQr6xIHG2U6C+AAsQug+poiDvy6kfG+F88CbwKOlB6I9lV1D8r03r2EOwDSjmT64EqZfZFcnYCmibSKTPm3ujrXAK+kGYe63UjsAli3Mh5axA7kQfLMI7rAArkaNkhpZfngSpn1iB2ATAHABNEJKFMHDu1cC7iJaJOZJYVimGaAH8aOQOOiTaz+Z0pdWwO+TK4zW6S0DACknZkn18pSm1hBNgCopwngZTSnjqMN3ECcdOxzp/7aREpXpkYEHeI+bQAg7YA3YmlnLgEXydMJqAoAmjKBHDdHiT75TUrhOkL8mQ1a628K+Ovkei2XiXt0plotKS0DAGlnloj80iwy5uBqZ1rAtTSvKHYa+H5ypY1od2aIBYhM6WvZ7tFSak4cpJ1ZJR4umVaXZsn3ENaVTRK5/5nSJ0ahDRwnDo9Svc2R63XsEbu0ngIs7ZABgLQza8DnyVUHMAv8DeysUjezxEp4E++/h4mzD1RvJ8hX0H2BXCe2S6k18QEk7cYacJ5cAcAEsaJqSkW9zBE1AE10gAgAfPbUVxv4PnLdd7rEAk2mTm1Sat6EpZ3pEQVmmVaYWsREMttKnLbWIl6vpr5mVfta09bqa5rYAcj0GnaBs9gBSNoxAwBpZ6oAYIFcOaaHiF0A1UNVvJ2pe8qoHcK0tTo7CJwsPYgNFokUoEw1WlJqBgDSzi0C50oPYoMDwA+SazVOW2sRr1mT2n9uNIcBQF21iMn/odID2WCeCAAk7ZABgLRzq8CfkmuVqU10lMmUj6uttYgUiibfe2cwYK2rCeJ+k20HywJg6So1+SEkXa014Az58kxPkG9FTptrEavfTb73TtDsP3+dHSA6j2UK4DrEfXml9ECkOvEmLO1cDzhN1AJkcgi4iVwPZW2vyffeFs3+89fZESIFKNPrtwL8MfkWZqTUMn2IpTpYIF8AMAm8hOYdLFVHPSKFLFMh+ah1yZVGp52ZoL/bmGnusEh0AJJ0FTJ9iKU6WCK2mzNNYNrAtUR3DuW3RrMDgKb/+etqkkj/mS09kAE9ogA426KMlJ4pA9LVWQU+u/41S+Fti2gFepJYCcsUnOj5ekQQ2eR0hUWa/eevqzngBnIVAHeBZ4n3lPI5CFy//n2HeL3W1r92Nlw9+gsDvStcG7mgsAsGANLVOw1cIk8AAPFwvg54EIvhMusS750mT4Cb/uevq2PkO8V5BfgP5DqhXaFFBIy/QASN1aR/jf6kf/D7zoafWV3/+o0Nv17l8uBhs6tKtdz4deP3cHkA0YiAwgAgp6pIzpXcnM4RW87HCo9j0DRRBzCLAUB2l4Bl4HDpgRRQHai3VnoguiotYoEhW7exRfKlZKpvFriGy+vTelt8X/16u6u74dpsR6H6/Y3BxCoRUFS/HvyZ7b6v/h8bx7HTHYqUDAD2x2BXi9aG32sRf88T69fg91NbXJPEm+s+8h08pZjAnQZuJs+BTlUdwFE8ECezHvH+uUi+01RHYQX4HE7Y6mYK+CFy7XpWweQ5fD9l1GLr90tri+/3aqv0oI2pRYPfD07oO9t87fD8QKL6WgUVg78e/PnB3Y61Df/dwau34fuNgca+MwB4vtYWVzVp3ziRn1y/pgeuqYGv3z7w643/bGLg39/4PUS3mVPAeWoUUTbEKvBHxGTmQOGxDLqGCEoexfdMZlUAeWfpgRSwgB1b6ugIkc6RKf2nS862zAptRn/o32bvz1G9Z6tnbjWJ35jWtFlQUQUFq5v8eg34CvA7xH1z341rALDZajxsPekenMgPTtiniUl89fubXRtX9ge/bhVQ7EQ1HuXTIQrPFsgVAEwDf3P963LhsWhrVd/yLuN7D95Mj9idcoeqXqr0nyOlB7JBh/gcea/LqWmnng/OM6sMj53YblfiAlHX15gAYLM3S3vgn1UT64kNVzWpnyKizhnizTcL/FUuX6UfnPAPTuLbG76v/p+DY9v4dRja9D88rubm0iO2nc8TfbGz3OCqoqsjRICinDrAU0T+cpNat1aB83zpgeiqTAMvI1f3H4iJ/zOY/pNVi5h7aXvbLQxPMsR6qWEHAIOr4Bsn1NX3k/Qn5Jt9nVn/+h30J/WDqTQbv99q9b1uWkTwUsexN8E88fC5nXivZnEMuJXYGvfBmNdp4GkiDagpn/FLwCewSL1ujhOphdmcIgqAXSDLaYLYIW/K/W0YqnSgoRhmADBLTI7m6K+8fweXT9gHJ/yD6TmDq/CDV10n9FerKqBpwp+1jlaBzxAf0EwBQJtYrXs/Q9o21L5YJGo1biZXYeWw9Ijc/6exBWidTJAz/adH7CZdKj0QbWkC5zB7tcIQ75fDDAAOAf8rcePYOHnfOJH3DXK5FvBCcqZpqX8AzTy5TsaEOHjlOAYAmXWBjwM/RnRvGndrwGNE2pzqYwb4QfLd4wYPZFRO1jHu3TJD3OEa5sR7jdj+Obj+dTB9Z2Oaji7XInZPDADyOgc8WXoQmzgC3IY33+yeJAq8mjCJOQ+8Dws26+YosUuVaZcT4v30JKb/ZFZlfmj3lhhiKu8wJ99VP1TtTpUClO3Gq75l4NPkO9RohugG1KQC0zpaAn6f8V8V7wIPEDUzTtjqo000Fch2+m+Pfots5VUt+GZ679TNMjUNALrEA067VxVAK6cukdOcLdWmTeTtnsSbb2Zd4AliF2CcC7bPAffi6n/dVId/ZUv/WSHSfywmz62q89Tu9Ij3eG0DAG/4e+MWWn6n1q9sDhPFwFlOKtbmFoDfILqZjKMl4D3kTJXT9o6R67TzygLRRnecg+a6q7oYGgDsTW1rANwB2JvqEI0mdAips0vA4+RbjZom6gCyde/Q8/WIyfGvEZ2BxkmXKPx9Fy4G1U0buIUIAjLpEsGybY5zaxM1jNmCxzrpAF8d5v9gFAGAOZ+7V7VMNY0jry7RDjRjO7qTwI34/smuA/wu8BD56kn24jyxu3EKnwN1cwD42+Rbwe0QtSQeJpdbdQaAAcDurTHkOfQwJwY93AHYqyk8SCO7LnkPpJkFXkG+HF5d7izwbxifQtlV4DeB+xmvoKYJWvQXD7JZAj5Fvh1XPV8b+E4MAPaiCgCGZtgBwJ/jNt1eTBDnKfghyu0ikQaUretViziM73oMIrPrEDsAv0AUzdbZCvDvgf+b8UtraoJp4O+QM33wLOb/10GbWLy0jfnurVLzAGCZfJOiOpkgomg/RLlV7UAzTnYO4ZkAdbEGfIjYCahrisMq0fLzHeTrjqWdOULk/2dL/+kRXbPq+tlokkli59mFp91bY8g7XcN+cRZx+3cvjKLroUe0Az1XeBybmQT+FtEVSPktAf9u/cpYV7KdHvAo8IvEKu04pDI1TdX7/1ryTd5WiNOzTf/JbxrTl/dq6GdpjSIA8MO6e1UlvYeB5XcR+Cj5Jj1tIpf3Nkwlq4t5IhXo58kZVG5mDfgw8HbgESKlSfUzC7ySnIcIniJ2ALLdY3W5WeI9ZACwe8sMeQF92C+OKUB70yKiaFuB5rdGrH5mXLWdBX4Yi4HrZIHYBahqAjLnPC8D7wf+MbETlnms2t5J4CbyLRZ0MP2nTg5g2uleVE10ah0ArGEK0F60iB0AA4D8esCz61c2E8RD/brSA9FVWQB+HfinREpNxlX1HtG56B24Olt3E8CtwDWlB7KJReCT5PwM6HIHyVdDUidVG/1apwCtEh9cHwq7N0sEAcpvgUgDypj2dhR4Na7K1M0S0U7zZ4HfIt/9tEesyl7Alf+6O0y0Dc42cesR6T9Pkuu9r60dxtTlvegS2QRDDXiHXVy6Rv+BZS7Y7kxhAWddVCefnieK6DKZAO4C3kk8SFUfq0R62Vngj4GfIlI1vKdqv7SJXcLrSw9kE6tEm+WLpQeiHbtAtDU+QD+NeXL9miDuXd6/ttZhBG30hx0AuAOwdwYA9XKayIM+Tr482mPEuQCnsDanbnrEBOjXge8mXktX2LRf5oje/xnTTS8Rh38tlx6Idux3gYeJ99Pc+nUQeDHRZvbA+u8dInalJ4j7mR0PQ4chnwIMw//L7hIBQId8k6FsegNfe/RbQK1gHUWdXAI+Qay2Z0vdmgJeTpzOeqrwWLQ7q8REyEUV7ZcWUR+UsVNYj/6iiilm9bFMP2BrDVwT69cU/fTmOWKR83uJgKAKFmbXf67aORj8b427NWIuUesdgC7wFeIPY+5x6BF/L136Bz2sEIHSRSKf9svr318gokC3PutjlWiDeJp8AUCLaAl6O9FZxsCynpz8az/NEAsDRwuPYzNd4A+ItErVU7WoCf2c9kVifjOoChCqXYOqlehhYufg4MCvZ4mgYJr+zsE4BQfVKcBjsQPQxIlG9abvEhP8JSIivkS88eeJ4OjC+u8t0q/6XiM+KK541NNZImf1ZvJtaR4gtvo/xOU3YEnNc5RYFMhW/AvRWOFhmjmHaJoe/c6R1Snig7sG1YR/hniOHSR2DF68/vUg/XqD6qpjvUGPmDMOfad32JOTHs0IAKoV/SplZ5lYsTgPfJH+hP8S/a2x1YF/bzBCVv0tAx8Dfpy4IWUyQQQmN2EAICkm/yfIOUl6mpytlTUag0HBMs8PDFrEHHaSfqrQYHBwmKiXOrJ+zREBRPWz1a5BRiM5RHcUAUC18l1Xgyv51RtxiXiBFoiJ/ZeIyVQ10V8gXrzBCb6ao0d0bXkcuJt8N5kjwFuILg1LZYciqaAjwOvJt1ABcW96H96jdLmN87Kt3iPt9WuCfm3BIeJ9/6L17w9xebei6t+p5sijfIb3iMXi2gcA0M9vr0Mr0OrNVK3kLxEvxML61y/Tn+Qvrl/Vz3Zwoq++ReJMgFvJ11mjTYzrRiII8H0rNU/V+jPrAYFnsPe/9maw3nKZSM+F/s5BtWswS7/m4BDwXfSDg+qfzdDfPahSi4ahCgCG3qmvqQFAj5iwV0W4C/Qn9l/i8kn+8vrPV/+OKTu6kh5RDHyOnL21DwGvJE6YXSw8Fkmjd4A4+Cvj6v8asYN6rvA4NJ6q2swVYrINl3cqqgqSNwYHLyJ2EKoAYY5+ULAfOwZV85yhn3o9qgBggdFNmAe3hgbz8qtxVJ12vkBEg/P08/Kr4tvBCb4Tfe3WaWKF/Tj5CuzawD3A7xNjtOBcao5q9f9O8izMDbpI1FGZ/qNRGZw7VqvvG2sOqmtw9+AAUW9whKg5OEwEC3P0dw2m6O8aXKn2oCqCHosAoEOkznTZ3x7D1QtVrcov8/x2mgv0u+xcpL+aX3XacRVfw1YVA99DFNllc5RYAXyK/iqIpPFXrf4fKT2QTXSJ4t+ncGFCOWycL1aNbeY3/Fyb53chGqw7qGoOqm5Fs/TbmA7uIHTW/7tjEwDME39hu10FHWynWU3kqwLci0SAURXfVkXHttNUaYMPsmPkawk6BdwB3IsBgNQULWJB4nZynia9Bnwcz79R/VSt76u02s26FU0RwUG1SzBHBAeH169VLg8shmLUAcBmBlNtqsl6dQhCtZp/Afg80VZzkX6FdFV8O5i246q+MrkAfIQ4GThbrm0LOAm8lghShl50JKm4CaL+5zg503/OEb3/vR+p7rbrVjSYDtSmHxxMMqIW3aNakVwgVuXn6KfsVGk71Wr+AtEz/zz91fzq37OdpuqqQ+TYP0OsuGUzDfwo8F7gicJjkTR8J4AfIT772XSBB7H3v8ZftehdGXrbz41GGQB8mFgBvUi/084l+iv9VcpO1WVHGhfVLsDN5NxyPwa8injouuomja8JYjfyWOmBbGGBaEww8smQ1DSjCgDmgZ+nvw1Spe2Ym68mWAMeAH6C2HbPpkoJuI/ouy1pPF1DFP9m60oGsfD3BJGOKGnIRpX/16HfW7/qwuPkX03yLHA/W9fClHYdeU8ElbR308RO302lB7KFBeAD2JBAGomMBUDSOFolTgYeSXHPLkwRPcFP4n1BGkdHgJeT72RyiNX/Z4kdABcHpRHwQS+NRpfY2n6CEfT33YUWcC0RBGRMD5C0exPArcCN5GtHDLFA8ijRAcgaQGkEDACk0bkIvI/+6YLZzABvIgIBSePjMPHZPlR6IFs4RzRKWC48DqkxDACk0ekAj5G33WZ1LsAbydkiUNLVaxEH/t1Ezmd+D3iESAFy9V8akYw3A2mcXSR3m7sJ4B6iKNj7g1R/B4HXkbfAf5G4Jy5e6Qcl7R8f8NJodYgzMZ4m72rXcWIXIOuEQdLOtInV/1vI+bzvEbuij5L3fiiNpYw3BGncnSdqAbLuAkwSuwA3kbNgUNLOXEOs/s+VHsgWLhH3Qlt/SiNmACCNXhd4iLw5ry3ipNBXA7OFxyJpdyaIlf9byBnIV53RXP2XCjAAkMo4QwQBWXcBpoC7gBtKD0TSrhwkgvjDpQeyhRXibJTzpQciNZEBgFTGEnAvsQuQ1XHgbVgLINVNiwjg7yR2AjJ6mqiHWi09EKmJDACkMnrAaeIBmPFgMOgXEN5KzhQCSZubIwr5D5YeyBY6xOr/WUz/kYowAJDKWQZ+j9xb4HPkPkBI0vO1iKA9a+cfiHbID5A3BVIae1lvDlIT9IgiuPvIuw3eJtII7ia6A0nK7SjwVvKm7lWtkJ/C1X+pGAMAqaw1og1e5q3wQ8DriYmFpLwmgduBm8n7fK/aIGdd9JAaIesNQmqSZ4AHiWAgozZxJsBdWAsgZXaY6PyTNWVvDXgEeLL0QKSmMwCQylsEPkC0Bs3qIPBm3AWQsqrS9W4lb+efC3jwl5SCAYBUXo9YEbufvLsALWIX4EeJMwIk5XIYeAt5V/+7wMPA4+vfSyrIAEDKYYnYBThXeBzbmSRaC16H9w4pk2r1/ybyfjYvAR8EFkoPRFLeG4XUND3iYJz7yXsuAMC1REFw1g4jUhMdJVL0ZgqPYzuPrV+u/ksJGABIeSwD7wJOkbcj0AyRBuThYFIO08Rn8ubSA9nGPHFvu1h6IJKCAYCUy7NEj+zMLfKO4i6AlEELOAG8kryr/13gCWL1X1ISBgBSLitEnuxp8u4CTBL5xplPGpWaYIL4LF5P3h25S8SJ5/OlByKpz4e3lEvVEeheIhjI6hrgbcCR0gORGuxaIvc/625cF3iU2NXM2uFMaiQDACmfFeBDRDpQZrcC92BbUKmEKeB1RBCQ9Vl+iehudr70QCQ9X9abhtRkPaIQ+H3kXjWbJWoBjuO9RBqlFjHxfw25A/AniN7/mTubSY3kQ1vKaRV4P5EOlLUWoE3UAbyR6EQiaTQOEKk/J0sPZBuLROcfV/+lhAwApLzOAO8y06PkAAAgAElEQVQlHqRZzQA/AtxYeiBSQ7SJlp+vIu/qf5fo+vMQ9v2XUjIAkPLqAA8Q2+hZH6ItYhXyjeRtQyiNk1ngtUQ73qyq3H87/0hJGQBIuZ0hagEulR7INiaJXORbyNuKUBoXtwB3kXv1/wlc/ZdSMwCQclslOgI9TN5aAIi2oD+BbUGlYToI/H1yr/7PE6mL5wqPQ9I2DACk/C4SxXSZawFawO3EoUSThccijaM2cBvxOcu609YDHidW/zN3MJMazwBAyq9L7AA8Su5dgENELcDRwuOQxtER4vM1V3og21gB3k0sWkhKzABAqodLwK8QNQFZVSuUbwEmCo9FGidTRJ3NXeRd/e8STQs+jH3/pfQMAKT6eJx4uK6UHsg2poE3ANeVHog0Ro4Tp/4eKD2QbVwkf9tiSesMAKT6qFrrnS09kG20gBPECcGzhccijYM2cA9x1kbW1f8OkaL4SOmBSNoZAwCpPrrELsDvEt2BspogdgFuJe+ERaqLa4m0usyr/+eJ1X/7/ks1YQAg1csSUWT3TOmBXMEx4E3A4dIDkWpslij8vbb0QLbRIbr+PIq5/1JtGABI9XOaCAKWSw9kG5PAHeRuWShl1gKuJ4p/MxfVzwP3AgulByJp5wwApPrpAPcR6UCZT9o8ArwVDweTdmOOqKU5UXog2+gSjQkeJfe9SNIGBgBSPZ0Ffpvc/bartqBvwMPBpKvRJmpoXkV01srqNPBOIjVRUo0YAEj1VOXdPkLuvNtp+jnM3m+knZkj/6F6K8D9wNOlByLp6vlAlurrAvXovHEdkcc8U3ogUk3cAtxJ3tz/HrH6/0Fy1yJJ2oIBgFRfHeLkzfeQexdgBngztgWVduIo8DZyd9BaIRYfnsDcf6mWDACkelsmOgKdKT2QKzhGFDTOlR6IlNgUcBdwc+mBXMEzRPqPq/9STRkASPX3DHE4WOaH8SRwN7ELIOlyLWL1/3XkPvRrlTiR/NnSA5G0ewYAUv2tEtvxdWgL+jPYFlTazBRRK5M5Va4HPEmkHa4VHoukPTAAkOqvB5wigoDMh/G0iOLG1xCTHUl9J4nOP7OlB7KNS8C7gPOlByJpbwwApPGwShQEP1Z6IFcwQ/9wI+8/UpgkPhfXkfdz0SXuLw+Su+mApB3IeqORdPXOAb9G/l2Am4AfwbagEsRn4gbiwLzMO2PzxC7j2dIDkbR3BgDS+OgSq3MfInd+7gFitfPG0gOREjgIvJXolJVVj9hhfIDc9xZJO2QAII2XFSJH9wzx0M7qBPAmcq94SsM2QbT8zHzoF8Su4rvIvbso6SoYAEjj5wliF2Cl9EC2UXU8uRHvQ2quOaLtZ+bV/y6x8v8oubuMSboKPnil8bNIrNY9Qe5dgMNEW9DMJ55Kw9IC7lm/JguPZSs9ot//r5L7nBFJV8kAQBo/VVvQe8n90G4BtwN3kHcCJA3LQeDNwKHSA9nGCnHi79OlByJpfxkASONplXhwP1l6IFdwGHgtHg6mZpkg8v5vIe9zuAecBj4ILBUei6R9lvXGI2nvzgK/AlwsPZBtTBA7AK/CXQA1Q4s49OunyN0Kd5VIJXwSc/+lsWMAII2vHvAQ8GFyt+6bI1IhMhdCSvtlmgh4byg9kG30gKeA+8jdTEDSLhkASONtgagFyHx4T3UQkrsAGnctogXuK4nzMLJaJv99Q9IeGABI461LtO+7j9jSz2oKeAtwPd6XNL6miLafN5D3fd4FHiPuGZ3CY5E0JFlvQJL2zyLwbvJ38jhJpALNlR6INCTXAW8gd+7/RSL3/1zhcUgaIgMAafz1gGeA95I7n3cSuIs4HKxdeCzSfpsG3ggcLz2QbXSAR4CHcfVfGmsGAFIzrBFb+k+S93CwFjE5ei0wW3gs0n5qATcRdS4ThceynQVioeBC6YFIGi4DAKk5zgC/Ru6H+xQxSboN708aH4eBt5K701UXeD/ROczVf2nM+YCVmqMLPEhs72duC3oEeBO5u6RIO9UmDvy6ndxdrs4Sq/8e+iU1gAGA1CwXiYd85sPB2sRk6RasBVD9zRFpbdeUHsg2VonzQjKnCEraRwYAUrN0iC3+95D7dM9DwE+Qe9IkXUmLKGy/m7yr/9WhX79N9P+X1AAGAFLzLBNtQU+VHsg2qrSJO8g7cZKu5DCRznaw9EC2sQx8gOgU5uq/1BAGAFLzVG1B30/uFb+DROrEkdIDkXZhgn4qW+Zn7VPA/eRuESxpn2W+KUkanjWiFuAJ8qYCTQC3EukT3qtUN8eI060zF7MvA79B7Aa6+i81iA9VqblOEUHApdID2cYccTqwtQCqkykicL2ZvIXsXeLQr/vJ3RVM0hAYAEjNtQo8ADxO3tW/FnADUQuQ+QAladBR4NXkXv2fJ2qB5ksPRNLoGQBIzXaO6P6xWHgc25khCikzH6IkVdrAPcCN5F397xDngTxE3uBf0hAZAEjN1iFSAO4nby0ARCrFPURqhZRZlfs/V3og2zgLvJPcp4JLGiIDAElLRCrAucLj2M4s8EoitULKqsr9v7b0QLbRIQ79ytwAQNKQGQBIAngMeJCoC8ioTdQC3EnetAo1Wws4DryO3DtV54F3kbv4X9KQGQBIgpgMvBN4lrw5wVVHoKOFxyFtZhp4DXBT6YFsYwX4LWL1P+vnXNIIGABIgpgMPA18iLy7AC3gemIXwI5AyuYEkaY2U3ogW6g+4x8g0oAkNZgBgKTKMvA+4nyArGaI9oqHSw9EGjBB5P5fR97n6hLwQeB06YFIKi/rjUrS6PWAZ4i2oMuFx7Kdm4ldgMnSA5HWnQDeSBSrZ9Qlzvt4P7k/25JGxABA0qAOcB+5DwebA14LHCk9EIkIRF9F7s4/i0Th75nSA5GUgwGApI3OE3nCWbuEtIlDlm7GjkAq7ziR+591R6oHPEKc+r1WeCySkjAAkLRRh5gsPE7ePuGHiF2AzIctafxNA3cRxelZzRMdvi6WHoikPAwAJG3UI04KfS+wUHgsW5kA7gBuw/uYymgRuf+vI2/u/xrR2eth8qb0SSrAB6ekzawBDxEHhGU1R3QEytp2UeNtAridWP3P+CytAvn3ER2AJOn/l/GmJSmHC0ThYNbJQxu4lWi9KI3aYSIAzbz6/xBx6FfWVD5JhRgASNpKl6gFeIC8E4hrgNdjLYBGq0V0/rmZvM/R00RL36xpfJIKynrjkpTDElELcKH0QLYwQdQBnMD7mUbnCLH6P116IFuo2vk+jbn/kjbhA1PSdnpEHcCjxKQim6oQ8zbytmHUeJkgUs9uIO8ztCri99AvSZvKevOSlMdF4F7y7gLMEKuxx0oPRI1wmOj8kzXtbJlI/Xm29EAk5WUAIOlKOsQuwEPkrAVoEYXAt+M9TcM1QeT9Zz2Ergs8SbT+zLhjJykJH5aSdmKeaCeY9XTgWeAV5O3IovEwC/wdYhcgoyXgg0QBsCRtyQBA0k50gUeIWoCsuwA3AzeWHojG2nXEAXQZ6016wFPAhzH3X9IVGABI2qlF4J3EbkBG1cFgB0oPRGNpkmg5e7TwOLZS5f6fKj0QSfkZAEi6Gk+QtyNQG7gFW4JqOE4AdxJ1ANlUq/8PkPOzKSkZH5KSrsYC8HvkPVzoOBEEZEzRUH1NEpP/rJ2mlsl9XoekZAwAJF2NNeBB4GFy1gIcAF5OHNQk7ZfjRHpZxsCyQ3wm78NDvyTtkAGApKs1T+wCLJYeyCaqlqDX4f1N+2OSKDC/tvRAtjAPfIC8tTmSEvIBKelqdYg6gKdLD2QLB4GXkTNXW/UzR7yfMh78VfX9f4TYnZOkHTEAkLQb54jTgZcKj2Mzk8Bd5O3WovpoEa1lbyVnQHkJeBdwvvRAJNWLAYCk3egRecfPkjPv+BhwGzlPa1V9TJK3pqRHnND9CHb+kXSVDAAk7dYFou3gSumBbGKSOLE1Y9qG6uMIcDs5i3+XiNz/i6UHIql+DAAk7dYq8BHgNDl3AW4gCje9z2k32sSpvycKj2MzXWL1/wFyfvYkJeeDUdJu9YgUoAfJWYB4mDgTYLr0QFRLh4FXknP1fx54N3b+kbRLBgCS9mIZ+Bg50xCmgJcSXYGkq9EGrl+/sqk6/2Q9kVtSDRgASNqLLtEO9PHSA9lEm0gBOo73Ol2dGeBvkzN4XCbO4fDUX0m75kNR0l5VBxFlPBjsCNHDfar0QFQbLfpdpDK+b6rc/9XSA5FUXwYAkvaqR+wAnCJfQeIkcBM5V3KVU5X+c4x8z8gV4IPY91/SHmW7uUmqp4vAQ+RblWwBJ4k0IGknpoG/BRwoPZBNnCY+Z+b+S9oTAwBJ+6ED/D5whny7AIeIbkAZT3JVPsfJ+X5ZJk7fPlN6IJLqzwBA0n7oESlAj5NvdbJNrOjOlh6I0msTk/9jpQeyQfX5epAovJekPTEAkLRfloCPr3/N5jiRCiRtZ4YoGs/W+38NeIS8h+5JqhkDAEn7pUPsADxbeiCbmCOKgTN2dVEeJ8nZ+/880fozY6ctSTVkACBpP10gDgbLlqZQHQqWsbBTOUwBtxI1I5n0iMLfp3H1X9I+MQCQtJ9WgYeBhdID2aBFpAEdwfueNjcH/CD50n+WiAJ7V/8l7RsfhJL2U49IAXqq9EA2aAGHgRNEoac0qDr86zryvT+qk7az7apJqjEDAEn77RKRBrRceiAbzAIvwToAXa46MO5w6YFssEQc/DVfeiCSxosBgKRheJKoB8hkErgW6wB0uRngB4hDwLLoEV1/Hsbcf0n7zABA0jCcJvqWZ0pbaAFHgWsKj0P5HCHSwzId/rVGpP6cLT0QSePHAEDSMCwSZwJkSwM6ROR5e+/ToOuJ4DCTeeCj5DxXQ1LN+RCUNAxrRBrQxdID2WAG+D5yrfSqrEmi+0+mk6J7wDNEAXCmXTRJY8IAQNIw9IAz5Du5tEWkesyUHojSOEDsAGTq/rMG/CEW/0oaEgMAScNyCfgEMZnJ5Dj5DntSGVX7zxOlB7LBOeLwr2yfHUljwgBA0rB0gCeIQCCTA8BJvP8pVv2vJ9eOUI8o/j1Drt0zSWPEB6CkYekRHUyydTGZJAIA6wA0DXw/ud4LK8TOWbYCekljxABA0jBdIgoZM61ktoC/Tq6iT5VxiAgGMzlL7Jxl+sxIGjMGAJKGaRX4JLlWM6u8b+sAmq1NvA+uIc+zcA14jKgBkKShyXLTkzS+zpCvHegB4CDeA5usCgAy7QQtAp8m0oAkaWh8+EkatnliRTNTSsMssfKbqfWjRmsS+F5gqvRA1vWIQPlZ7P0vacgMACQN2yJRB7BaeiADponJ32TpgaiYWaL9Z5YC4C5x+NdZcgXLksaQAYCkYesAnyNXWkMbOIwBQJMdIt4DWZ6Dq8BngKXSA5E0/tz+ljRsXWJVc5E8hbdt4ChwLblywK9kCpgjz6S1ReymHCXPSvpO3UTUgWRR7ZR1Sg9E0vgzAJA0bFVu80XyHMDVIiaA/4p6nbbaIoKoLJPtFnAz8A7qN3GdI1cAcAYP/5I0IgYAkkZhkSgE7pJn8jpN7ABob2ap1y5KRj1i9T/bqdmSxlSGlThJ428F+CJ2N5E2swb8EfXbRZFUUwYAkkahQ+wAZOoEJGWxQHQAMv1H0kgYAEgahR4RAGTqBCRlcYY4L0OSRsIAQNIo9Ij8ZlscSs/XA84Dy6UHIqk5DAAkjcoyrnJKG60Cn8f8f0kjZAAgaVSWiFagkvqWsP2npBEzAJA0Kh2i2NGJjtS3SrTJ9XMhaWQMACSNSg/4CrYClQZ18TMhacQMACSNSlUIbK6zJEkFGQBIGpUekergaqckSQUZAEgapSUMACRJKsoAQNIorWIKkCRJRRkASBqlDhEESJKkQgwAJI1SD3cAJEkqygBA0ijZ8lCSpMIMACSNUg8DAEmSijIAkDRKPTzxVJKkogwAJEmSpAYxAJAkSZIaxABAkiRJahADAEmSJKlBDAAkSZKkBjEAkCRJkhrEAECSJElqEAMASZIkqUEMACRJkqQGMQCQJEmSGsQAQJIkSWoQAwBJkiSpQQwAJEmSpAYxAJAkSZIaxABAkiRJahADAEmSJKlB2qUHIEmFrQGd0oPQSLWBqdKDkKRSDAAkNVkPeA/wifXv1QzfB/w0MFl6IJJUggGApKb7KPCbQLf0QDQydwM/WXoQklSKNQCSJElSgxgASJIkSQ1iACBJkiQ1iAGAJEmS1CAGAJIkSVKDGABIkiRJDWIAIEmSJDWIAYAkSZLUIAYAkiRJUoMYAEiSJEkNYgAgSZIkNYgBgCRJktQgBgCSJElSgxgASJIkSQ1iACBJkiQ1iAGAJEmS1CAGAJIkSVKDGABIkiRJDdIuPQBJKmwaOAB0cVGkKWZKD0CSSjIAkNRkLeBtwCtKD0Qj0wMOApOlByJJpRgASGq6G9YvSZIawe1uSZIkqUEMACRJkqQGMQCQJEmSGsQAQJIkSWoQAwBJkiSpQQwAJEmSpAYxAJAkSZIaxABAkiRJahADAEmSJKlBDAAkSZKkBjEAkCRJkhrEAECSJElqEAMASZIkqUEMACRJkqQGMQCQJEmSGsQAQJIkSWoQAwBJkiSpQQwAJEmSpAYxAJAkSZIaxABAkiRJahADAEmSJKlBDAAkSZKkBjEAkCRJkhrEAECSJElqEAMASZIkqUEMACRJkqQGMQCQJEmSGsQAQJIkSWoQAwBJkiSpQQwAJEmSpAYxAJAkSZIaxABAkiRJahADAEmSJKlBDAAkSZKkBjEAkDRq3dIDkBLp4mdC0ogZAEgapRXgUulBSEn0gCVgef17SRoJAwBJo7QKXMTJjgTxObhEBAGSNDIGAJJGqQt8kQgEpKbrAvPEzpgkjUy79AAkNUoPuEBMeKYLj2UzndID0FC1ybXw1SEC4rXSA5HULAYAkkapR6x4LgOHCo9lo1XgQ8BZck0StXc94DDwGmC28FgGrREBsQGApJEyAJA0SlUAMA8cJ99E+xPAL2ONwjj6UeBVpQexwSJwHrsASRoxAwBJo7YAnANuASbKDuV5poCXAr+OnYrGzTTx2mZa/YcoiL9YehCSmifb6puk8bdCrHpmzLe/HjiB98ZxcwS4kXyv6zliF0CSRirbzVDS+FsDPkfOTkBHgJuAydID0b6ZAG4gUs4y6QJ/gh2AJBVgACBp1DrAaaIOIJsp4OVEIKDxMAe8AjhQeiAbrABPkXMnTNKYMwCQVMIFottONm0iDegGrJEaBy3gJLGrk6neBCIAPl16EJKayQBAUgmLwLPk7LZzEPhh8hWM6upNAS8DjhYex0Y94BQWm0sqxABAUgmrwKfIWQcwCdxJFI2q3k4SrT+nSg9kgzXgk9j/X1IhBgCSSugBT5O3BeJR4LXkmzhq5yaAe4ggINuzbp54/2fcAZPUANluipKaI/MkaAK4i6gH8D5ZT8eAVxJnAGTSA86QswZGUkP4YJNUyirwh+Rtg3gUeD3WAtTRNJH6c33pgWxilQh8M3bBktQQBgCSSnqSOAwpo0ngNcCt2BGoTlrExP9N5EzhWgQ+Tc76F0kNYQAgqaTzRDegrL3QjwGvAw6VHoh2bJao37iWfM+4HvGeP0Xe97ykBsh2c5TULJeIbkBZ04AmiVqA20sPRDt2M7Fzky33HyIAeJIIAiRJkhqpBdxCBAHPAd9KeD1HtGw8PqS/A+2fw8DvAd+k/Ptms+vLRHDi4pukorwJSSqpR9QAPEXObkDQzyn/u1gQnNkU8CPkrtk4AzxD3ve6pIYwAJBU2iLwcfKmAUGkAr2ZSAWaKDwWXa5NHNz294GZwmPZSgd4jLxnX0iSJI3UMaIlaOkUje2uvyTSS27ExZNsTgDvBL5B+ffJVtefAncM6c8vSVfFh5ikDM4DHwHWSg9kGxPAbcDbgLnCY1HfDPBW4G5ipyajavX/2dIDkSQwAJCUQxd4kPzdUaaBNxCFnFknm03SBu4E/h5woPBYtrMI/AGwXHogkiRJmcwB/4bcaRzV9VngHqwHKKlNdJD6A/J2kPrW+tg+Alw3nL8GSbp6/1HpAUjSug7wbUQf9+8sPJYr+U7gCPA54EvY1WXUWsD3Az8H/DDwgrLD2dbXgF8BPoqHf0mSJF3mGuA3iILb0iu3V7r+Ang3ceKsRuso8K+Br1L+fXCl61PATZhyKykRdwAkZfINop/7beQ8yXXQC4iA5TuATwNfLzucxjgA/AOi5ecLC4/lSjrAbwP/nghqJUmStIkjxMp65rzujTsB7yBOCnaVd3haxEm//wv1WPn/FvAnREqbJKXiDoCkbFaJe9MdxG5Adi8gUlL+CtHr/atFRzO+XgT8JPAzwHeVHcqOrAC/A7wHV/8lSZKu6AjwAeCblF/F3cn1HPAV4BeBg0P4+2i6GeB/Ar5APXaGngM+Q7QodVdIUjruAEjKaJWY/L+U/HneEN2Lvh14CTHezwFL2B1or1rA9xA5/z9LBFffVnREO/N14NeAe4m6FklKxQBAUkY9on3i9xBddtplh7NjbeAE8J8AF4F5DAJ2q0W89v8t8BPUIxCsfBr4V8BZYkdAkiRJO9AGXgX8MeVTOq72+jrwe8Dt1Cd4yaQF3AC8i/oU/FbXN4D/nvxdrCRJklKaBf4J9TgXYOP1TeCTwH9KtK40F3xnponA7yPU73V/jjiZ+Oh+/6VIkiQ1ybXEYUp1KP7cbEL4eeAfY5vQK2kR5yr8Q2LXp46v9xeBn8bXWVJy1gBIyu5rxKrwDxCFtnXybUQHm+uIzkbzwJ8TuwPqmyD+jv4B8FPA91K/SfQacB/wb7EVrCRJ0p4dJ05UrVtKyOD1DeDjwH9FHGhVtwnuMLSAOeDvESk/X6f867Tb67PA3VjzIUmStC/aRE/1uqYCDV5fJU46vpPm1ga0iF2dW4BfJc5QqPPr+jUidcnCX0m1YAqQpDroEakzk8APEafu1tUksaNxIzFh/BpxZkC35KBGaIJolfomorf/y4G/Sj36+2+mC3wM+JdEICNJkqR9dJQ4IbjOq8XV9RyxG/Ax4McZ/7SgKt3nDcRrWPdV/+r6HPBjjPdrJ0mSVNQdxEFL4zB5rK6vEjnw/w2xOj7F+EwoJ4nA7SeJif+fUf7ve7+urwD/iCj0lqTaMAVIUt1cIibH1zM+E69qkvw3gZcQf641YJXoGPStYiPbnRbRsek48GriNN+fJF6zccmT7xBdf/4fortT3V4jSQ1mACCpbjrEyush4G8ALyg7nH3zbcTK/1HgpevXYSIAWCO6CGWfZLaAFxJnN/xd4L8E3ky0cJ1hfHY1IM4q+GfAZ4jdKEmqjboWXUlqthYxyfxnwD2M18Sy0iOCnQvA08AfAo8C54FlIijoFRtdaBFFvTNEsHIz8DLgBiKQmWQ8X5uLwP8M/BbxOkhSrRgASKqrFnAX8C+IYGAcJ5qVHpEOdB44Raw6PwmcBRbW/1mH4QcELaIl6xRR0HuUmOz/AHGQ11EixWecX4tF4rCvf7r+vSTVjgGApDqbBn4a+B+Ik3aboEtM+BeAc8AZ4E+A00Qu+iVih6Cz/rO7bS9are63iRX+A0Ta1Qki9eo4MeE/SLwOE7v8/9RJB3g/8E+AZyi/AyNJu2IAIKnuDgP/HfCfA7OFxzJqPWKCv0ZM+i8R6SkXgC8RAcECcc7A6vrPdQb+Peiv6k8QKTuTxN/jHDHhfzERXB0mJvszxA5Am/Fe6d+oBzwG/I/AIzTn3AZJY8gAQNI4OAL8HPCfEZNT9Sf5HfqT/+rqrv/zHv2JfDX5n6I/wa+upusROyw/CzyAk39JkqTiWsBJ4IPAX1K+P7zXeF1fAP4hBpeSxoRtQCWNg28RaS4LRI76i2hWeoqGZxH4d8CvYtGvpDFhACBpXPSALwKfA/4akbtuEKC9WAb+L+AdwJcLj0WS9o0BgKRx8hwxUZsn2lPOYa2TdmcFeDfwvxOF1ZI0NgwAJI2bLtEv/y+I8wFeiEGArs4qUU/yL4jiX0kaKwYAksZRF/hTYifgOLETYDqQdmIFeC9x0Nez2Otf0hgyAJA0rjpEPcA80SHoIO4EaHurwL3A/0acuPxc2eFI0nAYAEgaZ98kTstdJIKAA7gToM2tEGk//xxX/iWNOQMASePum8ROwEXgGuC78N6n51sCfoco+P1jXPmXNOZ8CEpqgm8CZ4i6gBcTgYD3P0FM/n8Z+Hmi4NeVf0ljzwegpKZ4jtgFOAt8N3AYeEHREamkHtEy9p3ALwIXiAPlJGnsGQBIapIqCPgPwDTwvcBfKToilfIF4JeAf00cIOfkX1JjGABIapoe8CXgMeKk1+8Dvh07BDVFB/gs8I+A3wb+vOxwJGn0DAAkNdUKUfC5CryI6BDkPXG8LQMPEQd83Q+sFR2NJBXiw05Sk60R/d6/AHwncARoFx2RhmUJeBfwC8CjwF+WHY4klWMAIKnp1ogOQZ8k6gG+B/iPMSVoXHSJwu9fAP4l8Vp/s+iIJKkwAwBJirqAPweeWv86R+wIuBtQb8vAx4D/g1j9X8RiX0kyAJCkAV8H/oToEjQFHAUmSg5Iu9ID/gz4TSLf/+PAXxQdkSQlYgAgSc/3l8B54FNEx5iDwAzeL+tiFXiSSPf5f4HPY8qPJD2PDzRJulyPKBr9FNEyskcUCFsbkFeXOOPhV4B/DnwE+Bqm/EjSZQwAJGlrHeKQqE8T+eQvXL88QTiXZeATwP8J/Cqu+kvStgwAJGl7PWKC+QzwR0RQcJg4SdjdgLK6RFeff0tM/h/CVX9JuiIfXpJ0daaA24C3AncQwYDdgkarQ9RpfBh4J/DE+u9JknbAHQBJujrfJA4OexI4B7SIU4StDxi+LjAPfAj4JWLyf2r99yVJO+TDSpJ2b5IoDr4beD1wM9ExSPtviTjB973AA0Qg4Kq/JO2CAYAk7V2bSAW6E3gjcAPRPtQzBPZmDVggdlveTeT4L+CKvyTtiQGAJO2fFnF42C3AK4DbgUPETtI9Ik4AAAItSURBVIF2bo1o6fkg0c7zcSLnv1dyUJI0LgwAJGn/TRAT/5uBlxFFwyeIAmJtbZXI6X8U+ChR3LuAqT6StK8MACRpeNpEu9CjRMegVwMniaLhSWLHoMl6xGr/IjHx/wCR5nOOCAZM9ZGkITAAkKTRqOoErgN+CLgVOA7M0axgYHDSf5pY7f8Ecc7CRZz0S9LQGQBI0mi16O8KXAe8BLiRSBE6yPjWC1QFvWeIot7PAk8Tq/0rmN8vSSNjACBJ5UwQE/5DRADwUqKA+AT9NKE29dsd6K1fq0T7ztPAY8Cn1r+/SAQEXZz4S9LIGQBIUh5tolC4ShX6QeB6YmdgjpxBQY+YyK8Rk/1LRI/+Z4DPrH+9QKzym94jSQkYAEhSTlWqUDXxv4YoIP5rxI7B3Po1QwQFVWAwTF2iI88qMaG/RH/C/3ngWWKyv7D++6b2SFJCBgCSVA9tYpI/tX7NEYHAIWLH4MVEoFBdMwM/Wx1INrhrUH0/OEGvvu8Sk/xVYJmYzFer+wvAl4g0nnn6E/1V+mk9kqTEDAAkqb6qSXx74JqgvyswQQQAM8RuwsTAz7XWryoPv0N/dX+Z/oR+jZjgV5P76gJX9yWplgwAJKkZNtYMbLYDsNmvJUmSJEmSJEmSJEmSJEmSJEmSJEmSJEmSJEmSJEmSJEmSJEmSJEmSJEmSJEmSJEmSJEmSJEmSJEmSJEmSJEmSJEmSJEmSJEmSJEmSJEmSJEmSJGkX/j+L+7c5ef9jQgAAAABJRU5ErkJggg==;" vertex="1" parent="1">
          <mxGeometry x="440" width="80" height="80" as="geometry" />
        </mxCell>
        <mxCell id="qZBXPEywLh7AzfzNeHGv-4" value="" style="shape=image;verticalLabelPosition=bottom;labelBackgroundColor=default;verticalAlign=top;aspect=fixed;imageAspect=0;image=data:image/png,iVBORw0KGgoAAAANSUhEUgAAAgAAAAIACAYAAAD0eNT6AAB58klEQVR42u2dCXwcR5X/pWhkjcdCSUiC41hdZ0+PNJIl31dsLEi4z3BfgV3u5b5vcyT5cx/LuctygwMOjMFZCLCw4VgGkuxyBxYw9xluQkLshCTef9WoW25PpJ7umepRdfdPn8987Dij70zXe1XvV92v3hsYwA9+8IMf/OAHP/hJ+nP22XOD6nVC6DUIHnjggQceeOBli5f0w4faX+CBBx544IEHXrZ4SVVHSb2GQ69St+oDPPDAAw888MDrP6+bD9cfuCL0Gu7xYsADDzzwwAMPvD7yuvnwEfUqh14jPV4MeOCBBx544IHXR143H64/cGXoVe7xYsADDzzwwAMPvD7yAmbcN+rswop6rQq99H+f0OUHgwceeOCBBx54/ecN+kmDJ8T9cP2Bo6HXqh4vBjzwwAMPPPDA6y8vSCDsLABCHz4Weo32eDGj4IEHHnjggQdeX3mDoVMD0QLAf3Ml9AVO9P/s5WICzonggQceeOCBB15feEEC4YqQABiMenM5dOthDIMNHnjggQceeJnkBacGFgRAJ6Wwsu3ZAwYbPPDAAw888LLFq4RODWgBUOr0jKAcEgCrMNjggQceeOCBlzleEMMDATAcdeu/5CuEQABUMNjggQceeOCBlzle+NTAysiiQX5SwHBIAJQx2OCBBx544IGXSd5YSACUOyX9hQVAL+UKYTzwwAMPPPDAW15eIAAqkfHc/6Wh0BlBBH/wwAMPPPDAyy5vLFYOX0gAlBD8wQMPPPDAAy/zvHin90ICAMEfPPDAAw888IrC67GjEAYbPPDAAw888DLOw+CABx544IEHHoI/Bgc88MADDzzwEPwx2OCBBx544IGH4I/BBg888MADDzwEf/DAAw888MADD8EfPPDAAw888MCzMfjHPv2HwQYPPPDAAw+8XPCC0v+xiwSNYrDBAw888MADL/PBvxRLAIT6CY9hsMEDDzzwwAMv08E/6PcTLQD8N1f83f8YBhs88MADDzzwMhv8R/xuv8ORpf/9N5f93f9oqLcwBhs88MADDzzwssUr+68FAdBJKawMCYBRDDZ44IEHHnjgZY5X8eN5IABKnZ4RlEMCYBUGGzzwwAMPPPAyxwtieCAAhqNu/Zd8hRAIgAoGGzzwwAMPPPAyxwvu3gcCYCQq+A/56mBF6HkBBhs88MADDzzwsscbCwmAcqekv7AAGIldJQiDDR544IEHHni28QIBUImM5/4vDYXOCCL4gwceeOCBB152eWOxcvhCAqCE4A8eeOCBBx54mefFO70XEgAI/uCBBx544IFXFF63gR+DDR544IEHHnj54GFwwAMPPPDAAw/BH4MDHnjggddP3rp1U7WadJ/jCXFQOuSbnLIfSUK+JR12wKX06e5adxzjBx6CP3jggQdeTnjr18+6VSneJzm/scrF/0nKol+MPVD9+iDGDzwEf/DAAw+8jPLUnv9uKqD/QQf+WME/9BKU/gOltAx7gIfgDx544IGXIV695p2jAvkN3QT/hZdDfucydt66dVMu7AEegj944IEHnuW82frkrArg1/QU/P2X//t/rwpxUd2bnIM9wOvAHMTggAceeOAtA29ubtdJnhCfMxX821+csi9Lhz1gz8CeEuwBXjjw+3V/YhcJGsVggwceeOCZ49Wq7qPSCv7h/88J+YVw2HPHx8dvDXsg+PsVfzsLgFA/4TEMNnjggQeeGd7GjetJlbHfpR38216HOaVvl44zBXsUNvgH/X6iBYD/5oq/+x/DYIMHHnjgmeF5Qr6zz8G/7UU/ywm/u/pqJ8AehQn+I3633+HI0v/+m8v+7n801FsYgw0eeOCB1wNveqJ2lgrWR5cv+IceD1D6Q0n5U7du3XwG7JtrXtl/LQiATkphZUgAjGKwwQMPPPB64521be4Ul4lv2xD8204PXOsJ+TZ9KgH2zR2v4sfzQACUOj0jKIcEwCoMNnjggQde77wJKZ9vW/Bvex0VlP67IOT2A4tUGYR9M8cLYnggAIajbv2XfIUQCIAKBhs88MADr3fezMy6SUHZ3ywO/u15At+WhD96fHx8JeybSV5w9z4QACNRwX/IVwcrQs8LMNjggQceeAZ40mEfy07wD+cJsD8Kwl6+VBMi2Nda3lhIAJQ7Jf2FBcBI7CpBGGzwwAMPvEhelYh7ZTH4tyUM3sgJ2e9Suh32zQQvEACVyHju/9JQ6Iwggj944IEHngHeRkJuJR3y8ywH/1u8CLlCMPbQXbt2ngJ/sZY3FiuHLyQASgj+4IEHHnjmeJLSV+cq+B/Pu8oT7gUbN66X8BfrePFO74UEQN+Dv04wcQm/vyDsrcqpLuWUfU3XsPa4/EhNus9ZX5+pwxnAAw+8LPL4OF+n1rWbchr8w6zr1es9jLFZ+EvGeN0G/l4+XPevVsr4Bcpp/tzBuW5Wr8P6GRqMBx544GWIdwJ32FfyHvxv0XvAYZ9Xa/u91fUPwV+yxevLh7uOI1tHTLo7mrIDxgMPPPBs50nCHlO04B9+Ccp+otbrZ6jN3knwFwT/1g/n3JMO+W0vzqUU5uc44WcPRBSqgDOABx54y8UTQtxmsbubRQn+bULgb+r1Fr32w18KHPxrtdqtlCI8ZMy5CLlCMqYfDZwAZwAPPPBs4QlK34/gv8jLYZdUOb/z3NyuE+EvBQr+rUlB2OvTcS56Jaf0IXsG9pTgDOCBB96yBn9Cbo/gH81zmfh+zZVPP3Pj7BnwvwIEf0LIGu6QG9J0Lk7Zj2rSffLOndtvA2cADzzw+s1zXXdEEvIDBP+YPCqudhl7DWOMwv9yGvz93f+z++VckovfeK58/s4NM6fDGcADD7x+8dQ69+L0K/KxLyuR8a/q74dzJCZuVq8Gd/jugRhNiOB/vQf/2Kf/THy4Mu5/9tu5OKV/kJS+cKksVDgDeOCBZyz4rxVV7pDrUy7H+4eJM844RX/e+Pj4rYXDnssJ+UWe7iRwh31dMPYIfTcF/pcKLyj9H7tI0GivHx7O/O//uVTyV93MQmfmwhnAAw+8FHiDarPx2dSDq8Me3v79ztoyd/Kk6z3CE+LyXD1GcMjv1Ji+VG3gTof/GQ3+pVgCINRPeKzXDw+qYS2zcx1WDvVGKaUDZwAPPPBM8QSlD047uOoCO+Hb44t9v7rn3VZ9lw+oTc/f85JDoK9Fn6pwGd0C/+s5+Af9fqIFgP/mir/7H+v1w3UnKWu6WunJ4bB36Vt2WNzAAw+8Xnj6EeNStU3MBX/yd/U5E3G/n941693z/C46PwmE+i6Hvttx1ra5U+B/iYP/iN/tdziy9L//5rK/+x8N9Rbu+mKqVPzcQue6Wbe3lFKsx+IGHnjgdcOThL0t/fWKnt/N99PP0fXzdP1cPVe9Bxj7lST8eToPAv4ci1f2XwsCoJNSWBkSAKO9XkxViI9Zriw/PVXzzsbiBh544MXlVRnbptaQo2muV/p4s26a1uP1DuoMe51p72fc5+X0wGF9IsIlpA5/XpJX8eN5IABKnZ4RlEMCYJWJi/Fc+ZhsKEvxRaW27zAQ4ygKnAs88IrL04XHhMO+kfZ65TJ2R5PXq8/ct1oUO+wv+apDQD/DCbnbQFtl2IL7cxDDAwEwHHXrv+QrhEAAVExdzPbtW1ZLzv+YGedaoswwFkvwwAOvdXud0qenvl4R9qG0rlfXSVEbs2dUmfhBvooQ0UNq3J6sS88X3J+Du/eBABiJCv5DvjpYEXpeYPRiJOWvyJ5zHSszjMUSPPDAaz33l9LRTW5Szn7/q66gmvb17t694+RJr3qOdNin8lSB0D/+/foaY25B/XksJADKnZL+wgJgJHaVoAQXoydNcBwwa86ln8Pp9p7txSmwWIIHXvF4Klh+NO31yqX0Cf2+XsZYTXfuixI3GUwgPOpyfknd8+4+N7frpAL5cyAAKpHx3P+lodAZwcG0LkZQ+pEsK0slBH6lruFpM6tXr8JiCR54xeO5Dr9H+usV/W/HWTu8rEcbKX2mEjo/zVXvAcaurFL66CCpMuf+PBYrhy8kAEppBn/9owxw2zwoS12S05PivI0b1xMsluCBVwyeFv7SIT9PeX25ucrZJkvGb0hteM4RhHwhT42M1Ebuj4Kw/1cdH1+bY3+Od3ovJAAG+3Axg5KQb+Wlq5X6+zWekK+bnZ0RWCzBAy/fvFb2fPrryxtsHD+1c14vCXu37neQl9MDukCduqYP6uOchZ0f3Qb+bj/cJeRROWyRGVlmGIsveOBlm8fH+brFcpgM31n85datm8+wefw2bJgVnnAvUNd5VZ5ODwhCLtclnTdt2jRc1PnRlw/Xz1/UgP8pj/2x5+tWs3eGywxj8QUPvMzzTuAO+0ra60ut6j4kK+O3e/fO0zzXfZTOV8jT6QG1fv9ad5Gt1WqrEfxT+nA1wK/MW/Bvf46nz/Byzmew+IIHXrZ5+gRQ6uuL4J/ys9SzNn66E+KOVln1BKe8bF/v1et6j8sP1OuTZyL4G/7w+WpUx0pS5iz4t2f0ftyldDsWX/DAyx5PtxFX8/jPKa8vh6enp6azPn7uWndct17XSXb56j0gvuhyfm91iUMI/oY+PDhLm+/gf1w7z8/pMsNK5Z+IxRc88LLB061oU+9FIt0X52n8Wo95CX+0LqSWs9MDP9YVIJUoPBHBv8cPdxm7fVGC//E8/tVJ13uwrsCFxRc88CwO/oTcPvX1QPD/nZvbfWpO7TGox1CJqIt106QcnR64Vl3Tm6NyvRD8O/D0Tlg7f7GCf/jFvysZiywzjMUcPPCWh6erfkpCfpD2elD3qncsgj3WTdRmPSn+RV37tbla7x12id+waTBLwT/26b80L2ZCuk8tZvAXHcsMYzEHD7zl4wnCXpz6eiDFe4tmjy1bNo17wn1Oa93LU+8Byr4rGHsc52zUcnsEpf9jFwkaTetiztw4e4Ya7L8UNfgvVWYYizl44C1j8F8rqrrgTapFxBj7w+zsOlZge5zACb+7pPSzOVvv/1KT8p9nZtZNWxr8S7EEQKif8FiazqAmwmuLHvzbywzrc6i6HjcWc/DA6ztvMAhKaa4HE271cbCHL7jGxbTa/PybdNiRHK33N1WFOCiJvG348cAyB/+g30+0APDfXPF3/2NpOoNHCNcJIgj+i7azfLk+hoTFHDzw+sPT1eDSXg9cJv/LPw0Ee4R+Js444xQ1/s/TFRFztt5/VRJ27jI+5h30u/yuCAmAyPbAZX/3PxrqLZyaM3BCDqZsvJsyLCYOe0L8y+zsuiks5uCBlx6v1QXPIb9Ncz1Q/31DvT65CfZY+keX45UOewCn7Mu52uwp31Kbupdwzlf32R5l/7UgADophZUhATCatjMIQs5Ky3j6lnqV0kmlwP5F7apvyHDjob9XhXz/dK2+AYsHeOCZ56k59i9prweeFK+CPeLzJquTe6pCXNRa//LymFfFIRWX3icJ2dgHe1T8eB4IgFKnZwTlkABY1SdnGNRZlKk1emDsEfpDao5zhnDYawVlf8uwsowsM4zFAzzwkv94nO9Q8+toqhXluPhJreZVYI/kvHXrpmpaPHFCfp+vnDH6JZfw+93u9D0rUhi/IIYHAmA46tZ/yVcIgQCo9NMZBKWPT3GwvxpOxJgi5DTlTK+sUnF1lm8rqTH793CZYSwe4IGX/EcvvlXGrkx7/goi7gR79MajlJbVuvcPaiP3jVzljFH2S0+6ezdsmKWGxi+4ex8IgJGo4D/kq4MVoecFfXWG+mn1UemQq1NUWjvav1/rTKp0X6wG/3dZvq2kywzrxygDi2SbYvEAD7xoXk3KF6Q+fwn7EOxhlDeoRNttpcMOhPvK5CBh/LDH5btqnE/1OH5jIQFQ7pT0FxYAI7GrBBl2BkHY61MbbDUBl/p+ritXSUKeqATIzzN9W4mQK9SEuKcayhOweIAHXmfezMy6SZeL61Kdv2pjo3aup8Me6fDU2DJB6WvU2veXPJ0eUJu6/1DXdddgPU84foEAqETGc/+XhkJnBAeXyxlcx5HhI4EmB5tTeuOGqboX9f109qm+vRQuAZpNZUmv1GWGz9oydzIWD/DAW5rncvmJtOevWnv+CfZIn6fvIuuxVoLr+7k6PaDjEeFP0teXYPzGYuXwhQRAaTmDf/Cj2+emNdg1KV8V8/sNuYTfP+o5UxacSwrxkwlZffLOndtvg8UDPPCO5+mmXKnPX0KuGEjYRhb27fE0h+SlyWr1PkrcfTZXReLma8O8XtfOiTF+8U7vhQTAoA3Gq3J+59QGm7HfJwyGg4LSuyhGM9P9rLn4tWTs6VFlhrF4gFckXqsMOWO/THn+3lyldD3ssXy8en1yS5XLdyhbXJej0wM3c8I+pjbLc7Oz00M9jV+3gT8t47W6BDLxg7QGW+2IH9NNeVCdcCII+Uy2Gw8tXmYYiwd4ReN5Urwx/We47PWwhx28VpEnSp8pHfKzXJ0eYOxKz3WfuH37ltWZbxEc8GpSPCu9bNzWLbmuv1/dm5zzmPx4phsPhcoMY/EAr2g8tSs8s1WrPV2x/ctarXYr2MMunm6/Lii9j9rMfTFP5eYl53+sCvmaScbGMx389Wvbti3jum90WoOtVNO2Xq93quZtVY60r1OZYcud67BSxW+UUjpYPMArAm/37h0nu0xckfZ8U2vDObCH3Tz9eEYS9p4sV4hdJOH0RumwCznnWzMZ/I91CVSBKb3B3mfqequEiKXKDGeo8dDfBWXv1G1QsXiAl2fehHSf2ofg/+8DMTvAwb7Lz9N3QgVhe1XgvCpPpweEwy7TOWyZC/7633UwSmtwdMCLcy43yfW2lxnO6G2lmz0uG/oWKRYP8PLGW79+1tXVP1Oeb9cxxijskT3ehg3ryzpHrCr413N1eoCQ/UkeR1ljPKXILklrcJTie3Ea16tbWkpKX5b5ohRCfGqq5p2FxQO8vPCUT+9PvTw3Yc+GPbLNm5vbdVLdq95R+ctHu33Ea9t6zyn72vj4+K0HsmQ8FUjvnNrgOOyqer2+Iq3rdV13TC0Gz9EtIDN+W+nSpcoMY/EALyu8iap79/TnG/22LiYGe+SHp/OjJGGvUPb9U9ZPD3CHfV4nQfrXPJgF452gJtWh1LoEUvrgtK9XlxmuSfHM8JnjTN5WaiszjMUDvKzwdu7cdmrc6p49VmzbCXvkk7dmzZqKEgKPUTvp72T79AB9pl/3J3aRoNHlNJ4a9CendlvEYV/p322l3afWXPcJSgj8MNvPlOiVWjgFShKLB3i28yTlL0n9aC2lb4c9CsEb1HdE/Yq1R7P2mNcl9Op6ffLkuCWCVy1SX7ivxtO30tXkujatwRGO2NxP53KctcOdygxn5JnSjyThj1b2GcHiAZ6tPNdxa9wh16ca/An5fafnq7BH/nhyXLr6GLXyr2syEfwZn39R/vjI6/Q7BFb83f/Ycg+22nG+Oa3BUeLifcvkXLrM8F1VIP1ylitSqe//KyUEnrZzw8zpWDzAs4mny6SqBfqzac8PJegfBnsUlzcxMXGSx93n6t4r1gd/9ZKMfbxTe+Cyv/sfDfUWXrbBZozV0hocfX5/dnZGLKNzBWWG/yPTjYc4/2NNyvM3blxPsHiAZwNPP6rqw/y4dCAiQRb2KA5vx46tt6673oOqQnzB1uCvX4KyX0cF/xH1WhkSAKM2DLYKkJ9OsUvg+TY4l34cIR320Uw3HqLsGkn5K6LKDGPxAK8vtd/9EzhpzQ+9edCbE9gDvFuIz3ExrQTov6n1/IhNwb91B4Cyo7cQrX7wH/Z3/4EAWGXLYKvBvEdawcvl4iqdpGeLc0nHmdJlhoN65Rk9PbBomWEsHuD1gycJe1sfEmJfBnuAF8Xz1ninKj95futRab+DP+fzr+ODf+s10H6aS33xknqtCAmAik2DvWvX9pPSfMYyIauPsM25ZuuTs57g71bf94YMNx5aKDOMxQO8fvB0r4/FMrRNzg9O6Q8ppWXYA7w4PF0fQjL2QH3yrJ/rc1gAHKuBQ37XfkFD/u4/EABlK1t4uvL56QUv2rTVuTZM1T31vV/fbU9rSx4j3Kx2ZR/inM9g8QAvLZ4+nqoWuG+mX16Vnw17gNcNj4/zLbofTatxT8rrcyAAjq9WST7dfus/LABGYlcJ6vNgb9680XG5uC6t4OVSusFm54oqM5ylBELdLEWN9XYsHuCZ5qn58YzU/dlhF8Ie4PXK0617PSleLRn7Q1rrc3vw98tVP6X9ogIBMGxr8A94giZ/thd7shP27iw4V6jM8O+y3M9aibnPTk9MbcTiAZ6R4C+l06kZV+/Bn1y9WCMx2AO8bnnbt29ZrYvESS5+ajT4c77Y+67TG8nFBEDJ9uCv/71K6WSKXQKv10kbWXGu8fHxlZKQJ6pF6edZbTyk7+hMVKsPxeIBXq88TtjH0vZnQenjYQ/w0qlYyf45/fWZnrfYlxnKQvAP3eb7bFrBS03w52XNuXRTI/W9/yGod57BxkM3S8bui8UDvG55uk9F6sGfkMsH2rKnYQ/wTPCqnG1q5UmlWq6a/VhvGtu/UFeBfzkH23X4PVLL7iXkF4vVuc+Cc+kyw5Ou93CXiW9n8OjgdVFnqrF4gLcUb2b16lWL3QUz7M83Kf+chT3AS6M8fKvZWurrM73zgKmfZR7sIUHZT9Ka7EoE3DfLzqX7WU941ftLIS7P2NHBS7F4gJeUpxa2V6ftz4Kw18Ee4KVUsfLxaa/P6jM+nJfgH0z6Z6Y32ckX8uBcuha6y9ieqDLD1iUQoqUqeAl4+lip3p2n2/iK/rJ+Wn0U9gDPNE/572qdWJpyxcprquPja3MT/PUPIeTkpc7FmwhewXn13CRI6bOnbWWGbTw9wAnZj8UDvJi8E5YqrGLWn+m9YQ/w0uDpegBpb86OO/aXh+C/cBeAkH9NK3gJSt+RR2f1ywx/YKld03InEOriGEupVSwexeYJIU70a6zftXXb1GGfTDv4q8+5GPYALxV/JuT26a+n7GtL5bRlfrD1YpBi8Do8MzNN8+qsVUKEFlC6oYl9Rwfp+Vg8isXbsGF9eWZyYqZe8+424VYfpxt0eZy/WwX5T6lF7DvKT/+6DI+xdGIqhX3BM81zXXckOLWVoj8f1Xd+cxn8j+UCsEvTCl6edPfm3VlrjnOGLjOsrvewNUcHHfI7PUGweOSG13rWqRcjnWCrdtVPE6RV2rrRyn522FXKP45ad3SVsGfBvuClwVP+vzdtfxaUvSXiOw7mYrBdxs5JbefK2C90j+ciOOum6Y1C7bpeVaXiaksW33OxeGSDt3Xr5jOqlK7Tx4yU3R6r7+BwSt/HHfZ5tXv/UfguU3YqVtJv6wYusC94pnlyXLq66FzK5aqv0o/MFgv8ft2fE+JezKjNg719+5aTdaBOrUtg1X1wkZx18+aNayXlz+1UZjj9xZz+jz7FgMVjeXk6CFJKmZpjt1U794cpkfhST8h3qtenq4J/VwvGLHapjOF/O+Av4KXAG0xyKquHipUPWiL4l2IJAP9iVrVdkJWDrW/Vp7h4fK6IzhpVZrhfi/lUzTsLi0fKi5EQt1F23qQWjHN0trBw2Gv1mWH152WCsl+H2+pmsMJkVxxO6dvhL+ClwdMtgfuQQ/UZPbcXCf5Bv59oAeC/ueLv/sdsH+zZ2XVMP8NObfFwnKmiOn97meF+LuYelx/G4tE9b8f6bWtn6hNb6zXvnJqsPsll7DxJ2Hvm82boIemwI9nfqZvlMUJ+r0TRKQhe4Jnm6Vvy+tZ8mv6sHy2ItaK6SDwf8bv9DkeW/vffXPZ3/4EAsH6wBaPvSK9LIPlXOP/AkEv4/dXO8Bv9WszV3/8+MzPtYfG45Y8+2qMWFCIcsUsJtAcruzxX7eDfqv7+8SpjV6rx+3Peg3UaPOGQnynBtBvBCzzTPDU339yHipUvWeT7lf3XggCICv5aKawMCYDRTFRUGufrUlw8rtOFh+D8/m1jSu/KKftyXxZzIV9etMVD5z7orpQupRskY/dSu/Yn63K3ukiSHnddmW6pxiFFCtYp8m6qSfmGrVs3nY7gBZ6R4O+IzeHHaen4Mz1EKS23fb+KH88DAVCKCv7D/hsDAbAqW0cryBdSbKTwDDj/sR8dpNRO6S5Vzi9NdTF32FX6MUSexm/NmjUVtXufrFW9e3qu+0QVbF7pcfmBquCflw75vq5BgWBtA4//yON8DsEQvB55Q7ogT9r+zAk/u+37BTE8EADDUbf+S75CCARAJXPPWCi9T2rlFCn7iTYknP+WvMnJidunuZirHe9DsjTZ3bXuuO5poBN+BGHP1rf+1O79IHfY19VC8EcE14zxCHub67pjCIbgdcObv4OXsj877MK27xfcvQ8EwEhU8B/y1cGK0POCzA22fi6q2/mmNdi6DTGcf3GeS8WT01rMdUa6DderuyzqhNOJiYmdVSLu1TolQekr1QT/oPrzS/6JiZsQXPPH049d1NpyNwRD8JLwdKE13Ywn3eBPrqaUnt72/cZCAqDcKekvLABGYlcJstB4arf1vBSfsXwGzr84r1ar3aqTo/dijzglLXu9Xv38TGfQ6hrdrZMPlL+kKsR79WMOl4nvu1xch2BYcJ7aabmuexqCIXgx49FFafuzEqf/tMj3CwRAJTKe+780FDojOJhl4+nkqaWON5kY7Cqlk3D+xXnKEd+UYj/r9/f4/Ya0Gncp3a784wHz7aTpG/0OiV9Vu7vfIxiCF3PB/YM+eTEQOmuN9QC8W9z615UxU6+YSq7Qa9si328sVg5fSACUsh78FwbeYe9KrUsgYW+F8y/RcphzL7WuVg65QRetWSohccOGWadem9xZq7oP8Fz5jKqQr1W/d6GahP+l/OGnussgghd4hssFf1zne2A9AK/9RxdS45T9OGV/vlmfFFri+8U7vRcSAIN5MZ7apa9P7ZwwZX/btGnDOJx/cR4n7FOpLb5a2Dns4UqEvUhXa9OfpSbZd9X/uxbBC7zl4OnHXp7rPnX37h0nYz0AL7T7Pz91/yPsDT1fb7eB33bjtXZ+aVWoE+7z4PxLPvO6K4IDeMXj8eb0xNRGrAfgUUonlDD8e7rlqtmvpqamTjR5vbkyXpWKB6RWoU7wH/uKH85/y58T1O78hwgO4BWOR8UR3UhLn0bCelBY3qDugpl6xUpK74fgH8Gbm9t9a8nFb1LsEng/OP8SdwEc9lQEB/CKytNFXxhjs1gPisfTbcxT9z+HfXJubteJCP4deDUpz0trsnPCPg3nX0IACHGizpVAcACvwHUDbhSEXRAuzYrgmm/e+Pj4rVM/TeSwI7P1iXUI/jF4Gzeul2rQrk9N6XPuwfmXEAGEvRXBATzUDWDfE4ScieCaf55OTE7b/9Sm9qUI/gl4kpL3pTXZ9bl3OP/iPzXOpxAcwAOv9Tqq14r6afVRBNd88lqlv1P2P5eK7+/evfM0BP8EPGWYTand5nPINboCHibT4jxPiM8hOIDXJe+m+dLKusRyq57DK9Vc/lamr1dfD2N3QnDNF2/Tpk3Dyj+/nbb/TdVqdzUV/GOf/stHhbr51rWpTHbCn4TJtDiv7noPQjAEb6lqejpZjhNysSvEv3rS3TvhVf+xXvPuMDs5M+E4a4dvcYuVkIN5GD91vR/csm6aI7jmgzdfVTRd//OEvNDQ9Qal/2MXCRrNuvEEpQ9KbbIT8gP1ESdgMt2St2PHVn0S46cIhoXjHZ5va0w/o4s3CcJeogL+I3W7Up03o9shd+N/cQRAZsaPsd9Put4j/GxuBNfsJjyTPiQ8/1nnsxkK/qVYAiDUT3gs68bTt2iUkX6d2mRn7E6YTEt0CWTsmQiuueLdLDn7ldrFXu5x2VD2fY2+C6YC/T11WdKJM844ZSBUI9+k/3USAFm0ByfsoO5RgeCaTZ6y38fS9pdJKZ9kKPgH/X6iBYD/5oq/+x/LRYU6wvamONk/gcm0OI9SepIan+sQXDPD+5Nw2DcEpf+uRPNb1Lx5jhK4D5msVu84M7Nu+qxtc6csl/9FCYBM28MhVysR9eg4wgnriz08LXrT9hdPCW0DRecG/S6/K0ICILI9cNnf/Y+Gegtn2nic89W6oUxKk/2oHJcuJtPiPEnIvyK4WsBrdcmkh9Tf/1MS9h7195e5hDxK7eLvqMuXzqxevcpm/1tKAOTIvpe6jiMRXO3n6bkyn6Sanr9Izm/UDc4MXG/Zfy0IgE5KYWVIAIzmpkIdpe+3ujFDTieTdJwpBOvUeUd1fXCXif+uCvFRT4o3edJ97kTVfbDL6Ba/h/1glv1vMQGQQ/seVsLsGepyhxCsre4186q0/aUm5T8buN6KH88DAVDq9IygHBIAq/JkPD7Ot6TZFWz77NY1mEyL85Ra/hmCdQ88h/1l/hgc/bgSm29TYvZ5KiA+lDt8N2OMbt++bSTvi2+7ADByGsGh11vpL4RcIcbFNIK1fTwVR9bpSo+p+gtjv9y5Yeb0Hq83iOGBABiOuvVf8hVCIAAquaxQ57DLUpvsrnwbJtNSORjkxQj+i/PUf98gufhJq4kIIe9ttRIl7DHqzzu7hNQ71ZooTsLVMQFgyh5KSH1EjfWHrDwq2eooR186PT21EsHaGt4JyjbNtP1lUnoP7PF6g7v3gQAYiQr+Q746WBF6XpBLZxCMPTRN47lSvGfTpg3jmEy3+FkhCL2xgMH/qHr9Rgmgy1vBhrLXe1I+b6LqPqzuTc6tXz9T3bVr+0nwl/gCwLB99fnqMV2zItw8zCb/U9/rf6cnamchWC8/r0rpo9NeX1wuPm7gesdCAqDcKekvLABGYlcJyqAz7Nq185QqE79NMzjoI4euw++BydR+F4B+OG/BX+3S/qp2aVdKh10yn+xIX+AS/jCXsT0eIbxer6/A4muGp4sGmbavJ+RFwXfbvHmj43H+bkv972hVyLcauC0M/+u2vHmttlqfyU85+F/nui4zcL2BAKhExnP/l4ZCZwQH8+4MnnBf0ZdgQ9iHhBC3wWSa/1mzZs2palxuzkrwV6+/SyF+WuW8WRViv1qAXys5f7zayd9FP5/VXQ+xWPaP53L+iRQqrF10i/LhlM5xSn9oo/hUm4uf6IJK8Jf+8zwu96VtX7VxeJah6x2LlcMXEgClIgR//ZqZmfZai3sfgg2n7I86WWsgIgO7UF0C/ZMYVgR/h/xWLfb/rXbvB/QpDpfSp6vd+/1UYN8+PV2v+udvsVhawlMC4BLz56wXBMBx309XK1S+8eqwYLXqsZPD3kUIORn+0h9evebdJXX7EvItXbTO0PXGO70XEgCDRXIGteB/sL/Bhl0ipXSKPpkkEbN9qbBG6bVKfH2XE/Yp3aZTEPYiZYOHq0X9dvqsteu6I1jcssULCwBT/uILgCW/n3DE5k5NiJZNzDrsKiWo7wN/Sf+xscvE99O3L93R9+vtNvBn3RmqjG3r921mHZTULvMJA37vgKJOztYt9dQmE3uTElq3Hkh45h2Lpf28QACY9BdfAER+P7/b2wsXKyRmyWOsBqX0dPhLOryalC9L2756k7Lc11s4Z2jd/l2WZ3z0v4QQk0WdnDoDPs1npAOLFFHB4pZ9ns4BSGHxvTDud6pSOskd9hVLc1j+LCj9h0D4wl/M8Gbrk7NVKo6kGvwJ+f34+PitEfz7XaGOsHOXMcHsek/Kl87N7T61aJNT15OXjP0qvdrq7J5Y3PLH06cAUvCXfQm/3pBL+VN0tradCaz0M5xzAX/pnTc3t+skj8nPpG5fFYcQ/JeBp58DS0JvWs4EH5eJb03VaruKNjmVAHh+eosl/SwWt/zx4rQD7sJf9nXz/aam6uuqnF9q4+kVLU50GWjdjhv+1z2v5rrnpm1fXfwryeNKBH/DPLWo/NKCBJ+bBGEvp5SWi2IPb413KnfI9Wktlvp2LRa3fPG6EQAx/GVft9+vtUOsuo/Xt99trFuhNhdXTE/UtsD/kvO2bdsyHhSGSi/4k7/rJlwI/svIk47zSWuyewn5gXDErsLkYDjsXWktlkpQvRWLW754SQVATH/Z1+v30wl4fpVH6+oG6MRFfQImXJAK/teZp4supX9nh56P4L/8LUb321ZOVvdhj6r/nhd7qF36+rQWSzWGf1uqUA+CazZ5SQRAAn/ZZ+r7KRFwjj6aZ2XdAEK+pY80wv8686YnarvV+N2cpj04ZT8eHx9fuVzBP/bpv7w7w2ICwIbsXvW9fqErzuXdHkoFfymtxVKN39OwuOWHF1cAJPSXfSavVxfnUeLznZb2qrhZzYnX6CJH8L/FeTpvosrZV9O3B73zMl1vUPo/dpGg0Zy3GN1vc216NWE/oJ+X53VyuoTfP726C+xHA37NBSxu2efFEQBd+Mu+dO4s8rP1kVQrNxdqXuiCWPC/W/I8Vz4tbXuoNf2iZQz+pVgCINRPeCznLUb3216bXp8TdTl/0NzcrhPzNjl1kRW1IP0qtZaqhNwNi1tuEnYPpjDf9qV1vTOrV68ShL3e7whp3frSqpDpPyaD/82dODu7TkqHXJ2mPbhDrqk5zhnLFPyDfj/RAsB/c8Xf/Y/lvMXo/sx0pRPikxum6pN5s4euspbW+AlCPo3FLR+8KAHQg7/sS/t6q4zt1C19bVxfWp1LCb8X/G9uTBeFStseShA+ZZmC/4jf7Xc4svS//+ayv/sfDfUWzmuL0Yuy1JJW/fc1Nek+eXZ2eigv9nBd97TwkUDT41evT25CcM1Fwu7BFObbvn5c7+7dO0/TXUh1EzIb1xeX8wPr18+6xQ3+9A59aAz3tT0De0rLcL1l/7UgADophZUhATB6dr5bjB7IYj967rDPyXHp5sUekpD3pjZ+UrwdwTX7vMUEgAF/2dfP6617k9uUr19h6fry5wlZfUyeNhdxeLWapzs/HkrZHkf5ON+yDNdb8eN5IABKnZ4RlEMCYNXZ+W8xeiBrwT9U8vaIJOxZnVRlFuzhMrolrfGTnP9ty5ZN4wiu2ea1CwBD/rJvGa53SLeeVp992Mr1xWGfFEKQovifIOzF/TjavQzXG8TwQAAMR936L/kKIRAAlYK0GD2QyeB//JGS/+Gcz2RejAlxeVrjVxPusxFcs80LCwCD823fstXBIESoz7/UxvWlvXNpboP/WlFNsyLpQtvmJWqSpHi9wd37QACMRAX/IV8drAg9LyhKi9ED2Q7+CxP2RiUEzmvvc5+p2ttV95GpjR8hP4izmCFYW52wezCF+XbhMl/voEvIo6Kyz5d5c/Elxlgtp/43qJsnpb0+C0oftAzXOxYSAOVOSX9hATASu0pQDpxBC4CsB//jnM1h/6ucekcW7aE7I6rrvSq18WPsTgiu2eXpboCm55sn5EU2XK8+GsYJ+5iVm4vWDpk+Xx/ZzZP/6cCc/vjRzwws0ewn5esNBEAlMp77vzQUOiM4WKTFSJ8CyEvwDyecSEbfuH1265rsZePyl6SYM3EJgmt2eUqsf8L0fGsTAMt9vYMu4feTDvmdpZuLb0hCNubB/yilJ8Ut29zt+GnhpB8xLNP1jsXK4QsJgFLRgr/fYnR/zoL/MR5jv6jXvHMyZQ/OV+suWSmN39E4JycQrK1N2L3E9HwLCQBrrneKkNM8zi+0dH25yaX8lVu2bLxNlv1PJ+WlPX46uXAZrzfe6b2QABgs4mLUjQDIUt2A1iLH5T7G2KnZmZz0A6mNH2FvQHDNJi8sAEzND18AWHm9kzXvPkrE/9LO9YX9cKI6cZdMdpUc51uC6oypjR8hP2jPx7JyvnUb+POyGCUVAFkL/seO9pDfqmu9bxbsyznfmuJtub/WT6uPIrhmMmH3EuPieF4AWDt+W7duPkMw+uYkAavPm4t3TkxMnJQV/9NHprnDvp72+AlCzsrafCvkYpREAMSv+ES/o/twWykmHHaAELLGdvuqCXR5WuPnH29CcM1ewu4nUpgfF2YiYY2QM9Xc/Z6VRcko/aWg9K5Z8D9dircP47cPwT8jvLgCIKEzNKqUTiql+RUr7yQ47C9qwv7jwPJkp8Zt/PLQtBY3fVIifO0IrplJ2L04hfmxLyvjRyktqwB2wfyRXyvvVO4LOpfaOH7V8fG1uhlPqsHfIVfrPCYE/4zw4giALpyh4eOHJGFPFpT9zc7HCPSzHiHcRvvW6/UV+rFFel0C+dkIrplL2D2YwvzYl7XxU5uL9bquvI2bCyVO/uCfe7duc6G+14fTvnOiPuPxCP4Z4nUSAF06Q6NNuTNByH9YmkNwndoRP1WLFQu7BL40vS5o9N8RXDOXsHswhfmxL4vjp59lC8Ke3SoHbuHmQs8vd607blHwv0vqwZ+QywdCxcYQ/DPAixIAPThDo/1zdIMNr+o+XjH+YmMCoRIBl01P1LbYZF+dqxC+3Wl4cTs6Mzkxg+CaqYTdg2ncts7y+Olz5irwfNHGzYVOuJWEPVYHxeUcv/Hx8ZWCsp+kfL036zszCP4Z4y0lAHp0hsZS329mZtqrCnHQxtMDulWpJ9yX69al9nQJZB9M63o9Lt+M4JodXhIBkMBf9mV9/KTkJc91n6qu5VorNxdKoEzX6huWL6GYXZB6kSTCXp+l4B/79F8BWozuT8H5G52+n2TsPkkrUfXvNh//riBimw32rTK2M7XrpeLqMzfOnoHgmg1eXAGQ0F/25WX81tdn6p4Qn7byaDIVRzzp7j1r29wp/Ry/+WTs6MJiPd/poOxXtVrtVhnxl6D0f+wiQaM5bzG6PwXnb8T5foSQkwVl77S0DsHNwmGvXbNmTWU57Ts3t+vEquBfT+0cs9o5IbhmgxdHAHQxP/blafz0fFGbiwfrZDxL65J8Qwi+oU/jNygI+ULa1ysovU+Ggn8plgAI9RMey3mL0f0pOH8j2c6Gn92HZ1Rd8ZS6/bGaRLdfTvtOyOrj07pedX3fGVgiYxnB2i5eJwHQ5fzYl8fx08fx9LVZWjdAdy49f7FKeSbHTzrs4X243k/o9SMjwT/o9xMtAPw3V/zd/1jOW4zuT8H5DyT9fjOrV68ShL1O77xtrECoVO47dAON5bDvzp3bb6N2NX9I73rp7RCs7edFCYAiFW1J+NjkbrpQj6VFyb4nCdmZxviNj4/fOuouiKHrPayPUWck+I/43X6HI0v/+28u+7v/0VBv4by2GL3IfItRcbDb71dlbJvelVpafvg3KhDfazns67LOiTzdXq9uw4pgbT9vKQHQ4/zYl/fxUzvtMUnY2ywtb35UBeo3mS7PrTYs/5b29arPeF5G/KXsvxYEQCelsDIkAEbPzneL0QMptBi9uJfvp4vgCMJeopNXbOw9oBz/Il3tqp/2bVXxilEBrcvrvZkxRhGs7eYtJgAM+PO+ooyf2lzcVlJ6yMrNhUN+pjYXdzJxvfquQtrBX23Svrthw/pyBvyl4sfzQACUOj0jKIcEwKqz899i9EAKLUYvNvH96t7ktirnX7W08dCfatJ97NzcrpP62CXwovSul74KwdpuXrsAMOTP+4pkD30mXvn6K3VbXysbmxHyXn37vtvr3bRp07C6vm+nvf55nM9lwF+CGB4IgOGoW/8lXyEEAqBSkBajB1JoMXqxqe+3Y8fWW0+48gWKe9jGroMul5+dnp6a7k8jD3Jmitf7p6VOPCBYW5OwezAFf95XRHvUa95ul4lvW7m5cMjvJl3v3G42F5KwZ/Vh/XtPBvwluHsfCICRqOA/5KuDFaHnBUVpMXrAfIvRVg6A0eutMeaqz7rUxqM9kvO/uZQ+aSBUBjMl+w7GaeXZ9fUS/mgEa6sTdg+m4M8XFtUec3O7T61J+TI1Btdburn4xMbp+kTc6xVCEF3aPO07n5umNvAM2HcsJADKnZL+wgJgJHaVoBwsRloApOD8B1K63kGXkEfpjlMW1g3QryaldCJN++ouhqldLyHfGkCXQJsTdi82n7ArLyp8l0XO63ruWlk3gLK/Vil99ECMo7op5Ygcz3PlEzJi30AAVCLjuf9LQ6EzgoOFcn5CLkohGDbSvN6a45yhM9etrBvgkBskpS/Qz+LSsK9uibrU8R4T16sTpRCsrU3Y/UQKCbsXwR6tnxOUAH6imlvXWrq5uLRKiFjy1j9j90r9+wn+ld27d5ycEfuOxcrhCwmAUtGCv99idH8Kztrow/UOuoTfTz8vs7FugPpe31QLysY07CsIe3mKR3s+gmBtbcLuJSkk7F4Eexz70adh1ObiU1bWDaDssEvp09XXPO4Ymz5CqNbxX6T5/STnN07V6jsyZN94p/dCAmCwiM7fjQCI4VyNfl3vxBlnnKIzZy2tG3CTzjjWmccm7SuldObZqVzvTTMz6yYRrK1M2L0khYTdi2CPW24uJGHn6ufdVm4uCLlCjIvphfWA0len/f1qUr4hl/Ot28CfF+dPKgBiOlej39erz9CqXffPrTzaQ+khfWvd5PXqnXpqXQKFfB2CtX28QACYTdhtCQDYY7Fn6pyvbj96a8v6Mt/gh75UErkxxc3APIOxX/hNw3I93wrp/EkEQALnaizH9W7duvmMqhRvV9/rqIV1A3T73Xdu2bJp3MT16nO4aS1Gkos/bd266XQEa7t4OgcgBX++EPbosLmg9N66CqidRcmOZf2n9f1qVe+BCP45df64AiChczWW83onveqdqlT8wMajPZLzX9eq7gOMdAnk7DvpdQmU/4RgbRdPnwJIwZ/3wR6deRs2zDpqc/FeS4uSpcbzmPw4gn+OnT+OAOjCuRrLfb21mlcRhF2QYvnc3niEfdB13dN6ud4JWX1yal0CHfb1AXQJtIoXpx1wF/68D/ZItLm4h+Tip0UI/i4X183OrptC8M+x83cSAF06V8OW661Sup5T9jUbJ6c+zicofXDcQNt+vZs3b1ijeH9O6/vpyoMIDvbwuhEAMfx5H+yR8E4MZ6PCYa9dqnNpHoJ/69a/K1+A4J9z548SAD04V8Om690zsKckCHu2dNgROycn/bi71h3v5npdxl6dXpdAsh/BwR5eUgEQ0//2wR5d2mOcb1mq7n7Wg3+VsSvP2jJ3MoL/QO5bjO5PwbkaNl6vWCuqalf7BRsnJ3fINYLSxw8sUk446nr1ueUUdyI36S6ECA528JIIgAT+tw/26J7ndy7dO5+Vn5Pgz8XRqZp3Vp6Df+zTfwVoMbo/BedqWDx+JwjGHqcDro2TUwmUL2qhkuR6pcM+mmKXwPMRHOzgxRUACf1vH+zRO086zpRw2GU5CP6609+7c2zfoPR/7CJBozlvMbo/Bedq2O4M+pa7Cm6fsHJyOuyI2lU853an71kR53rVddwuxYqGv3NddwTBwYqE3YMp+N8+2MMYb0iJgKfKPhzNS62xGWN/EEKckuPgX4olAEL9hMdy3mJ0fwrO1cjCZNdH6WpV95GS8z/aODklF9+cnJw4M06XQCUCrkyvSyA7F8HBioTdgynYdx/skZh3AqX0dJ0DoGxyX0Hp05Rgf71e91pV+gj5fRaD/3zzIXFujoN/0O8nWgD4b674u/+xnLcY3Z+Ccx3I0mTfNL1R6IpoltYNuNET7mu2bdt8WtT1qiD92PS+H/2fAXQJtCFh92AK9t0HexzP27Zty/hUzdvqMnZXPa/848Tv4w77PKfsR/MNv3KU8Hfs6O/nB/J59HfQ7/K7IiQAItsDl/3d/2iot3BeW4xeZL7FqDiY0XPWd1MT/ZdWHu1x2PeijuXNrF69Sr3nL2l9P5fS7QgOy56wezAF++4rkj10l061e2e6NLcaz4eqIP8Cj8t3qQ3Ap6uCf1ftgK8uSpGf44M/+XuSVuYZ85ey/1oQAJ2UwsqQABg9O98tRg+kUEv+4qwuHq7rjinV/zZLJ/tRJVDepLt/LXZ9/tnkdL6fwy5EsF72hN00+r3vy9H4DQohbiMJ2SQoPUft3J+i54T6+4d1gp6g7Nd6DmU9WKfDi072zfB8q/jxPBAApU7PCMohAbDq7Py3GD2QQovRi7O++Oodgm7iY+Vkd8jPdfOjW3xnQkR4gTP5/XRFxenpehXBelkTdg+m4H/7sjJ+OzfMnF6vT26p17xzdBVMT4pXqu+vO4Fe2pqrHep85CdYm+Vxyn4c7liao/kWxPBAAAxH3fov+QohEACVgrQYPZBCi9GL87D46kmh2/mGu23ZNNn1c0ndDvm4uwCUXpxiS9BXIlgvHy8sAAzad58N19sq1iUEEY7Ypatjqh37c9WO/S3q7/+uBO83dcVLBOu0ePTOOZxvwd37QACMRAX/IV8drAg9LyhKi9ED5luMtnIAcjN+kpCNakH6hpWTXR/TI/z+QfKOoOKOqX0/Jn67e/fO0xCsl4cXCADD9r0w7evVp22mCDnNpXSDZOxekvAntXrYE/Yhtfv8sp93czOCdf95ut1xTufbWEgAlDsl/YUFwEjsKkE5WIy0AEjBuQ7kbfx08pBOGFLXdr2Nk50T9rFJxsb1Yusy8f30ugS6j0KwXh6e7gZoPmFXXtTr99N3yjjnXkt8uvIJnnBf4XH5AbUR+FyVMv0Y7TCCtYW9SBxyTc1xzsjpfAsEQCUynvu/NBQ6IzhYpMVInwJIwbkaeR0//QxSLWyXWznZKfvrpJRP8lz5zLS+nyDkcgTr5eEpsf6JFBJ2L+rw/Yb8olk71O79gbqnhk5E1XcjdMdI3dAKwTWjPMKenOP5NhYrhy8kAEpFC/7+0bf9KThXI8/jt3v3jpNrUjxTLX7X2jnZZVP927Wp7RzG+RYE6/7zlAC4xLS/1IT7MV1squZ6D6gy9sRWzovDLlR/fqmVbLpI/guCa/Z5nPG/aHGX4/kW7/ReSAAMFnEx6kYAxHDWRhHGTzfi4YR9ysbJLgi9Ma3FQ1D6fgTrZUnYvQTBCzwTPOHQd2C+DSToCpTTwUkqAGI6a6NAzjWoS+Wqa/5TURYPXQmNc74awbrvCbuXIHiBZ4InCHsR5lsPPzlqMbo/BWdtFM25dEDUGbVFWYx0C1QsHunxPM87ue5Nbp/wqvevufLpnpCvk4z9CsELPEPz90WYbwUP/kkEQEJnbRTVufQxJ7/iWK4XI32N+mQEFo/kPN1Dfr5oE52bv3tEX8gpfbt02Cc5Zd/hDvkrghd4qc7fCAGA4F+knWsMAdCFszaK7FyU0pMEpf+W+8WIsQci+N8yQXR2dp0URGxbrFOcCvJXtZejRfACr9+8pQQAgn/Bdq6dBECXztqAcw0MqJ3d2ZKLn+Z1MdJFXIpm31qtdiuXkLqunuZS/jhPile7QnzIZfJLUoifqHG5AcEGPNt5iwkABP8C3raOEgA9OGsDO8N53ubNG9Z4XL5Zjd3NuVyMCNmYF/u2d4pTQf75fmOoT6i/f7u92yKCDXhZ5bULAAT/gj6zXkoA9OisDQT/43mT1Ym5VhDJ22JE2HuyYA9dIXHjxvVyqubtmahWH+oJ9znqu79OJ24u1SkOwQa8vPLCAqCIwT/26b8CtBjdn4KzNhD8b8nTyV86e1733s7LYqSu5foNG2bFcttjZvXqVbqfucvYHSXhj1Zi62VanOhOcVXOf1Sl4giCA3jgHS8ACrg+B6X/YxcJGs15i9H9KThrA8F/aZ50nCm968zLYlST8rw0x+92p+9Z0eoUR8iZ7Z3i/CZNf0JwAC/zR/Mo+5vy5/9Vfv5p5dvv0JsFwdgj1Br9C9PfTwuAggb/UiwBEOonPJbzFqP7U3D+BoJ/R96QmuxPVWN1XdYXN8n5r8/aNndKl+M3qFsaVznbNCGrD6zJ6rM9Kd7ocdmQQlzeqVMcgg14GeHdVKVMBXLa9Estv9Kl9Amc8LszxmYJIScP+B09b5FM7JDvm/9+fG8Bg3/Q7ydaAPhvrvi7/7Gctxjdn4LzH0Dwj8fzCOFqMfhs1hfLSdc7d7HrDTrFqYXubLWr+Ue183iJWgDfpa75M/7CdhjBAbys83RTJE7Z13STJMHom2vCfeGEV/3Hes27w/r6TH379i0nd32aSM2TFLpAnl+w4D/id/sdjiz977+57O/+R0O9hfPaYvQi884lDiL4J+IN6uAYZJlncbHUty4lYc9a6BSnF8NQpzgEG/AyzDs8L1a1aGXv0iJWz1ctarW4XbNmTSXN9UW3VDbfBdK9oEDrc9l/LQiATkphZUgAjJ6d7xajB1JoMXoxgn8XYozztR4TF2PxBQ+8vvFu1o+wXCEu14+dPCn+2aXiySrQ39OldIN+PLXUrfl+rS9VdrwAMDF+IQGQ9/W54sfzQACUOj0jKIcEwKqz899i9IB551oQAAj+XfBqrnuumvS/w2IOHng98/6kE0VbCaM6cbSVQEofrHbzu9etm677uStWrwdhAWBq/HwBkPf1NIjhgQAYjrr1X/IVQiAAKgVpMXrAvHO1BACCfw+8mZlpqsb1PVjMwQNvcZ4+gqoC+SH1//9z/sinPvrJH62PguojofpoaB7Wg0AAmBw/Pwcgz+tpcPc+EAAjUcF/yFcHK0LPC4rSYvSAeedq5QAg+Bvgtc61O+ynCA7gFYx3VBdn0sdlq0J8VFfT9KT7XF3Eqe55t63Vaqvj3prP+nqgcwDM24Pvzfl6OhYSAOVOSX9hATASu0pQDpxLC4AUJvsBBH9zvPpp9VG1u/nnOJXqEGzAywSvlfDaqoz5iflyy/T5uvwyd/huXY5Zl2XGejDPC44BmrRHp3bAORi/QABUIuO5/0tDoTOCg0VyLn0KIIXJ3kDwN89Ti+SOVrY9gg14NteF0A2RdGMkJv6LU/p+5bfnqyD/2FYDJULquqES1oP4vG4FQJR9kwqADI7fWKwcvpAAKBUt+Ot/j9MOuIvFo4Hgnw7Pdd0RtZCepxbWGxFswFsWnm5prFsbq3neanXM2NM9Vz5ssjpxu/XrZ6q6JTLmrzleNwKgk32TCICMjt9oknK/Q0UM/vr/dyMAYiweDUz2dHmc8xklBP4HwQs8kzzukGs4Zd9RQf6TSmS+XfnYC9Xu/Vz151yVEKEFKOZvf3lJBUAcf4krAHJvj24Df14GJ6kAiLkYNeBc6fN0jfyalC9UNkCjG/DiVKu70eXiZ1XOv1wV4iJPyNeqnfvT1A7+7nycrxNCnIj5Zh8viQCI6y9xBABaBBdgcJIIgASLUQPO1T/euonpDS6TX0IwLDZPjLO/tHonEHpI/fk1l5CDLmMv8YTYNcnYuF+OFvMtY7y4AiBR46EOAgDBvyCDE1cAJFyMGnCu/vJ0v3uX8sdyh/wVwTB/PLVzv26xTnHqv28vx6VLKS1jfuSTF0cAJBaLEQIAwb9AzhVHAHSxuDXgXMvDq46Pr1UB4mIE10zxblKL/M8kpV+ShH3Qk+L1E658Zq3qPXBycuLM2dkZMjs7PYT5UUxeJwHQjf8tJQAQ/AvmXJ0EQJeLWwPOtay8QemwByjb/h7Bdfl54U5xulmSWnyfLRl7oD7W6a51x5W9huDP4HUjALr158UEAIJ/AZ0rSgD0sFg2MNmXn6cbmYjWOWwE6xR5R3SpVk+Iz3lMqrHmL1VB/pGLdYqDP4PXDW8pAdCLP7cLAAT/gjrXUgKgx8WygcluD0+JgLsoO/8CwTox72adVKd271+WhH1I7dhfLQl/ksv5vadqtV1b1k3zubldJ8H/wEuTt5gA6HV+hAVAEYN/7NN/eR+cxQSAgcW3gcluF09XX9Pd0BD8j+P9SS2u32zvFCcIOVMIQfYM7CnB/8Bbbl67ADAxPwIBUEB7BKX/YxcJGs3z4LQLAEOLbwOT3U7ehFu7U5WzH+Y9+Aed4qpCfNET8sKalK+akNUnT3rVe3PO60t1ioO/gGcbLywATM0PLQAKGvxLsQRAqJ/wWK4ryoUEgMHFvIHJbi9v+/YtqyXjN2Y4+C90ilM79g+rP1+rFrSnqL+fIwnZ5LruaTprHv4CXh54gQAwO9/43gIG/6DfT7QA8N9c8Xf/Y3kenEAAGF7MD2CyW95ilInD1gZ/Kq6ucv4d9e+XhDvFVRm7re4UV6/XV8C+4BWFpwWA6fnmCXl+wYL/iN/tdziy9L//5rK/+x8N9RbO5eDoboDmnUscxGS3vMUoYYeXI/hzh9zAKfsRd9jnOaXvcxm7oCbdp0x61ftOT9S2b9myaRz2BQ+8Y7wqZYdMi21PuBcUyB5l/7UgADophZUhATCa58FxOT9g3rnkxZjsdvO6FQAdg39bpzhB6dOUyLwvH+db1O79dPW1ToA9wAMvPk8fMzV9py0kAPI+fhU/ngcCoNTpGUE5JABW5d252gWAGedaEACY7JbyuhEAnYK/Pi4He4AHnlleWACYeszmC4C8j18QwwMBMBx167/kK4RAAFSK4FxhAWDOuVoCAJPdYl5SARDztn8T9gAPPLO8QACYzNnxcwDyPH7B3ftAAIxEBf8hXx2sCD0vKIRzBQLArHO1cgAw2S3mJREACZ75N2EP8MAznLBL2SHzCbt8b87HbywkAMqdkv7CAmAkdpWgHDiXFgApZIMfwGS3mxdXACRM+GvCHuCBZzhhN2Y74CTzt1M74ByMXyAAKpHx3P+lodAZwcEiOZc+BZBCNngDk91uXhwB0EW2fxP2AA88s7xuBUDU/E0qADI4fmOxcvhCAqBUtOCv/z1OO+AugkMDk91uXicB0OVRvybsAR54ZnndCIBO8zeJAMjo+MU7vRcSAINFdK5uBECM4NDAZLebFyUAejjn34Q9wAPPLC+pAIgzf+MKgNzbo9vAn5fBSSoAYgaHBpzLbt5SAqDHolBN2AM88MzykgiAuPM3jgBAi+ACDE4SAZAgODTgXHbzFhMABipCNmEP8MAzy4srAJLM304CAMG/IIMTVwAkDA4NOJfdvHYBYKgcdBP2AA88s7w4AiDp/I0SAAj+BXKuOAKgi+DQgHPZzQsLAIO9IJqwB3jgmeV1EgDdzN+lBACCf8Gcq5MA6DI4NOBclrcY9QWA4UZQTdgDPPDM8qIEQLfzdzEBgOBfQOeKEgA9BIcGJrvlLUaVADDe0leIy2AP8MAzy1tKAPQyf9sFAIJ/QZ1rKQHQY3BoYLJb3mKUicPmu0CKy2EP8MAzy1tMAPQq3sMCoIjBP/bpv7wPzmICwMDOsIHJbnuLUXHEfBfIBQEAe4AHniFeuwAwcecuEAAFtEdQ+j92kaDRPA9OuwAwdFu4gclue4vRYwLAXBfIlgCAPcADzyAvLABMPbbTAqCgwb8USwCE+gmP5XlwwgLA4DPhBia77S1G5wWA0UZQ8zkAsAd44JlM2PUFgNmcHb63gME/6PcTLQD8N1f83f9YngcnEACGE8IOYLJb3mKUicMpdIFswh7ggWc4YVcJANMJu56Q5xcs+I/43X6HI0v/+28u+7v/0VBv4VwOju4GaN65xEFMdstbjMZsB5wwQbQJe4AHnuGEXcoOmU/YdS8okD3K/mtBAHRSCitDAmA0z4Pjcn7AvHPJizHZ7eZ1KwA6iMUm7AEeeKYTdo8XAGYSdhcEQN7Hr+LH80AAlDo9IyiHBMCqvDtXuwAw41wLAgCT3VJeNwIgxp2iJuwBHnimE3aPCQBzCbstAZD38QtieCAAhqNu/Zd8hRAIgEoRnCssAMw5V0sAYLJbzEsqAGI+JmrCHuCBZzphd14AmMzZ8XMA8jx+wd37QACMRAX/IV8drAg9LyiEcwUCwKxztXIAMNkt5iURAAlyRJqwB3jgGU7YpeyQ+YRdvjfn4zcWEgDlTkl/YQEwErtKUA6cSwuAFLLBD2Cy282LKwASJog2YQ/wwDOcsBuzHXCS+dupHXAOxi8QAJXIeO7/0lDojOBgkZxLnwJIIRu8gcluNy+OAOjidEgT9gAPPLO8bgVA1PxNKgAyOH5jsXL4QgKgVLTgr/89TjvgLoJDA5Pdbl4nAdDl0dAm7AEeeGZ53QiATvM3iQDI6PjFO70XEgCDRXSubgRAjODQwGS3mxclAHqoC9GEPcADzywvqQCIM3/jCoDc26PbwJ+XwUkqAGIGhwacy27eUgKgx6JQTdgDPPDM8pIIgLjzN44AQIvgAgxOEgGQIDg04Fx28xYTAAYqQjZhD/DAM8uLKwCSzN9OAgDBvyCDE1cAJAwODTiX3bx2AWCoHHQT9gAPPLO8OAIg6fyNEgAI/gVyrjgCoIvg0IBz2c0LCwCDvSCasAd44JnldRIA3czfpQQAgn/BnKuTAOgyODTgXJa3GPUFgOFGUE3YAzzwzPKiBEC383cxAYDgX0DnihIAPQSHBia75S1GlQAw3QWyKsRlsAd44JnlLSUAepm/7QIAwb+gzrWUAOgxODQw2S1vMcrEYfNdIMXlsAd44JnlLSYAehXvYQFQxOAf+/Rf3gdnMQFgYGfYwGS3vcWoOGK+C+SCAIA9wAPPEK9dAJi4cxcIgALaIyj9H7tI0GieB6ddABi6LdzAZLe9xegxAWCuC2RLAMAe4IFnkBcWAKYe22kBUNDgX4olAEL9hMfyPDhhAWDwmXADk932FqPzAsBoI6j5HADYAzzwTCbs+gLAbM4O31vA4B/0+4kWAP6bK/7ufyzPgxMIAMMJYQcw2S1vMcrE4RS6QDZhD/DAM5ywqwSA6YRdT8jzCxb8R/xuv8ORpf/9N5f93f9oqLdwLgdHdwM071ziICa75S1GY7YDTpgg2oQ9wAPPcMIuZYfMJ+y6FxTIHmX/tSAAOimFlSEBMJrnwXE5P2DeueTFmOx287oVAB3EYhP2AA880wm7xwsAMwm7CwIg7+NX8eN5IABKnZ4RlEMCYFXenatdAJhxrgUBgMluKa8bARDjTlET9gAPPNMJu8cEgLmE3ZYAyPv4BTE8EADDUbf+S75CCARApQjOFRYA5pyrJQAw2S3mJRUAMR8TNWEP8MAznbA7LwBM5uz4OQB5Hr/g7n0gAEaigv+Qrw5WhJ4XFMK5AgFg1rlaOQCY7BbzkgiABDkiTdgDPPAMJ+xSdsh8wi7fm/PxGwsJgHKnpL+wABiJXSUoB86lBUAK2eAHMNnt5sUVAAkTRJuwB3jgGU7YjdkOOMn87dQOOAfjFwiASmQ8939pKHRGcLBIzqVPAaSQDd7AZLebF0cAdHE6pAl7gAeeWV63AiBq/iYVABkcv7FYOXwhAVAqWvDX/x6nHXAXwaGByW43r5MA6PJoaBP2AA88s7xuBECn+ZtEAGR0/OKd3gsJgMEiOlc3AiBGcGhgstvNixIAPdSFaMIe4IFnlpdUAMSZv3EFQO7t0W3gz8vgJBUAMYNDA85lN28pAdBjUagm7AEeeGZ5SQRA3PkbRwCgRXABBieJAEgQHBpwLrt5iwkAAxUhm7AHeOCZ5cUVAEnmbycBgOBfkMGJKwASBocGnMtuXrsAMFQOugl7gAeeWV4cAZB0/kYJAAT/AjlXHAHQRXBowLns5oUFgMFeEE3YAzzwzPI6CYBu5u9SAgDBv2DO1UkAdBkcGnAuy1uM+gLAcCOoJuwBHnhmeVECoNv5u5gAQPAvoHNFCYAegkMDk93yFqNKAJjuAlkV4jLYAzzwzPKWEgC9zN92AYDgX1DnWkoA9BgcGpjslrcYZeKw+S6Q4nLYAzzwzPIWEwC9ivewAChi8I99+i/vg7OYADCwM2xgstveYlQcMd8FckEAwB7ggWeI1y4ATNy5CwRAAe0RlP6PXSRoNM+D0y4ADN0WbmCy295i9JgAMNcFsiUAYA/wwDPICwsAU4/ttAAoaPAvxRIAoX7CY3kenLAAMPhMuIHJbnuL0XkBYLQR1HwOAOwBHngmE3Z9AWA2Z4fvLWDwD/r9RAsA/80Vf/c/lufBCQSA4YSwA5jslrcYZeJwCl0gm7AHeOAZTthVAsB0wq4n5PkFC/4jfrff4cjS//6by/7ufzTUWziXg6O7AZp3LnEQk93yFqMx2wEnTBBtwh7ggWc4YZeyQ+YTdt0LCmSPsv9aEACdlMLKkAAYzfPguJwfMO9c8mJMdrt53QqADmKxCXuAB57phN3jBYCZhN0FAZD38av48TwQAKVOzwjKIQGwKu/O1S4AzDjXggDAZLeU140AiHGnqAl7gAee6YTdYwLAXMJuSwDkffyCGB4IgOGoW/8lXyEEAqBSBOcKCwBzztUSAJjsFvOSCoCYj4masAd44JlO2J0XACZzdvwcgDyPX3D3PhAAI1HBf8hXBytCzwsK4VyBADDrXK0cAEx2i3lJBECCHJEm7AEeeIYTdik7ZD5hl+/N+fiNhQRAuVPSX1gAjMSuEpQD59ICIIVs8AOY7Hbz4gqAhAmiTdgDPPAMJ+zGbAecZP52agecg/ELBEAlMp77vzQUOiM4WCTn0qcAUsgGb2Cy282LIwC6OB3ShD3AA88sr1sBEDV/kwqADI7fWKwcvpAAKBUt+Ot/j9MOuIvg0MBkt5vXSQB0eTS0CXuAB55ZXjcCoNP8TSIAMjp+8U7vhQTAYBGdqxsBECM4NDDZ7eZFCYAe6kI0YQ/wwDPLSyoA4szfuAIg9/boNvDnZXCSCoCYwaEB57Kbt5QA6LEoVBP2AA88s7wkAiDu/I0jANAiuACDk0QAJAgODTiX3bzFBICBipBN2AM88Mzy4gqAJPO3kwBA8C/I4MQVAAmDQwPOZTevXQAYKgfdhD3AA88sL44ASDp/owQAgn+BnCuOAOgiODTgXHbzwgLAYC+IJuwBHnhmeZ0EQDfzdykBgOBfMOfqJAC6DA4NOJflLUZ9AWC4EVQT9gAPPLO8KAHQ7fxdTAAg+BfQuaIEQA/BoYHJbnmLUSUATHeBrApxGewBHnhmeUsJgF7mb7sAQPAvqHMtJQB6DA4NTHbLW4wycdh8F0hxOewBHnhmeYsJgF7Fe1gAFDH4xz79l/fBWUwAGNgZNjDZbW8xKo6Y7wK5IABgD/DAM8RrFwAm7twFAqCA9ghK/8cuEjSa58FpFwCGbgs3MNltbzF6TACY6wLZEgCwB3jgGeSFBYCpx3ZaABQ0+JdiCYBQP+GxPA9OWAAYfCbcwGS3vcXovAAw2ghqPgcA9gAPPJMJu74AMJuzw/cWMPgH/X6iBYD/5oq/+x/L8+AEAsBwQtgBTHbLW4wycTiFLpBN2AM88Awn7CoBYDph1xPy/IIF/xG/2+9wZOl//81lf/c/GuotnMvB0d0AzTuXOIjJbnmL0ZjtgBMmiDZhD/DAM5ywS9kh8wm77gUFskfZfy0IgE5KYWVIAIzmeXBczg+Ydy55MSa73bxuBUAHsdiEPcADz3TC7vECwEzC7oIAyPv4Vfx4HgiAUqdnBOWQAFiVd+dqFwBmnGtBAGCyW8rrRgDEuFPUhD3AA890wu4xAWAuYbclAPI+fkEMDwTAcNSt/5KvEAIBUCmCc4UFgDnnagkATHaLeUkFQMzHRE3YAzzwTCfszgsAkzk7fg5AnscvuHsfCICRqOA/5KuDFaHnBYVwrkAAmHWuVg4AJrvFvCQCIEGOSBP2AA88wwm7lB0yn7DL9+Z8/MZCAqDcKekvLABGYlcJyoFzaQGQQjb4AUx2u3lxBUDCBNEm7AEeeIYTdmO2A04yfzu1A87B+AUCoBIZz/1fGgqdERwsknPpUwApZIM3MNnt5sURAF2cDmnCHuCBZ5bXrQCImr9JBUAGx28sVg5fSACUihb89b/HaQfcRXBoYLLbzeskALo8GtqEPcADzyyvGwHQaf4mEQAZHb94p/dCAmCwiM7VjQCIERwamOx286IEQA91IZqwB3jgmeUlFQBx5m9cAZB7e3Qb+PMyOEkFQMzg0IBz2c1bSgD0WBSqCXuAB55ZXhIBEHf+xhEAaBFcgMFJIgASBIcGnMtu3mICwEBFyCbsAR54ZnlxBUCS+dtJACD4F2Rw4gqAhMGhAeeym9cuAAyVg27CHuCBZ5YXRwAknb9RAgDBv0DOFUcAdBEcGnAuu3lhAWCwF0QT9gAPPLO8TgKgm/m7lABA8C+Yc3USAF0Ghwacy/IWo74AMNwIqgl7gAeeWV6UAOh2/i4mABD8C+hcUQKgh+DQwGS3vMWoEgCmu0BWhbgM9gAPPLO8pQRAL/O3XQAg+BfUuZYSAD0GhwYmu+UtRpk4bL4LpLgc9gAPPLO8xQRAr+I9LACKGPxjn/7L++AsJgAM7AwbmOy2txgVR8x3gVwQALAHeOAZ4rULABN37gIBUEB7BKX/YxcJGs3z4LQLAEO3hRuY7La3GD0mAMx1gWwJANgDPPAM8sICwNRjOy0AChr8S7EEQKif8FieBycsAAw+E25gstveYnReABhtBDWfAwB7gAeeyYRdXwCYzdnhewsY/IN+P9ECwH9zxd/9j+V5cAIBYDgh7AAmu+UtRpk4nEIXyCbsAR54hhN2lQAwnbDrCXl+wYL/iN/tdziy9L//5rK/+x8N9RbO5eDoboDmnUscxGS3vMVozHbACRNEm7AHeOAZTtil7JD5hF33ggLZo+y/FgRAJ6WwMiQARvM8OC7nB8w7l7wYk91uXrcCoINYbMIe4IFnOmH3eAFgJmF3QQDkffwqfjwPBECp0zOCckgArMq7c7ULADPOtSAAMNkt5XUjAGLcKWrCHuCBZzph95gAMJew2xIAeR+/IIYHAmA46tZ/yVcIgQCoFMG5wgLAnHO1BAAmu8W8pAIg5mOiJuwBHnimE3bnBYDJnB0/ByDP4xfcvQ8EwEhU8B/y1cGK0POCQjhXIADMOlcrBwCT3WJeEgGQIEekCXuAB57hhF3KDplP2OV7cz5+YyEBUO6U9BcWACOxqwTlwLm0AEghG/wAJrvdvLgCIGGCaBP2AA88wwm7MdsBJ5m/ndoB52D8AgFQiYzn/i8Nhc4IDhbJufQpgBSywRuY7Hbz4giALk6HNGEP8MAzy+tWAETN36QCIIPjNxYrhy8kAEpFC/763+O0A+4iODQw2e3mdRIAXR4NbcIe4IFnlteNAOg0f5MIgIyOX7zTeyEBMFhE5+pGAMQIDg1Mdrt5UQKgh7oQTdgDPPDM8pIKgDjzN64AyL09ug38eRmcpAIgZnBowLns5i0lAHosCtWEPcADzywviQCIO3/jCAC0CC7A4CQRAAmCQwPOZTdvMQFgoCJkE/YADzyzvLgCIMn87SQAEPwLMjhxBUDC4NCAc9nNaxcAhspBN2EP8MAzy4sjAJLO3ygBgOBfIOeKIwC6CA4NOJfdvLAAMNgLogl7gAeeWV4nAdDN/F1KACD4F8y5OgmALoNDA85leYtRXwAYbgTVhD3AA88sL0oAdDt/FxMACP4FdK4oAdBDcGhgslveYlQJANNdIKtCXAZ7gAeeWd5SAqCX+dsuABD8C+pcSwmAHoNDA5Pd8hajTBw23wVSXA57gAeeWd5iAqBX8R4WAEUM/rFP/+V9cBYTAAZ2hg1MdttbjIoj5rtALggA2AM88Azx2gWAiTt3gQAooD2C0v+xiwSN5nlw2gWAodvCDUx221uMHhMA5rpAtgQA7AEeeAZ5YQFg6rGdFgAFDf6lWAIg1E94LM+DExYABp8JNzDZbW8xOi8AjDaCms8BgD3AA89kwq4vAMzm7PC9BQz+Qb+faAHgv7ni7/7H8jw4gQAwnBB2AJPd8hajTBxOoQtkE/YADzzDCbtKAJhO2PWEPL9gwX/E7/Y7HFn6339z2d/9j4Z6C+dycHQ3QPPOJQ5islveYjRmO+CECaJN2AM88Awn7FJ2yHzCrntBgexR9l8LAqCTUlgZEgCjeR4cl/MD5p1LXozJbjevWwHQQSw2YQ/wwDOdsHu8ADCTsLsgAPI+fhU/ngcCoNTpGUE5JABW5d252gWAGedaEACY7JbyuhEAMe4UNWEP8MAznbB7TACYS9htCYC8j18QwwMBMBx167/kK4RAAFSK4FxhAWDOuVoCAJPdYl5SARDzMVET9gAPPNMJu/MCwGTOjp8DkOfxC+7eBwJgJCr4D/nqYEXoeUEhnCsQAGadq5UDgMluMS+JAEiQI9KEPcADz3DCLmWHzCfs8r05H7+xkAAod0r6CwuAkdhVgnLgXFoApJANfgCT3W5eXAGQMEG0CXuAB57hhN2Y7YCTzN9O7YBzMH6BAKhExnP/l4ZCZwQHi+Rc+hRACtngDUx2u3lxBEAXp0OasAd44JnldSsAouZvUgGQwfEbi5XDFxIApaIFf/3vcdoBdxEcGpjsdvM6CYAuj4Y2YQ/wwDPL60YAdJq/SQRARscv3um9kAAYLKJzdSMAYgSHBia73bwoAdBDXYgm7AEeeGZ5SQVAnPkbVwDk3h7dBv68DE5SARAzODTgXHbzlhIAPRaFasIe4IFnlpdEAMSdv3EEAFoEF2BwkgiABMGhAeeym7eYADBQEbIJe4AHnlleXAGQZP52EgAI/gUZnLgCIGFwaMC57Oa1CwBD5aCbsAd44JnlxREASedvlABA8C+Qc8URAF0Ehwacy25eWAAY7AXRhD3AA88sr5MA6Gb+LiUAEPwL5lydBECXwaEB57K8xagvAAw3gmrCHuCBZ5YXJQC6nb+LCQAE/wI6V5QA6CE4NDDZLW8xqgSA6S6QVSEugz3AA88sbykB0Mv8bRcACP4Fda6lBECPwaGByW55i1EmDpvvAikuhz3AA88sbzEB0Kt4DwuAIgb/2Kf/8j44iwmAnneGDvskJrvtLUbFEfNdIBcEAOwBHniGeO0CwMSdu0AAFNAeQen/2EWCRvM8OO0CwNRtYUHI7THZbW4xekwAmOsC2RIAsAd44BnkhQWAufWZvaigwb8USwCE+gmP5XlwwgIghWfC7924cT3BZLePFwgAo42g5nMAYA/wwDOZsOsLALPrM99bwOAf9PuJFgD+myv+7n8sz4MTCADjwf8Y56pJr/oQTHa7eDoHIIUukE3YAzzwDCfsKgFgen32hDy/YMF/xO/2OxxZ+t9/c9nf/Y+GegvncnB0N8AUg//CS1D6Yc75akx2O3hx2wEnTBBtwh7ggWc4YZeyQ+YTdt0LCmSPsv9aEACdlMLKkAAYzfPguJwfSDv4h/7/n1TgOVd99CAm+/LyuhUAHezbhD3AA890wu7xAsBMwu6CAMj7+FX8eB4IgFKnZwTlkABYlXfnahcAKQb/hRcn7FOMMYrJvny8bgRADPs2YQ/wwDOdsHtMAJhL2G0JgLyPXxDDAwEwHHXrv+QrhEAAVIrgXB6XH+ln8F8QAZReKwl5ovo6J2CyL0OL0YQCIKZ9m7AHeOCZTtidFwAm12c/ByDP4xfcvQ8EwEhU8B/y1cGK0POCYjiXkG/td/BvDxqU0glM9j63GE0gABLYtwl7gAee4YRdyg6ZX5/53pyP31hIAJQ7Jf2FBcBI7CpBOXCumnAft4zBf/5ugENukJS+YPv2bSNYPPrUYjSmAEho3ybsAR54hhN2Y7YDTjJ/O7UDzsH4BQKgEhnP/V8aCp0RHCySc7muu0Y5xM3LFfyP4zF25VTN24PFI31eHAHQhX2bsAd44JnldSsAouZvUgGQwfEbi5XDFxIApaIF/4WEMMoayx78j3Fuqkn5z1u2bLwNFo/0eJ0EQJf2bcIe4IFneH3uQgB0mr9JBEBGxy/e6b2QABgsqrNWKZ3klN5oQfAP8eghl7E9WDzS4UUJgB7s24Q9wAPPLC+pAIgzf+MKgNzbo9vAn7fBUQ7xbHuCf+g9hP2L67pjcFazvKUEQK8JnbAHeOCZ5SURAHHnbxwBgBbBxRqcQUHZW6wK/seODP6SE3I3OKs53mICwIB9m7AHeOCZ5cUVAEnmbycBgOBfzMEZVI7xnMUeByxX8G9rM3yh67qnYfEw0GK0TQAYsm8T9gAPPLO8OAIg6fyNEgAI/gV3VsbYrHKSr1oV/I/dDfiDoPTBA345YSweXbYYDQkAg/Ztwh7ggWeW10kAdDN/lxIACP5w1tbPnoE9JUn5c6r0WN/45Q7+x7/oxz3iESweXbYY9QWAYXHXhD3AA88sL0oAdDt/FxMACP5w1lvwpiemNlY5b9oV/Bde19Zc+fTdu3ecjMUjuQAwfmdHiMuwmIMHnlneUgKgl/nbLgAQ/OGsS/J0gPVc96ncIdfYEvyPZ/EvT9fqG7B4xOdVmThsvsWouByLOXjgmeUtJgB6XU/DAqCIwT/26T846zGeu9Yd17fe7Qr+Ps9hR3QCo350gcWjM08JgCPmW4wuCAAs5uCBZ4jXLgBMrKeBACigPYLS/7GLBI3CWY/jDQpKH6ST8WysG8Ap+5pOYsTiEc0LCwBzLUZbAgCLOXjgGeSFBYCp9VQLgIIG/1IsARDqJzwGZ73lj7fGO1U50j5L6wbcqBz8AkppGYvR4rxAABi1x3wOAOYHeOCZTNj1BYDZ9ZTvLWDwD/r9RAsA/80Vf/c/Bmdd+kcX6NGFeiytG/A9QciZWIwWaTHKxOEU7NHE/AAPPMMJu0oAmF5PPSHPL1jwH/G7/Q5Hlv7331z2d/+jod7CcNYlfnSpXknY22ysG6BeR5VAeVP9tPooFqNQi9GY7YAT2qOJ+QEeeIYTdik7ZD5h172gQPYo+68FAdBJKawMCYBROGu8H4/zuSrnP7KyboBDfu4ydlcsRn6L0S4FQAd7NDE/wAPPdMLu8QLATMLuggDI+/hV/HgeCIBSp2cE5ZAAWAVnTcbbunXT6TUp36Db+tpWN0D/vivEh7asm+aFbzHahQCIYY8m5gd44JlO2D0mAMwl7LYEQN7HL4jhgQAYjrr1X/IVQiAAKnDW7nn1mrdbOOwbVtYNYOz3k6738NnZ6aGi2jepAIhpjybmB3jgmU7YnRcAJjdTfg5AnscvuHsfCICRqOA/5KuDFaHnBXDWHnmbNm0alpQ+nzvkeuvqBujTAoQcrDnOGUW0bxIBkMAeTcwP8MAznLBL2SHz6x/fm/PxGwsJgHKnpL+wABiJXSUIzhqLRymd0MHBxroB0iFXS8IfPeA3FyqKfeMKgIT2aGJ+gAee4YTdmO2Ak8zfTu2AczB+gQCoRMZz/5eGQmcEEfzT4Z3gUvoETum1ttUN8F+Xuo4ji2KPOAKgC3s0MT/AA88sr1sBEDV/kwqADI7fWKwcvpAAKCH4p88TQhBO2KesrBtAdVCkz1Bfcyjv9ugkALocvybmB3jgmeV1IwA6zd8kAiCj4xfv9F5IACD494836BL+MOWIf7KwbsD/SUKuEONiOs/2iBIAPYxfE/MDPPDM8pIKgDjzN64AyL09ug38cNbeedVq9XSX8wM21g3gDvm7y9jLdu7cdmouW4wuIQB6HL8m5gd44JnlJREAcedvHAGAFsEYnL7wJr3qQ1wurrKxboAU4nvTE7WzctdidBEBYGD8mvBn8MAzy4srAJLM304CAMEfg9NX3oYNs45g9B1W1g3g4mhVyLdsJORWebFHuwAwNH5N+DN44JnlxREASedvlABA8IezLhtPEHJ7TtmPbawbICj7CSf87DzYIywADI5fE/4MHnhmeZ0EQDfzdykBgOAPZ1123po1ayrCYa9VjnqzdXUD5rsMvosQcnKW7REIAMPj14Q/gweeWV6UAOh2/i4mABD84axW8fg43yIp/baVdQMcdpWg9Jys2kMLAOPjJ8Rl8GfwwDPLW0oA9DJ/2wUAgj+c1UpevV5foZx1r87Kt7BuwP8pEfARSunpWbNHlYnD5luMisvhz+CBZ5a3mADodf0LC4AiBv/Yp//grJY8s3acKeGwy6ysG0DZnwVjj1BfczA7LUbFEfMtRhcEAPwZPPAM8doFgIn1LxAABbRHUPo/dpGgUTirHTzHWTvscfe5yuEP21Y3YH5Skc9MTU1OZ6PF6DEBYK7FaEsAwJ/BA8/o5ueYADC1XmkBUNDgX4olAEL9hMfgrHbx1k9Nzqhg83kb6wa4XFznSfe5O3ZsvbXdLUbnBYDR8ZvPAYA/gweeyYRdXwCYXa/43gIG/6DfT7QA8N9c8Xf/Y3BW+3hzc7tOlIw9UjrsLxbWDfg/ycQVHmPTto6fzgFIQTw14c/ggWc4YVcJANPrlSfk+QUL/iN+t9/hyNL//pvL/u5/NNRbGM5qIU8n4CmHbthYN4A75AZ9q00nMto2fnHbASccvyb8GTzwDCfsUnbIfMKue0GB7FH2XwsCoJNSWBkSAKNwVvt5nJD7KqX8WyvrBhDyLeGIzTaNX7cCoMP1NuHP4IFnOmH3eAFgJmF3QQDkffwqfjwPBECp0zOCckgArIKzZoeni/OowPZuK+sGUHazoPQ1usiRDePXjQCIcb1N+DN44JlO2D0mAMwl7LYEQN7HL4jhgQAYjrr1X/IVQiAAKnDWbPK4w+8gHfZTG+sGcMp+JCmdW+7xSyoAYl5vE/4HHnimE3bnBYDJ9crPAcjz+AV37wMBMBIV/Id8dbAi9LwAzpphXv20+qgKcm9Qzn/UwroBSgjQtwshTly2FqMJBECC623C/8ADz3DCLmWHzK9XfG/Ox28sJADKnZL+wgJgJHaVIDir9by6550thfi+lXUDKPv1pPQeuCwtRmMKgITX24T/gQee4YTdmO2AEzU269AOOAfjFwiASmQ8939pKHRGEME/Z7ydO7ffpiblqyTnN9pWN6B1O47Lxvr1s25fW4zGEABdXG8T/gceeGZ53QqAqPmbVABkcPzGYuXwhQRACcE/50paivWS0v+xsm4AF38SlD5Mff3BfoxfJwHQ5fU24X/ggWeO57ruWBrrVRIBkNHxi3d6LyQAEPwLwNszsKekRMAz1SQ4bFvdAL/L4CVSSift8YsSAD1cbxP+Bx548X50fZAJxuRUzbvzpOs9tibleZ6Q76oy8R9qjbpS7fyvTmuzElcA5N4e3QZ+OH+2eXJcutxhn7exbgCn9FqX0ieor3lCWuO3lADo8Xqb8D/wwGv9DAohbqPrf+i24cJhT1VB93Xq7x8WhFyu5spvljNBOY4AQItgDE7eeYMqED6GO+SvFtYNUC/6X4yxWhrjt5gAMHC9TfgfeEXg7Vi/be26yYnNLud3kYQ/Ws3V8yQh71Vz4FIl4H+o1pTrrSxKFlMAIPhjcArDq46Pr1XK/GIr6waohUR9t+dt2rRp2OT4tQsAQ9fbhP+Bl3WenmtKeFO1e9+lgvlDVIB/XpXLd3hCfLrK2JVqbvzFxkZkSXhRAgDBH5OpiLxB6bAHcEJ+b2XdAId93aV0g7EWoyEBYPB6m/A/8CznDXprvFPVbn2jZOxeah48WVfoVPN+v5pjX1EB/5e6aqeNmwGTvKUEAII/JlOheZun66wqxH5LJ/tNVSFfu337ltU9txj1BYDh79eE/4G3nLyNG9evnpqa3Dzh1u7tue4TPSleofzyPZLSz6qg/4Mkyb95Df5LCQAEf0wm8HzWhFe9n9oh/MrOyc5+OFGduEtPLUaVADD+/YS4DP4HXoq8IXetO64C+U61a3+QCmLPVn++WT++03fI9FHaPAbrNHjtAgDBH5MTvDbe1NTUiYKyt9g62dV3e5s+J9zN9VaZOGy+xai4HP4HXje8ubldJzLGTq1Sut51+D1UkH+i2rW/UgnVD+o7S9IhP9d3wIoYrNPghQVAEYN/7NN/mJzg6WSgJNW4+jnZOSG/UDuguya9XiUAjphvMbogAOB/4B33Qykti7WiqoL6HTxX/pMn3JdXpXhflfNLq1T8QInZvyFY948XCIAC+nNQ+j92kaBRTHbwWgsYYf8vaheynJNdiYAP6OSmuNcbFgDmWoy2BAD8pXi8oZrjnOFSul0n0s4X2qJvVH//qPKRr+rEWgRr23j0hQUN/qVYAiDUT3gMkx284Effomw9b7RwsrcWWsYeOLBIOeFbthidFwBGv998DgD8JUe8ubldJ23cuJ7Ua5M7a668v2DsCUoIv1zZf58g5Iu67Tan9EYE12zxlFh7UgGDf9DvJ1oA+G+u+Lv/MSwe4IV/dDlh4bDnhot9WJXgQ+nFurZB1PXqHIAUvl8T/pItnuu6I67jSLUjnFPB/OH61jBn9N9cLj6ru2gqm16L4Jo/3kTVvUfBgv+I3+13OLL0v//msr/7Hw31FsbiAd5xP5xzTy2cX7KzbgD5qyTssVLy0qKNkQg7nML3a8JfrOKdQCk9XfnpVk7IfdWu7+nK7m9Qdmoov/1v6ZDfIhgWj6de15+5cfaMAs2Psv9aEACdlMLKkAAYxWIE3lK8Xbu2n+S58hm27pQkE/+1bmJ6wy1ajHYpADp8vyb8pX+8iYmJk6Zq3lZ9ZHVCuk/1hPuaqhAf4g77Aqfsx0oE3oBgCN4tTutw+ZECzbeKH88DAVDq9IygHBIAq7AYgReHNzu7bmq+i5eFiwcVR2rSfdFZW+ZODq63GwEQ4/s14S9meLpTnEcIrzJ2W5fwh6kd+wuUzf6l1S2S0m/rTnEIhuB1wbtZ53MUZL4FMTwQAMNRt/5LvkIIBEAFixF4SXizs9NDuna42n390c7Fg/4P53ymGwEQ8/s14S+deTqxbnZ2Rkgqty7WKU5Q9mvdKQ7BCzzjR3WleGNB5ltw9z4QACNRwX/IVwcrQs8LEAzB64rnuu5pfgET++oGtDK26XkiRreyLr5fE/6idu+n1UerlE5Kxu7kUvEYtei+yhP8g56QX5SC/1g/g0XwAq/vwV+Iz8/N7T61IOvzWEgAlDsl/YUFwEjsKkEIhuBF8HRFM06jywnnbDFq5t2+7Z3i9GkQtXt/qxJVH5cO+aYagz8j2IBnXfBn8uObN29YU6D1ORAAlch47v/SUOiMIII/eMZ4QogTJSH/WpDFqJll++pytJumN4qpmnfbSa/6kJpwn+0yFtkpDsEGPJt5uj9Creo+TT92Ktj6PBYrhy8kAEoI/uClxdPnrFUA+WHOF6OmzfZYs2ZNRe3ea9zhd1C2eKSyyUulw96l/vzPKmM/VNd4BMEGvKzzWi3Nhfj0pJRPCh33K9r6HO/0XkgAIPiDlypPByC9o9SZuDldjJrLZQ/HWTu8WKc4tRge1JUboxIzEWzAyxDvOiVav6dE62cEZe9Ufv5i5ef/KAg5S/dacF25CutzAl63gR/BELxueXVvcq7K2XdyuLg1Uxq/wfHx8VsLwTdMSu+BNSmeVZPyDfo8c1Xwr3TqFIdgA15GeDf5LcibkrAPqSD/qlZXRIfdU5cg13NgYJEy31if0SIYvMwdBdt9qifFed0Ua7F4cWt2M35Bpzi1i7m92s38g7+reYf67//Qu52gUxyCDXhZ5um7UMJh39ClugWjb/GE3Furuo+c9Kp30nVEwnU6sJ4i+INXAJ4+LqYWhi/nZLFstl/v7t07Tt44XZ+YqnlnVamI7BSHYANeZnkOO6J26z9Qf/9PtXt/t84vcQl5lM43UQJ3Ymb16lVY/xD8wQNvMd4JkvAnxe2Jbutiqb7/YUn5K9TO5qIq51+uMvFzyfmNCDbgZZx3VHLxG5eJK6pCfFS93uhS/hQV5O+tgv5GXfcj6tY81j8Ef/DA68hrnS8n5NNYfMEDr6+8P6tA/q1WLQfC3iYofV6rxgMRe6am6lN+8RysVwj+GGzwUucN6ras7QVlsJiDB15yns6x0cdvucM+p4L8e1WQP18F+ce0qjQSUq/VarfCeoXgj8EBzyoe53y1rg2PxRw88JZ86X4Jv9H9E6pCHPSEfIvnyudPVN2HTVYn97iuu0Y/XsP6At4izEEMDnjW89RO5T5VKn6L4ABe0Xhq9/5XtWO/stUBsVVNs9UR8VyXsT26U6LumIj1Bbykgd+v+xO7SNAoBhu85eRt2DBLq0K+H8EBvLzw1N//7grxM5ezLwlKPyAI+3+Cscepv99FjItpXUIb6wF4KQT/UiwBEOonPIbBBs8G3kTVvYeg7CcINuBZz3PIb3X7abV7P6B27W9Qu/ZnTrreuZOTE7dft26qpo+HYj0Ar8/BP+j3Ey0A/DdX/N3/GAYbPFt4+jyx7h2fpCkNghd4hltKX8sp+64+saJ27P+m/PFFavf+CBXwb+c6jtSFnTB/wbMs+I/43X6HI0v/+28u+7v/0VBvYQw2eNbwqoxtU4vwdxC8wDPaSIbSG6uU/cIT4iselx+uCfn6qpRPF1Tck3M+o4L7SQMxz7xj/oJnCa/svxYEQCelsDIkAEYx2ODZyNNJUGr39RLukL8jeIEXh6crLyrh+DVO2MdUsH+TJOxZ0mG6QuOOGqXO9u1bTsZ8Ay9HvIofzwMBUOr0jKAcEgCrMNjg2c7TSVOSkCsQDAvPO7xUpzi1e/fGx8dXYr6BVyBeEMMDATAcdeu/5CuEQABUMNjgZYg35FL6dNkqx4tgmEPezWr3/gu/U9x+T4o36K6Ik6734HUTtV2bp+tsdnZ6CPMDPPAWTu+NhgTASFTwH/LVwYrQ8wIMNniZ49UYc6tCfBHBNVu84zrFUfYWtXt/jvr7g9Tu/UwppbNnYE8J8wM88GLzxkICoNwp6S8sAEZiVwnCYINnIW9ubtdJk1I+qUrZXxFcLeBRcaTK2Q89Ib/gcfkBl7HzluoUB38GDzwjvEAAVCLjuf9LQ6Ezggj+4OWCt2Gq7nHCDiJYp8o7qnbvv+IO+4rasV+kXq9Ru/enqCB/Tr3m7d64cb3Uggz+DB54feWNxcrhCwmAEoI/eDnkDbqE30865HcI1l3wHPaXW3SKI+Shave+W3dv3LRp0zD8DzzwrOPFO70XEgAI/uDlljdxxhmnzHdDQ/AP1Zq/Qe3efySZ+KIn+AdrUr56QrpPmaxW7+MxNr1Upzj4H3jg5YTXbeDHYIOXRZ5ugyod8rOCBP/f6OORatf+EV09Uf35NPW6j3DEZt1tUUpegr+ABx54GBzwCsOrn1YflZS+0W+nmsngr/77mirn35UO+9RSneLgL+CBBx6CP3jgLXY3gJCd/tlyq4K/rmyomx4JQr6gO8VJyl/uue5TJ7zq/adq9R2bN290YF/wwAMPwR888HqpG1DzKi7nB9Ruun/Bv61TnPr7M3Siou5vQAhZo77WCbAveOCBh+APHnh94E1U3Ye5jP+t1+AvOf+bFOL7SlD8Z1WK93pCnq/+7R90pzg5Lt32TnGwB3jggYfgDx54y8zTjWBcws4TDrtKtOUH6JeYvz1/jYriX1W79wvV7v0VnNJ/4oTfXUqxfnZ2hoTOvMMe4IEHHoI/eOBljecOuCPiDHGWJOQx0pEPl0RuVP9cwviBBx54WQ/+sU//YbDBAw888MADLxe8oPR/7CJBoxhs8MADDzzwwMt88C/FEgChfsJjGGzwwAMPPPDAy3TwD/r9RAsA/80Vf/c/hsEGDzzwwAMPvMwG/xG/2+9wZOl//81lf/c/GuotjMEGDzzwwAMPvGzxyv5rQQB0UgorQwJgFIMNHnjggQceeJnjVfx4HgiAUqdnBOWQAFiFwQYPPPDAAw+8zPGCGB4IgOGoW/8lXyEEAqCCwQYPPPDAAw+8zPGCu/eBABiJCv5DvjpYEXpegMEGDzzwwAMPvOzxxkICoNwp6S8sAEZiVwnCYIMHHnjggQeebbxAAFQi47n/S0OhM4II/uCBBx544IGXXd5YrBy+kAAoIfiDBx544IEHXuZ58U7vhQQAgj944IEHHnjgFYXXbeDHYIMHHnjggQdePngYHPDAAw888MBD8MfggAceeOCBBx6C//EfHu4RMGagXDB44IEHHnjggddHXjcfHu4RMGqgXDB44IEHHnjggddHXjcfXgnVF15loFwweOCBBx544IHXR17SDx8M9QhYGWouMAgeeOCBBx544GWDFzCTfPhIqEdAucdyweCBBx544IEH3vLwhuIWCRoM9QgIXsM9fjh44IEHHnjggdd/XimWAAi9eTj0Khn4cPDAAw888MADb3l4sQTAUPtroIcf8MADDzzwwAPPCt5gJ7VwQug12OOHgwceeOCBBx54lvD+PzMGLkBuAgbbAAAAAElFTkSuQmCC;" vertex="1" parent="1">
          <mxGeometry x="640" width="80" height="80" as="geometry" />
        </mxCell>
        <mxCell id="qZBXPEywLh7AzfzNeHGv-5" value="Objetivo" style="text;html=1;strokeColor=none;fillColor=none;align=center;verticalAlign=middle;whiteSpace=wrap;rounded=0;" vertex="1" parent="1">
          <mxGeometry x="50" y="80" width="60" height="30" as="geometry" />
        </mxCell>
        <mxCell id="qZBXPEywLh7AzfzNeHGv-6" value="Actores" style="text;html=1;strokeColor=none;fillColor=none;align=center;verticalAlign=middle;whiteSpace=wrap;rounded=0;" vertex="1" parent="1">
          <mxGeometry x="250" y="80" width="60" height="30" as="geometry" />
        </mxCell>
        <mxCell id="qZBXPEywLh7AzfzNeHGv-7" value="Impacto" style="text;html=1;strokeColor=none;fillColor=none;align=center;verticalAlign=middle;whiteSpace=wrap;rounded=0;" vertex="1" parent="1">
          <mxGeometry x="450" y="80" width="60" height="30" as="geometry" />
        </mxCell>
        <mxCell id="qZBXPEywLh7AzfzNeHGv-8" value="Entregables" style="text;html=1;strokeColor=none;fillColor=none;align=center;verticalAlign=middle;whiteSpace=wrap;rounded=0;" vertex="1" parent="1">
          <mxGeometry x="650" y="80" width="60" height="30" as="geometry" />
        </mxCell>
        <mxCell id="qZBXPEywLh7AzfzNeHGv-12" style="edgeStyle=orthogonalEdgeStyle;rounded=0;orthogonalLoop=1;jettySize=auto;html=1;entryX=0;entryY=0.5;entryDx=0;entryDy=0;" edge="1" parent="1" source="qZBXPEywLh7AzfzNeHGv-9" target="qZBXPEywLh7AzfzNeHGv-10">
          <mxGeometry relative="1" as="geometry" />
        </mxCell>
        <mxCell id="qZBXPEywLh7AzfzNeHGv-13" style="edgeStyle=orthogonalEdgeStyle;rounded=0;orthogonalLoop=1;jettySize=auto;html=1;entryX=0;entryY=0.5;entryDx=0;entryDy=0;" edge="1" parent="1" source="qZBXPEywLh7AzfzNeHGv-9" target="qZBXPEywLh7AzfzNeHGv-11">
          <mxGeometry relative="1" as="geometry" />
        </mxCell>
        <mxCell id="qZBXPEywLh7AzfzNeHGv-9" value="Reducir el tiempo medio de atención al cliente" style="rounded=1;whiteSpace=wrap;html=1;" vertex="1" parent="1">
          <mxGeometry x="20" y="290" width="120" height="60" as="geometry" />
        </mxCell>
        <mxCell id="qZBXPEywLh7AzfzNeHGv-20" style="edgeStyle=orthogonalEdgeStyle;rounded=0;orthogonalLoop=1;jettySize=auto;html=1;entryX=0;entryY=0.5;entryDx=0;entryDy=0;" edge="1" parent="1" source="qZBXPEywLh7AzfzNeHGv-10" target="qZBXPEywLh7AzfzNeHGv-14">
          <mxGeometry relative="1" as="geometry" />
        </mxCell>
        <mxCell id="qZBXPEywLh7AzfzNeHGv-21" style="edgeStyle=orthogonalEdgeStyle;rounded=0;orthogonalLoop=1;jettySize=auto;html=1;entryX=0;entryY=0.5;entryDx=0;entryDy=0;" edge="1" parent="1" source="qZBXPEywLh7AzfzNeHGv-10" target="qZBXPEywLh7AzfzNeHGv-15">
          <mxGeometry relative="1" as="geometry" />
        </mxCell>
        <mxCell id="qZBXPEywLh7AzfzNeHGv-10" value="Clientes" style="rounded=1;whiteSpace=wrap;html=1;" vertex="1" parent="1">
          <mxGeometry x="220" y="190" width="120" height="20" as="geometry" />
        </mxCell>
        <mxCell id="qZBXPEywLh7AzfzNeHGv-18" style="edgeStyle=orthogonalEdgeStyle;rounded=0;orthogonalLoop=1;jettySize=auto;html=1;entryX=0;entryY=0.5;entryDx=0;entryDy=0;" edge="1" parent="1" source="qZBXPEywLh7AzfzNeHGv-11" target="qZBXPEywLh7AzfzNeHGv-16">
          <mxGeometry relative="1" as="geometry" />
        </mxCell>
        <mxCell id="qZBXPEywLh7AzfzNeHGv-19" style="edgeStyle=orthogonalEdgeStyle;rounded=0;orthogonalLoop=1;jettySize=auto;html=1;entryX=0;entryY=0.5;entryDx=0;entryDy=0;" edge="1" parent="1" source="qZBXPEywLh7AzfzNeHGv-11" target="qZBXPEywLh7AzfzNeHGv-17">
          <mxGeometry relative="1" as="geometry" />
        </mxCell>
        <mxCell id="qZBXPEywLh7AzfzNeHGv-11" value="Área de atención al cliente" style="rounded=1;whiteSpace=wrap;html=1;" vertex="1" parent="1">
          <mxGeometry x="220" y="430" width="120" height="30" as="geometry" />
        </mxCell>
        <mxCell id="qZBXPEywLh7AzfzNeHGv-24" style="edgeStyle=orthogonalEdgeStyle;rounded=0;orthogonalLoop=1;jettySize=auto;html=1;" edge="1" parent="1" source="qZBXPEywLh7AzfzNeHGv-14" target="qZBXPEywLh7AzfzNeHGv-22">
          <mxGeometry relative="1" as="geometry" />
        </mxCell>
        <mxCell id="qZBXPEywLh7AzfzNeHGv-14" value="Contar con un conocimiento más amplio del modo de trabajo de la empresa." style="rounded=1;whiteSpace=wrap;html=1;" vertex="1" parent="1">
          <mxGeometry x="410" y="135" width="150" height="60" as="geometry" />
        </mxCell>
        <mxCell id="qZBXPEywLh7AzfzNeHGv-25" style="edgeStyle=orthogonalEdgeStyle;rounded=0;orthogonalLoop=1;jettySize=auto;html=1;" edge="1" parent="1" source="qZBXPEywLh7AzfzNeHGv-15" target="qZBXPEywLh7AzfzNeHGv-23">
          <mxGeometry relative="1" as="geometry" />
        </mxCell>
        <mxCell id="qZBXPEywLh7AzfzNeHGv-15" value="Acceder al medio de atención al cliente más rápido." style="rounded=1;whiteSpace=wrap;html=1;" vertex="1" parent="1">
          <mxGeometry x="410" y="225" width="150" height="60" as="geometry" />
        </mxCell>
        <mxCell id="qZBXPEywLh7AzfzNeHGv-28" style="edgeStyle=orthogonalEdgeStyle;rounded=0;orthogonalLoop=1;jettySize=auto;html=1;" edge="1" parent="1" source="qZBXPEywLh7AzfzNeHGv-16" target="qZBXPEywLh7AzfzNeHGv-26">
          <mxGeometry relative="1" as="geometry" />
        </mxCell>
        <mxCell id="qZBXPEywLh7AzfzNeHGv-16" value="Contar con una base de conocimiento de preguntas frecuentes." style="rounded=1;whiteSpace=wrap;html=1;" vertex="1" parent="1">
          <mxGeometry x="410" y="355" width="150" height="60" as="geometry" />
        </mxCell>
        <mxCell id="qZBXPEywLh7AzfzNeHGv-29" style="edgeStyle=orthogonalEdgeStyle;rounded=0;orthogonalLoop=1;jettySize=auto;html=1;" edge="1" parent="1" source="qZBXPEywLh7AzfzNeHGv-17" target="qZBXPEywLh7AzfzNeHGv-27">
          <mxGeometry relative="1" as="geometry" />
        </mxCell>
        <mxCell id="qZBXPEywLh7AzfzNeHGv-17" value="Contar con herramientas de visualización de datos para casos específicos." style="rounded=1;whiteSpace=wrap;html=1;" vertex="1" parent="1">
          <mxGeometry x="415" y="445" width="145" height="60" as="geometry" />
        </mxCell>
        <mxCell id="qZBXPEywLh7AzfzNeHGv-22" value="Ampliar la información de la empresa en la web." style="rounded=1;whiteSpace=wrap;html=1;" vertex="1" parent="1">
          <mxGeometry x="620" y="135" width="120" height="60" as="geometry" />
        </mxCell>
        <mxCell id="qZBXPEywLh7AzfzNeHGv-23" value="Medios de atención virtuales" style="rounded=1;whiteSpace=wrap;html=1;" vertex="1" parent="1">
          <mxGeometry x="620" y="225" width="120" height="60" as="geometry" />
        </mxCell>
        <mxCell id="qZBXPEywLh7AzfzNeHGv-26" value="Base de Conocimientos" style="rounded=1;whiteSpace=wrap;html=1;" vertex="1" parent="1">
          <mxGeometry x="620" y="355" width="120" height="60" as="geometry" />
        </mxCell>
        <mxCell id="qZBXPEywLh7AzfzNeHGv-27" value="Software de visualización de datos" style="rounded=1;whiteSpace=wrap;html=1;" vertex="1" parent="1">
          <mxGeometry x="620" y="445" width="120" height="60" as="geometry" />
        </mxCell>
      </root>
    </mxGraphModel>
  </diagram>
</mxfile>
